Montserrat.glyphspackage
{
glyphname = exclam;
layers = (
{
layerId = "50D943A8-B490-4162-9D4B-803713767B01";
shapes = (
{
closed = 1;
nodes = (
(247,268,l),
(292,700,l),
(22,700,l),
(67,268,l)
);
},
{
closed = 1;
nodes = (
(235,-10,o),
(289,44,o),
(289,110,cs),
(289,177,o),
(235,228,o),
(157,228,cs),
(79,228,o),
(25,177,o),
(25,110,cs),
(25,44,o),
(79,-10,o),
(157,-10,cs)
);
}
);
width = 314;
},
{
background = {
shapes = (
{
closed = 1;
nodes = (
(180,227,l),
(202,700,l),
(72,700,l),
(93,227,l)
);
},
{
closed = 1;
nodes = (
(179,-6,o),
(209,26,o),
(209,65,cs),
(209,105,o),
(179,136,o),
(137,136,cs),
(95,136,o),
(64,105,o),
(64,65,cs),
(64,26,o),
(95,-6,o),
(137,-6,cs)
);
}
);
};
layerId = "5922F47A-F449-4984-8091-CB5BAF0F3D6E";
shapes = (
{
closed = 1;
nodes = (
(180,227,l),
(202,700,l),
(72,700,l),
(93,227,l)
);
},
{
closed = 1;
nodes = (
(179,-6,o),
(209,26,o),
(209,65,cs),
(209,105,o),
(179,136,o),
(137,136,cs),
(95,136,o),
(64,105,o),
(64,65,cs),
(64,26,o),
(95,-6,o),
(137,-6,cs)
);
}
);
width = 273;
},
{
layerId = "09D0C439-80D3-4C25-AAD4-493BFD6E371F";
shapes = (
{
closed = 1;
nodes = (
(128,188,l),
(132,700,l),
(110,700,l),
(114,188,l)
);
},
{
closed = 1;
nodes = (
(135,-3,o),
(147,9,o),
(147,23,cs),
(147,37,o),
(135,49,o),
(121,49,cs),
(107,49,o),
(95,37,o),
(95,23,cs),
(95,9,o),
(107,-3,o),
(121,-3,cs)
);
}
);
width = 242;
}
);
leftKerningGroup = exclam;
rightKerningGroup = exclam;
unicode = 33;
}
{
glyphname = numbersign;
layers = (
{
layerId = "50D943A8-B490-4162-9D4B-803713767B01";
shapes = (
{
closed = 1;
nodes = (
(536,0,l),
(623,700,l),
(463,700,l),
(376,0,l)
);
},
{
closed = 1;
nodes = (
(693,137,l),
(693,287,l),
(13,287,l),
(13,137,l)
);
},
{
closed = 1;
nodes = (
(277,0,l),
(364,700,l),
(204,700,l),
(117,0,l)
);
},
{
closed = 1;
nodes = (
(727,413,l),
(727,563,l),
(47,563,l),
(47,413,l)
);
}
);
width = 740;
},
{
background = {
shapes = (
{
closed = 1;
nodes = (
(481,0,l),
(567,700,l),
(486,700,l),
(400,0,l)
);
},
{
closed = 1;
nodes = (
(650,175,l),
(649,257,l),
(25,257,l),
(26,175,l)
);
},
{
closed = 1;
nodes = (
(221,0,l),
(308,700,l),
(227,700,l),
(140,0,l)
);
},
{
closed = 1;
nodes = (
(682,443,l),
(681,525,l),
(58,525,l),
(58,443,l)
);
}
);
};
layerId = "5922F47A-F449-4984-8091-CB5BAF0F3D6E";
shapes = (
{
closed = 1;
nodes = (
(481,0,l),
(567,700,l),
(486,700,l),
(400,0,l)
);
},
{
closed = 1;
nodes = (
(649,175,l),
(649,257,l),
(25,257,l),
(25,175,l)
);
},
{
closed = 1;
nodes = (
(221,0,l),
(308,700,l),
(227,700,l),
(140,0,l)
);
},
{
closed = 1;
nodes = (
(682,443,l),
(681,525,l),
(58,525,l),
(58,443,l)
);
}
);
width = 707;
},
{
layerId = "09D0C439-80D3-4C25-AAD4-493BFD6E371F";
shapes = (
{
closed = 1;
nodes = (
(438,0,l),
(524,700,l),
(504,700,l),
(418,0,l)
);
},
{
closed = 1;
nodes = (
(615,210,l),
(615,229,l),
(35,229,l),
(35,210,l)
);
},
{
closed = 1;
nodes = (
(178,0,l),
(264,700,l),
(244,700,l),
(158,0,l)
);
},
{
closed = 1;
nodes = (
(646,471,l),
(646,490,l),
(66,490,l),
(66,471,l)
);
}
);
width = 682;
}
);
leftKerningGroup = numbersign;
rightKerningGroup = numbersign;
unicode = 35;
}
{
color = 9;
glyphname = dollar;
layers = (
{
layerId = "F8979A7A-D567-4923-B760-2FF7DE8E5553";
name = "Bold.Bold [179]";
shapes = (
{
closed = 1;
nodes = (
(535,-16,o),
(644,92,o),
(644,220,cs),
(644,478,o),
(257,408,o),
(257,492,cs),
(257,516,o),
(279,536,o),
(348,536,cs),
(409,536,o),
(474,519,o),
(543,484,c),
(614,655,l),
(541,696,o),
(444,716,o),
(350,716,cs),
(133,716,o),
(24,610,o),
(24,480,cs),
(24,219,o),
(411,290,o),
(411,202,cs),
(411,178,o),
(387,164,o),
(320,164,cs),
(243,164,o),
(155,189,o),
(89,228,c),
(13,56,l),
(83,13,o),
(201,-16,o),
(318,-16,cs)
);
},
{
closed = 1;
nodes = (
(411,-120,l),
(411,10,l),
(270,10,l),
(270,-120,l)
);
},
{
closed = 1;
nodes = (
(411,690,l),
(411,820,l),
(270,820,l),
(270,690,l)
);
}
);
width = 657;
},
{
layerId = "50D943A8-B490-4162-9D4B-803713767B01";
shapes = (
{
closed = 1;
nodes = (
(411,-120,l),
(411,820,l),
(270,820,l),
(270,-120,l)
);
},
{
closed = 1;
nodes = (
(535,-16,o),
(644,92,o),
(644,220,cs),
(644,478,o),
(257,408,o),
(257,492,cs),
(257,516,o),
(279,536,o),
(348,536,cs),
(409,536,o),
(474,519,o),
(543,484,c),
(614,655,l),
(541,696,o),
(444,716,o),
(350,716,cs),
(133,716,o),
(24,610,o),
(24,480,cs),
(24,219,o),
(411,290,o),
(411,202,cs),
(411,178,o),
(387,164,o),
(320,164,cs),
(243,164,o),
(155,189,o),
(89,228,c),
(13,56,l),
(83,13,o),
(201,-16,o),
(318,-16,cs)
);
}
);
width = 657;
},
{
layerId = "406D1D82-91A5-4BFF-B4B5-400E8D136AD2";
associatedMasterId = "5922F47A-F449-4984-8091-CB5BAF0F3D6E";
name = "SemiBold [179]";
shapes = (
{
closed = 1;
nodes = (
(498,-9,o),
(587,85,o),
(587,195,cs),
(587,452,o),
(167,350,o),
(167,509,cs),
(167,566,o),
(215,612,o),
(328,612,cs),
(390,612,o),
(459,594,o),
(521,556,c),
(558,647,l),
(498,687,o),
(412,709,o),
(329,709,cs),
(141,709,o),
(54,615,o),
(54,504,cs),
(54,244,o),
(474,347,o),
(474,187,cs),
(474,131,o),
(425,88,o),
(310,88,cs),
(222,88,o),
(133,121,o),
(79,167,c),
(38,77,l),
(95,26,o),
(202,-9,o),
(310,-9,cs)
);
},
{
closed = 1;
nodes = (
(355,-120,l),
(355,51,l),
(282,51,l),
(282,-120,l)
);
},
{
closed = 1;
nodes = (
(355,651,l),
(355,820,l),
(282,820,l),
(282,651,l)
);
}
);
width = 625;
},
{
background = {
shapes = (
{
closed = 1;
nodes = (
(355,-120,l),
(355,820,l),
(282,820,l),
(282,-120,l)
);
},
{
closed = 1;
nodes = (
(498,-9,o),
(587,85,o),
(587,195,cs),
(587,451,o),
(167,347,o),
(167,509,cs),
(167,566,o),
(215,612,o),
(328,612,cs),
(390,612,o),
(459,594,o),
(521,556,c),
(558,647,l),
(498,687,o),
(412,709,o),
(329,709,cs),
(141,709,o),
(54,615,o),
(54,504,cs),
(54,245,o),
(474,350,o),
(474,187,cs),
(474,131,o),
(425,88,o),
(310,88,cs),
(222,88,o),
(133,121,o),
(79,167,c),
(38,77,l),
(95,26,o),
(202,-9,o),
(310,-9,cs)
);
}
);
};
layerId = "5922F47A-F449-4984-8091-CB5BAF0F3D6E";
shapes = (
{
closed = 1;
nodes = (
(355,-120,l),
(355,820,l),
(282,820,l),
(282,-120,l)
);
},
{
closed = 1;
nodes = (
(498,-9,o),
(587,85,o),
(587,195,cs),
(587,452,o),
(167,350,o),
(167,509,cs),
(167,566,o),
(215,612,o),
(328,612,cs),
(390,612,o),
(459,594,o),
(521,556,c),
(558,647,l),
(498,687,o),
(412,709,o),
(329,709,cs),
(141,709,o),
(54,615,o),
(54,504,cs),
(54,244,o),
(474,347,o),
(474,187,cs),
(474,131,o),
(425,88,o),
(310,88,cs),
(222,88,o),
(133,121,o),
(79,167,c),
(38,77,l),
(95,26,o),
(202,-9,o),
(310,-9,cs)
);
}
);
width = 625;
},
{
layerId = "09D0C439-80D3-4C25-AAD4-493BFD6E371F";
shapes = (
{
closed = 1;
nodes = (
(311,-120,l),
(311,820,l),
(292,820,l),
(292,-120,l)
);
},
{
closed = 1;
nodes = (
(470,-3,o),
(543,79,o),
(543,172,cs),
(543,425,o),
(98,290,o),
(98,526,cs),
(98,613,o),
(166,684,o),
(313,684,cs),
(376,684,o),
(448,664,o),
(504,623,c),
(515,639,l),
(464,678,o),
(387,703,o),
(312,703,cs),
(148,703,o),
(78,619,o),
(78,527,cs),
(78,269,o),
(523,407,o),
(523,172,cs),
(523,86,o),
(455,16,o),
(303,16,cs),
(205,16,o),
(116,57,o),
(72,109,c),
(58,96,l),
(105,38,o),
(202,-3,o),
(304,-3,cs)
);
}
);
width = 601;
}
);
leftKerningGroup = S;
rightKerningGroup = S;
unicode = 36;
}
{
color = 3;
glyphname = percent;
layers = (
{
layerId = "50D943A8-B490-4162-9D4B-803713767B01";
shapes = (
{
closed = 1;
nodes = (
(304,0,l),
(782,700,l),
(613,700,l),
(135,0,l)
);
},
{
closed = 1;
nodes = (
(308,320,o),
(388,390,o),
(388,515,cs),
(388,639,o),
(308,710,o),
(202,710,cs),
(96,710,o),
(16,639,o),
(16,515,cs),
(16,390,o),
(96,320,o),
(202,320,cs)
);
},
{
closed = 1;
nodes = (
(180,428,o),
(158,448,o),
(158,515,cs),
(158,582,o),
(180,602,o),
(202,602,cs),
(224,602,o),
(246,582,o),
(246,515,cs),
(246,448,o),
(224,428,o),
(202,428,cs)
);
},
{
closed = 1;
nodes = (
(821,-10,o),
(901,60,o),
(901,185,cs),
(901,309,o),
(821,380,o),
(715,380,cs),
(609,380,o),
(529,309,o),
(529,185,cs),
(529,60,o),
(609,-10,o),
(715,-10,cs)
);
},
{
closed = 1;
nodes = (
(693,98,o),
(671,118,o),
(671,185,cs),
(671,252,o),
(693,272,o),
(715,272,cs),
(737,272,o),
(759,252,o),
(759,185,cs),
(759,118,o),
(737,98,o),
(715,98,cs)
);
}
);
width = 917;
},
{
background = {
shapes = (
{
closed = 1;
nodes = (
(230,0,l),
(708,700,l),
(621,700,l),
(143,0,l)
);
},
{
closed = 1;
nodes = (
(296,324,o),
(365,396,o),
(365,515,cs),
(365,634,o),
(296,706,o),
(200,706,cs),
(105,706,o),
(35,634,o),
(35,515,cs),
(35,396,o),
(105,324,o),
(200,324,cs)
);
},
{
closed = 1;
nodes = (
(148,386,o),
(108,428,o),
(108,515,cs),
(108,602,o),
(148,644,o),
(200,644,cs),
(253,644,o),
(292,602,o),
(292,515,cs),
(292,428,o),
(253,386,o),
(200,386,cs)
);
},
{
closed = 1;
nodes = (
(746,-6,o),
(816,66,o),
(816,185,cs),
(816,304,o),
(746,376,o),
(651,376,cs),
(556,376,o),
(486,304,o),
(486,185,cs),
(486,66,o),
(556,-6,o),
(651,-6,cs)
);
},
{
closed = 1;
nodes = (
(598,56,o),
(559,98,o),
(559,185,cs),
(559,272,o),
(598,314,o),
(651,314,cs),
(703,314,o),
(743,272,o),
(743,185,cs),
(743,98,o),
(703,56,o),
(651,56,cs)
);
}
);
};
layerId = "5922F47A-F449-4984-8091-CB5BAF0F3D6E";
shapes = (
{
closed = 1;
nodes = (
(230,0,l),
(708,700,l),
(621,700,l),
(143,0,l)
);
},
{
closed = 1;
nodes = (
(299,324,o),
(365,400,o),
(365,515,cs),
(365,630,o),
(299,706,o),
(200,706,cs),
(101,706,o),
(35,629,o),
(35,515,cs),
(35,401,o),
(101,324,o),
(200,324,cs)
);
},
{
closed = 1;
nodes = (
(143,388,o),
(108,436,o),
(108,515,cs),
(108,594,o),
(143,642,o),
(200,642,cs),
(258,642,o),
(292,595,o),
(292,515,cs),
(292,435,o),
(258,388,o),
(200,388,cs)
);
},
{
closed = 1;
nodes = (
(750,-6,o),
(816,71,o),
(816,185,cs),
(816,299,o),
(750,376,o),
(651,376,cs),
(552,376,o),
(486,299,o),
(486,185,cs),
(486,71,o),
(552,-6,o),
(651,-6,cs)
);
},
{
closed = 1;
nodes = (
(593,58,o),
(559,105,o),
(559,185,cs),
(559,265,o),
(593,312,o),
(651,312,cs),
(708,312,o),
(743,264,o),
(743,185,cs),
(743,106,o),
(708,58,o),
(651,58,cs)
);
}
);
width = 851;
},
{
layerId = "09D0C439-80D3-4C25-AAD4-493BFD6E371F";
shapes = (
{
closed = 1;
nodes = (
(172,0,l),
(650,700,l),
(628,700,l),
(150,0,l)
);
},
{
closed = 1;
nodes = (
(286,327,o),
(348,401,o),
(348,515,cs),
(348,629,o),
(286,703,o),
(199,703,cs),
(112,703,o),
(50,629,o),
(50,515,cs),
(50,401,o),
(112,327,o),
(199,327,cs)
);
},
{
closed = 1;
nodes = (
(123,346,o),
(70,410,o),
(70,515,cs),
(70,620,o),
(123,684,o),
(199,684,cs),
(275,684,o),
(328,620,o),
(328,515,cs),
(328,410,o),
(275,346,o),
(199,346,cs)
);
},
{
closed = 1;
nodes = (
(688,-3,o),
(750,71,o),
(750,185,cs),
(750,299,o),
(688,373,o),
(601,373,cs),
(514,373,o),
(452,299,o),
(452,185,cs),
(452,71,o),
(514,-3,o),
(601,-3,cs)
);
},
{
closed = 1;
nodes = (
(525,16,o),
(472,80,o),
(472,185,cs),
(472,290,o),
(525,354,o),
(601,354,cs),
(677,354,o),
(730,290,o),
(730,185,cs),
(730,80,o),
(677,16,o),
(601,16,cs)
);
}
);
width = 800;
}
);
leftKerningGroup = percent;
rightKerningGroup = percent;
unicode = 37;
}
{
color = 3;
glyphname = ampersand;
layers = (
{
layerId = "50D943A8-B490-4162-9D4B-803713767B01";
shapes = (
{
closed = 1;
nodes = (
(534,-16,o),
(701,131,o),
(747,338,c),
(566,392,l),
(539,241,o),
(442,152,o),
(335,152,cs),
(279,152,o),
(247,179,o),
(247,212,cs),
(247,255,o),
(278,285,o),
(359,316,cs),
(513,374,o),
(586,438,o),
(586,535,cs),
(586,643,o),
(493,712,o),
(354,712,cs),
(202,712,o),
(102,635,o),
(102,523,cs),
(102,464,o),
(134,407,o),
(202,351,cs),
(626,-13,l),
(747,124,l),
(379,437,ls),
(320,487,o),
(307,503,o),
(307,526,cs),
(307,549,o),
(324,566,o),
(355,566,cs),
(383,566,o),
(397,551,o),
(397,530,cs),
(397,502,o),
(366,474,o),
(266,436,cs),
(101,374,o),
(26,303,o),
(26,187,cs),
(26,70,o),
(150,-16,o),
(318,-16,cs)
);
}
);
width = 777;
},
{
background = {
shapes = (
{
closed = 1;
nodes = (
(475,-9,o),
(609,109,o),
(650,311,c),
(561,340,l),
(529,169,o),
(431,81,o),
(300,81,cs),
(210,81,o),
(151,125,o),
(151,189,cs),
(151,248,o),
(187,289,o),
(303,348,cs),
(448,419,o),
(504,474,o),
(504,557,cs),
(504,650,o),
(433,707,o),
(324,707,cs),
(205,707,o),
(128,642,o),
(128,546,cs),
(128,490,o),
(152,443,o),
(222,376,cs),
(618,-11,l),
(679,62,l),
(309,423,ls),
(245,486,o),
(229,512,o),
(229,548,cs),
(229,594,o),
(264,627,o),
(324,627,cs),
(380,627,o),
(411,598,o),
(411,555,cs),
(411,507,o),
(374,473,o),
(255,414,cs),
(102,340,o),
(43,273,o),
(43,177,cs),
(43,67,o),
(148,-9,o),
(293,-9,cs)
);
}
);
};
layerId = "5922F47A-F449-4984-8091-CB5BAF0F3D6E";
shapes = (
{
closed = 1;
nodes = (
(475,-9,o),
(609,109,o),
(650,311,c),
(561,340,l),
(529,169,o),
(431,83,o),
(300,83,cs),
(210,83,o),
(151,125,o),
(151,187,cs),
(151,246,o),
(187,287,o),
(303,346,cs),
(448,417,o),
(504,474,o),
(504,557,cs),
(504,650,o),
(433,707,o),
(324,707,cs),
(205,707,o),
(128,642,o),
(128,546,cs),
(128,490,o),
(152,443,o),
(222,376,cs),
(618,-11,l),
(679,62,l),
(309,423,ls),
(245,486,o),
(229,512,o),
(229,548,cs),
(229,594,o),
(264,627,o),
(324,627,cs),
(380,627,o),
(411,598,o),
(411,555,cs),
(411,509,o),
(374,475,o),
(255,414,cs),
(105,337,o),
(43,273,o),
(43,175,cs),
(43,67,o),
(148,-9,o),
(293,-9,cs)
);
}
);
width = 696;
},
{
layerId = "09D0C439-80D3-4C25-AAD4-493BFD6E371F";
shapes = (
{
closed = 1;
nodes = (
(430,-3,o),
(537,88,o),
(575,286,c),
(558,290,l),
(522,102,o),
(422,14,o),
(273,14,cs),
(157,14,o),
(76,75,o),
(76,168,cs),
(76,241,o),
(117,293,o),
(260,379,cs),
(398,462,o),
(441,508,o),
(441,578,cs),
(441,656,o),
(386,703,o),
(300,703,cs),
(207,703,o),
(149,649,o),
(149,568,cs),
(149,515,o),
(166,477,o),
(237,400,cs),
(612,-10,l),
(627,3,l),
(255,409,ls),
(186,485,o),
(169,520,o),
(169,568,cs),
(169,637,o),
(217,684,o),
(300,684,cs),
(378,684,o),
(422,642,o),
(422,578,cs),
(422,512,o),
(380,472,o),
(247,393,cs),
(103,307,o),
(56,245,o),
(56,168,cs),
(56,65,o),
(146,-3,o),
(273,-3,cs)
);
}
);
width = 634;
}
);
leftKerningGroup = ampersand;
rightKerningGroup = ampersand;
unicode = 38;
}
{
glyphname = quotesingle;
layers = (
{
layerId = "1D080760-4FD1-465A-AE80-6E2F24185885";
shapes = (
{
closed = 1;
nodes = (
(207,400,l),
(222,700,l),
(32,700,l),
(47,400,l)
);
}
);
width = 254;
},
{
background = {
shapes = (
{
closed = 1;
nodes = (
(147,426,l),
(155,700,l),
(60,700,l),
(67,426,l)
);
}
);
};
layerId = "BF88A9B2-CED4-4B03-8FC2-F1361A8F7788";
shapes = (
{
closed = 1;
nodes = (
(147,426,l),
(155,700,l),
(60,700,l),
(67,426,l)
);
}
);
width = 215;
},
{
layerId = "BE9EF097-1901-49F4-A2DE-F2A985D0844B";
shapes = (
{
closed = 1;
nodes = (
(101,450,l),
(103,700,l),
(81,700,l),
(83,450,l)
);
}
);
width = 184;
}
);
leftKerningGroup = quotesingle;
rightKerningGroup = quotesingle;
unicode = 39;
}
{
glyphname = parenleft;
layers = (
{
layerId = "50D943A8-B490-4162-9D4B-803713767B01";
shapes = (
{
closed = 1;
nodes = (
(396,-194,l),
(306,-34,o),
(268,113,o),
(268,274,cs),
(268,435,o),
(306,582,o),
(396,742,c),
(180,742,l),
(94,622,o),
(47,457,o),
(47,274,cs),
(47,91,o),
(94,-74,o),
(180,-194,c)
);
}
);
width = 381;
},
{
background = {
shapes = (
{
closed = 1;
nodes = (
(315,-194,l),
(233,-50,o),
(198,101,o),
(198,274,cs),
(198,447,o),
(233,598,o),
(315,742,c),
(210,742,l),
(133,623,o),
(90,458,o),
(90,274,cs),
(90,90,o),
(133,-73,o),
(210,-194,c)
);
}
);
};
layerId = "5922F47A-F449-4984-8091-CB5BAF0F3D6E";
shapes = (
{
closed = 1;
nodes = (
(315,-194,l),
(233,-50,o),
(198,101,o),
(198,274,cs),
(198,447,o),
(233,598,o),
(315,742,c),
(210,742,l),
(133,623,o),
(90,458,o),
(90,274,cs),
(90,90,o),
(133,-73,o),
(210,-194,c)
);
}
);
width = 342;
},
{
layerId = "09D0C439-80D3-4C25-AAD4-493BFD6E371F";
shapes = (
{
closed = 1;
nodes = (
(253,-194,l),
(177,-66,o),
(143,89,o),
(143,274,cs),
(143,459,o),
(177,614,o),
(253,742,c),
(234,742,l),
(163,624,o),
(123,459,o),
(123,274,cs),
(123,89,o),
(163,-73,o),
(234,-194,c)
);
}
);
width = 311;
}
);
leftKerningGroup = parenleft;
rightKerningGroup = parenleft;
unicode = 40;
}
{
glyphname = parenright;
layers = (
{
layerId = "50D943A8-B490-4162-9D4B-803713767B01";
shapes = (
{
closed = 1;
nodes = (
(201,-194,l),
(287,-74,o),
(334,91,o),
(334,274,cs),
(334,457,o),
(287,622,o),
(201,742,c),
(-15,742,l),
(75,582,o),
(113,435,o),
(113,274,cs),
(113,113,o),
(75,-34,o),
(-15,-194,c)
);
}
);
width = 381;
},
{
background = {
shapes = (
{
closed = 1;
nodes = (
(210,-73,o),
(253,90,o),
(253,274,cs),
(253,458,o),
(210,623,o),
(132,742,c),
(27,742,l),
(109,598,o),
(145,447,o),
(145,274,cs),
(145,101,o),
(109,-50,o),
(27,-194,c),
(132,-194,l)
);
}
);
};
layerId = "5922F47A-F449-4984-8091-CB5BAF0F3D6E";
shapes = (
{
closed = 1;
nodes = (
(132,-194,l),
(210,-73,o),
(253,90,o),
(253,274,cs),
(253,458,o),
(210,623,o),
(132,742,c),
(27,742,l),
(109,598,o),
(145,447,o),
(145,274,cs),
(145,101,o),
(109,-50,o),
(27,-194,c)
);
}
);
width = 343;
},
{
layerId = "09D0C439-80D3-4C25-AAD4-493BFD6E371F";
shapes = (
{
closed = 1;
nodes = (
(77,-194,l),
(148,-73,o),
(188,89,o),
(188,274,cs),
(188,459,o),
(148,624,o),
(77,742,c),
(58,742,l),
(134,614,o),
(168,459,o),
(168,274,cs),
(168,89,o),
(134,-66,o),
(58,-194,c)
);
}
);
width = 311;
}
);
leftKerningGroup = parenright;
rightKerningGroup = parenright;
unicode = 41;
}
{
glyphname = asterisk;
layers = (
{
layerId = "1D080760-4FD1-465A-AE80-6E2F24185885";
shapes = (
{
closed = 1;
nodes = (
(398,695,l),
(283,624,l),
(300,614,l),
(303,742,l),
(169,742,l),
(172,614,l),
(189,624,l),
(74,695,l),
(6,583,l),
(134,515,l),
(134,549,l),
(6,481,l),
(74,369,l),
(189,440,l),
(172,450,l),
(169,322,l),
(303,322,l),
(300,450,l),
(283,440,l),
(398,369,l),
(467,481,l),
(339,549,l),
(339,515,l),
(467,583,l)
);
}
);
width = 473;
},
{
background = {
shapes = (
{
closed = 1;
nodes = (
(355,680,l),
(225,603,l),
(237,596,l),
(238,742,l),
(170,742,l),
(171,596,l),
(183,603,l),
(53,680,l),
(18,617,l),
(154,542,l),
(154,563,l),
(18,488,l),
(53,426,l),
(183,502,l),
(171,509,l),
(170,363,l),
(238,363,l),
(237,509,l),
(225,502,l),
(355,426,l),
(390,488,l),
(255,563,l),
(255,542,l),
(390,617,l)
);
}
);
};
layerId = "BF88A9B2-CED4-4B03-8FC2-F1361A8F7788";
shapes = (
{
closed = 1;
nodes = (
(355,680,l),
(225,603,l),
(237,596,l),
(238,742,l),
(170,742,l),
(171,596,l),
(183,603,l),
(53,680,l),
(18,617,l),
(154,542,l),
(154,563,l),
(18,488,l),
(53,426,l),
(183,502,l),
(171,509,l),
(170,363,l),
(238,363,l),
(237,509,l),
(225,502,l),
(355,426,l),
(390,488,l),
(255,563,l),
(255,542,l),
(390,617,l)
);
}
);
width = 408;
},
{
layerId = "BE9EF097-1901-49F4-A2DE-F2A985D0844B";
shapes = (
{
closed = 1;
nodes = (
(322,665,l),
(180,583,l),
(188,579,l),
(188,742,l),
(170,742,l),
(170,579,l),
(178,583,l),
(36,665,l),
(27,649,l),
(170,567,l),
(170,577,l),
(27,495,l),
(36,479,l),
(179,561,l),
(170,565,l),
(170,402,l),
(188,402,l),
(188,565,l),
(180,561,l),
(322,479,l),
(331,495,l),
(189,577,l),
(189,567,l),
(331,649,l)
);
}
);
width = 358;
}
);
leftKerningGroup = asterisk;
rightKerningGroup = asterisk;
unicode = 42;
}
{
color = 3;
glyphname = comma;
layers = (
{
layerId = "50D943A8-B490-4162-9D4B-803713767B01";
shapes = (
{
closed = 1;
nodes = (
(175,-160,l),
(245,-11,ls),
(280,64,o),
(284,88,o),
(284,120,cs),
(284,198,o),
(228,248,o),
(152,248,cs),
(76,248,o),
(20,198,o),
(20,120,cs),
(20,42,o),
(74,-5,o),
(152,-5,c),
(119,121,l),
(35,-160,l)
);
}
);
width = 304;
},
{
background = {
shapes = (
{
closed = 1;
nodes = (
(123,-150,l),
(172,-8,l),
(188,34,o),
(191,49,o),
(191,70,cs),
(191,114,o),
(161,146,o),
(119,146,cs),
(77,146,o),
(46,115,o),
(46,70,cs),
(46,25,o),
(77,-4,o),
(120,-4,c),
(105,63,l),
(51,-150,l)
);
}
);
};
layerId = "5922F47A-F449-4984-8091-CB5BAF0F3D6E";
shapes = (
{
closed = 1;
nodes = (
(123,-150,l),
(172,-10,ls),
(187,32,o),
(192,49,o),
(192,70,cs),
(192,114,o),
(161,146,o),
(119,146,cs),
(77,146,o),
(45,115,o),
(45,70,cs),
(45,25,o),
(77,-4,o),
(120,-4,c),
(105,63,l),
(51,-150,l)
);
}
);
width = 235;
},
{
layerId = "09D0C439-80D3-4C25-AAD4-493BFD6E371F";
shapes = (
{
closed = 1;
nodes = (
(80,-140,l),
(113,-6,l),
(115,5,o),
(117,12,o),
(117,23,cs),
(117,35,o),
(107,49,o),
(91,49,cs),
(76,49,o),
(65,37,o),
(65,23,cs),
(65,9,o),
(77,-3,o),
(93,-3,c),
(93,8,l),
(62,-140,l)
);
}
);
width = 182;
}
);
leftKerningGroup = period;
rightKerningGroup = period;
unicode = 44;
}
{
color = 3;
glyphname = hyphen;
layers = (
{
layerId = "50D943A8-B490-4162-9D4B-803713767B01";
shapes = (
{
closed = 1;
nodes = (
(345,204,l),
(345,374,l),
(45,374,l),
(45,204,l)
);
}
);
width = 390;
},
{
background = {
shapes = (
{
closed = 1;
nodes = (
(328,230,l),
(328,323,l),
(56,323,l),
(56,230,l)
);
}
);
};
layerId = "5922F47A-F449-4984-8091-CB5BAF0F3D6E";
shapes = (
{
closed = 1;
nodes = (
(328,229,l),
(328,324,l),
(56,324,l),
(56,229,l)
);
}
);
width = 384;
},
{
layerId = "09D0C439-80D3-4C25-AAD4-493BFD6E371F";
shapes = (
{
closed = 1;
nodes = (
(315,255,l),
(315,274,l),
(65,274,l),
(65,255,l)
);
}
);
width = 380;
}
);
leftKerningGroup = hyphen;
rightKerningGroup = hyphen;
unicode = 45;
}
{
color = 3;
glyphname = period;
layers = (
{
layerId = "1D080760-4FD1-465A-AE80-6E2F24185885";
shapes = (
{
closed = 1;
nodes = (
(227,-10,o),
(284,44,o),
(284,120,cs),
(284,197,o),
(227,248,o),
(152,248,cs),
(77,248,o),
(20,197,o),
(20,120,cs),
(20,44,o),
(77,-10,o),
(152,-10,cs)
);
}
);
width = 304;
},
{
background = {
shapes = (
{
closed = 1;
nodes = (
(158,-6,o),
(190,26,o),
(190,70,cs),
(190,115,o),
(158,146,o),
(118,146,cs),
(77,146,o),
(45,115,o),
(45,70,cs),
(45,26,o),
(77,-6,o),
(118,-6,cs)
);
}
);
};
layerId = "BF88A9B2-CED4-4B03-8FC2-F1361A8F7788";
shapes = (
{
closed = 1;
nodes = (
(158,-6,o),
(192,26,o),
(192,70,cs),
(192,115,o),
(158,146,o),
(118,146,cs),
(77,146,o),
(43,115,o),
(43,70,cs),
(43,26,o),
(77,-6,o),
(118,-6,cs)
);
}
);
width = 235;
},
{
layerId = "BE9EF097-1901-49F4-A2DE-F2A985D0844B";
shapes = (
{
closed = 1;
nodes = (
(105,-3,o),
(117,9,o),
(117,23,cs),
(117,37,o),
(105,49,o),
(91,49,cs),
(77,49,o),
(65,37,o),
(65,23,cs),
(65,9,o),
(77,-3,o),
(91,-3,cs)
);
}
);
width = 182;
}
);
leftKerningGroup = period;
rightKerningGroup = period;
unicode = 46;
}
{
glyphname = slash;
layers = (
{
layerId = "50D943A8-B490-4162-9D4B-803713767B01";
shapes = (
{
closed = 1;
nodes = (
(160,-100,l),
(490,842,l),
(290,842,l),
(-40,-100,l)
);
}
);
width = 440;
},
{
background = {
shapes = (
{
closed = 1;
nodes = (
(70,-100,l),
(400,842,l),
(301,842,l),
(-29,-100,l)
);
}
);
};
layerId = "5922F47A-F449-4984-8091-CB5BAF0F3D6E";
shapes = (
{
closed = 1;
nodes = (
(70,-100,l),
(400,842,l),
(301,842,l),
(-29,-100,l)
);
}
);
width = 361;
},
{
layerId = "09D0C439-80D3-4C25-AAD4-493BFD6E371F";
shapes = (
{
closed = 1;
nodes = (
(0,-100,l),
(330,842,l),
(310,842,l),
(-20,-100,l)
);
}
);
width = 300;
}
);
leftKerningGroup = slash;
rightKerningGroup = slash;
unicode = 47;
}
{
color = 3;
glyphname = zero;
layers = (
{
layerId = "1D080760-4FD1-465A-AE80-6E2F24185885";
shapes = (
{
closed = 1;
nodes = (
(531,-16,o),
(663,118,o),
(663,350,cs),
(663,582,o),
(531,716,o),
(346,716,cs),
(161,716,o),
(29,582,o),
(29,350,cs),
(29,118,o),
(161,-16,o),
(346,-16,cs)
);
},
{
closed = 1;
nodes = (
(300,173,o),
(266,215,o),
(266,350,cs),
(266,485,o),
(300,527,o),
(346,527,cs),
(392,527,o),
(426,485,o),
(426,350,cs),
(426,215,o),
(392,173,o),
(346,173,cs)
);
}
);
width = 692;
},
{
background = {
shapes = (
{
closed = 1;
nodes = (
(505,-9,o),
(624,127,o),
(624,350,cs),
(624,573,o),
(505,709,o),
(335,709,cs),
(164,709,o),
(46,573,o),
(46,350,cs),
(46,127,o),
(164,-9,o),
(335,-9,cs)
);
},
{
closed = 1;
nodes = (
(232,92,o),
(161,179,o),
(161,350,cs),
(161,521,o),
(232,608,o),
(335,608,cs),
(438,608,o),
(509,521,o),
(509,350,cs),
(509,179,o),
(438,92,o),
(335,92,cs)
);
}
);
};
layerId = "BF88A9B2-CED4-4B03-8FC2-F1361A8F7788";
shapes = (
{
closed = 1;
nodes = (
(499,-9,o),
(624,120,o),
(624,350,cs),
(624,580,o),
(499,709,o),
(335,709,cs),
(171,709,o),
(46,580,o),
(46,350,cs),
(46,120,o),
(171,-9,o),
(335,-9,cs)
);
},
{
closed = 1;
nodes = (
(232,93,o),
(161,176,o),
(161,350,cs),
(161,524,o),
(232,607,o),
(335,607,cs),
(438,607,o),
(509,524,o),
(509,350,cs),
(509,176,o),
(438,93,o),
(335,93,cs)
);
}
);
width = 670;
},
{
layerId = "BE9EF097-1901-49F4-A2DE-F2A985D0844B";
shapes = (
{
closed = 1;
nodes = (
(485,-3,o),
(593,136,o),
(593,350,cs),
(593,564,o),
(485,703,o),
(326,703,cs),
(167,703,o),
(59,564,o),
(59,350,cs),
(59,136,o),
(167,-3,o),
(326,-3,cs)
);
},
{
closed = 1;
nodes = (
(179,16,o),
(79,145,o),
(79,350,cs),
(79,555,o),
(179,684,o),
(326,684,cs),
(473,684,o),
(573,555,o),
(573,350,cs),
(573,145,o),
(473,16,o),
(326,16,cs)
);
}
);
width = 652;
}
);
leftKerningGroup = zero;
rightKerningGroup = zero;
unicode = 48;
}
{
color = 3;
glyphname = one;
layers = (
{
layerId = "1D080760-4FD1-465A-AE80-6E2F24185885";
shapes = (
{
closed = 1;
nodes = (
(361,0,l),
(361,700,l),
(5,700,l),
(5,522,l),
(226,522,l),
(125,618,l),
(125,0,l)
);
}
);
width = 418;
},
{
background = {
shapes = (
{
closed = 1;
nodes = (
(275,0,l),
(275,700,l),
(8,700,l),
(8,604,l),
(211,604,l),
(162,655,l),
(162,0,l)
);
}
);
};
layerId = "BF88A9B2-CED4-4B03-8FC2-F1361A8F7788";
shapes = (
{
closed = 1;
nodes = (
(275,0,l),
(275,700,l),
(8,700,l),
(8,601,l),
(211,601,l),
(161,655,l),
(161,0,l)
);
}
);
width = 375;
},
{
layerId = "BE9EF097-1901-49F4-A2DE-F2A985D0844B";
shapes = (
{
closed = 1;
nodes = (
(209,0,l),
(209,700,l),
(10,700,l),
(10,681,l),
(199,681,l),
(190,689,l),
(190,0,l)
);
}
);
width = 342;
}
);
leftKerningGroup = one;
rightKerningGroup = one;
unicode = 49;
}
{
color = 3;
glyphname = three;
layers = (
{
layerId = "50D943A8-B490-4162-9D4B-803713767B01";
shapes = (
{
closed = 1;
nodes = (
(494,-16,o),
(590,104,o),
(590,224,cs),
(590,348,o),
(496,435,o),
(320,435,cs),
(258,435,l),
(371,371,l),
(552,555,l),
(552,700,l),
(30,700,l),
(30,522,l),
(379,522,l),
(358,601,l),
(177,417,l),
(177,272,l),
(270,272,ls),
(330,272,o),
(353,254,o),
(353,224,cs),
(353,188,o),
(315,170,o),
(262,170,cs),
(203,170,o),
(134,186,o),
(74,221,c),
(-6,47,l),
(69,5,o),
(174,-16,o),
(270,-16,cs)
);
}
);
width = 614;
},
{
background = {
shapes = (
{
closed = 1;
nodes = (
(446,-9,o),
(534,90,o),
(534,208,cs),
(534,327,o),
(448,410,o),
(278,410,cs),
(242,410,l),
(293,376,l),
(502,622,l),
(502,700,l),
(36,700,l),
(36,604,l),
(416,604,l),
(405,646,l),
(196,400,l),
(196,321,l),
(256,321,ls),
(369,321,o),
(419,277,o),
(419,208,cs),
(419,135,o),
(362,91,o),
(260,91,cs),
(177,91,o),
(99,120,o),
(50,163,c),
(8,72,l),
(64,22,o),
(163,-9,o),
(264,-9,cs)
);
}
);
};
layerId = "5922F47A-F449-4984-8091-CB5BAF0F3D6E";
shapes = (
{
closed = 1;
nodes = (
(446,-9,o),
(534,90,o),
(534,208,cs),
(534,327,o),
(448,412,o),
(278,412,cs),
(242,412,l),
(303,376,l),
(506,622,l),
(506,700,l),
(36,700,l),
(36,601,l),
(416,601,l),
(399,646,l),
(196,400,l),
(196,319,l),
(256,319,ls),
(369,319,o),
(419,275,o),
(419,207,cs),
(419,137,o),
(361,93,o),
(262,93,cs),
(180,93,o),
(103,122,o),
(54,165,c),
(2,74,l),
(65,22,o),
(164,-9,o),
(263,-9,cs)
);
}
);
width = 577;
},
{
layerId = "09D0C439-80D3-4C25-AAD4-493BFD6E371F";
shapes = (
{
closed = 1;
nodes = (
(409,-3,o),
(490,76,o),
(490,192,cs),
(490,308,o),
(410,387,o),
(245,387,cs),
(230,387,l),
(232,380,l),
(464,685,l),
(464,700,l),
(41,700,l),
(41,681,l),
(444,681,l),
(442,688,l),
(210,383,l),
(210,368,l),
(246,368,ls),
(399,368,o),
(470,299,o),
(470,192,cs),
(470,85,o),
(398,16,o),
(259,16,cs),
(156,16,o),
(71,57,o),
(32,109,c),
(19,96,l),
(61,38,o),
(154,-3,o),
(259,-3,cs)
);
}
);
width = 548;
}
);
leftKerningGroup = three;
rightKerningGroup = three;
unicode = 51;
}
{
color = 3;
glyphname = four;
layers = (
{
guides = (
{
angle = 90;
position = "{375, 0}";
}
);
layerId = "1D080760-4FD1-465A-AE80-6E2F24185885";
shapes = (
{
closed = 1;
nodes = (
(708,120,l),
(708,303,l),
(166,303,l),
(276,270,l),
(562,700,l),
(320,700,l),
(23,270,l),
(23,120,l)
);
},
{
closed = 1;
nodes = (
(615,0,l),
(615,410,l),
(393,410,l),
(393,303,l),
(386,120,l),
(386,0,l)
);
}
);
width = 712;
},
{
background = {
shapes = (
{
closed = 1;
nodes = (
(662,165,l),
(662,264,l),
(105,264,l),
(160,246,l),
(507,700,l),
(388,700,l),
(36,246,l),
(36,165,l)
);
},
{
closed = 1;
nodes = (
(534,0,l),
(534,410,l),
(426,410,l),
(426,264,l),
(423,165,l),
(423,0,l)
);
}
);
};
layerId = "BF88A9B2-CED4-4B03-8FC2-F1361A8F7788";
shapes = (
{
closed = 1;
nodes = (
(662,165,l),
(662,264,l),
(105,264,l),
(164,246,l),
(511,700,l),
(388,700,l),
(36,246,l),
(36,165,l)
);
},
{
closed = 1;
nodes = (
(534,0,l),
(534,410,l),
(426,410,l),
(426,264,l),
(423,165,l),
(423,0,l)
);
}
);
width = 674;
},
{
guides = (
{
angle = 90;
position = "{437, 0}";
}
);
layerId = "BE9EF097-1901-49F4-A2DE-F2A985D0844B";
shapes = (
{
closed = 1;
nodes = (
(627,208,l),
(627,227,l),
(57,227,l),
(70,223,l),
(464,700,l),
(440,700,l),
(46,223,l),
(46,208,l)
);
},
{
closed = 1;
nodes = (
(471,0,l),
(471,410,l),
(451,410,l),
(451,227,l),
(451,208,l),
(451,0,l)
);
}
);
width = 644;
}
);
leftKerningGroup = four;
rightKerningGroup = four;
unicode = 52;
}
{
color = 3;
glyphname = six;
layers = (
{
layerId = "50D943A8-B490-4162-9D4B-803713767B01";
shapes = (
{
closed = 1;
nodes = (
(523,-16,o),
(649,79,o),
(649,229,cs),
(649,366,o),
(537,453,o),
(409,453,cs),
(311,453,o),
(251,415,o),
(212,347,c),
(266,308,l),
(266,328,o),
(266,347,o),
(266,367,cs),
(266,475,o),
(327,533,o),
(422,533,cs),
(466,533,o),
(508,525,o),
(549,496,c),
(634,661,l),
(581,696,o),
(500,716,o),
(417,716,cs),
(186,716,o),
(29,573,o),
(29,328,cs),
(29,99,o),
(165,-16,o),
(365,-16,cs)
);
},
{
closed = 1;
nodes = (
(307,147,o),
(277,174,o),
(277,218,cs),
(277,262,o),
(307,290,o),
(349,290,cs),
(391,290,o),
(421,262,o),
(421,218,cs),
(421,174,o),
(391,147,o),
(349,147,cs)
);
}
);
width = 661;
},
{
background = {
shapes = (
{
closed = 1;
nodes = (
(489,-9,o),
(596,78,o),
(596,215,cs),
(596,345,o),
(496,429,o),
(362,429,cs),
(246,429,o),
(163,370,o),
(143,269,c),
(171,258,l),
(162,294,o),
(161,332,o),
(161,359,cs),
(161,525,o),
(249,611,o),
(385,611,cs),
(435,611,o),
(482,602,o),
(519,577,c),
(562,666,l),
(516,695,o),
(451,709,o),
(383,709,cs),
(182,709,o),
(46,579,o),
(46,339,cs),
(46,116,o),
(157,-9,o),
(346,-9,cs)
);
},
{
closed = 1;
nodes = (
(238,80,o),
(183,142,o),
(183,209,cs),
(183,284,o),
(245,340,o),
(335,340,cs),
(427,340,o),
(485,289,o),
(485,210,cs),
(485,131,o),
(425,80,o),
(339,80,cs)
);
}
);
};
layerId = "5922F47A-F449-4984-8091-CB5BAF0F3D6E";
shapes = (
{
closed = 1;
nodes = (
(485,-9,o),
(596,78,o),
(596,215,cs),
(596,345,o),
(494,429,o),
(355,429,cs),
(252,429,o),
(166,386,o),
(133,302,c),
(171,258,l),
(162,294,o),
(161,332,o),
(161,359,cs),
(161,526,o),
(248,611,o),
(385,611,cs),
(435,611,o),
(482,602,o),
(519,577,c),
(562,666,l),
(516,695,o),
(451,709,o),
(383,709,cs),
(184,709,o),
(46,579,o),
(46,339,cs),
(46,115,o),
(155,-9,o),
(344,-9,cs)
);
},
{
closed = 1;
nodes = (
(238,84,o),
(183,140,o),
(183,209,cs),
(183,282,o),
(245,336,o),
(335,336,cs),
(427,336,o),
(485,287,o),
(485,210,cs),
(485,133,o),
(425,84,o),
(339,84,cs)
);
}
);
width = 622;
},
{
layerId = "09D0C439-80D3-4C25-AAD4-493BFD6E371F";
shapes = (
{
closed = 1;
nodes = (
(462,-3,o),
(555,78,o),
(555,202,cs),
(555,326,o),
(465,406,o),
(325,406,cs),
(196,406,o),
(94,327,o),
(90,195,c),
(98,210,l),
(82,261,o),
(79,318,o),
(79,352,cs),
(79,573,o),
(189,684,o),
(357,684,cs),
(411,684,o),
(461,675,o),
(496,653,c),
(506,670,l),
(465,695,o),
(413,703,o),
(357,703,cs),
(179,703,o),
(59,585,o),
(59,350,cs),
(59,133,o),
(150,-3,o),
(332,-3,cs)
);
},
{
closed = 1;
nodes = (
(185,16,o),
(110,112,o),
(110,200,cs),
(110,304,o),
(197,387,o),
(325,387,cs),
(455,387,o),
(535,314,o),
(535,202,cs),
(535,90,o),
(452,16,o),
(332,16,cs)
);
}
);
width = 592;
}
);
leftKerningGroup = zero;
rightKerningGroup = six;
unicode = 54;
}
{
color = 3;
glyphname = seven;
layers = (
{
layerId = "1D080760-4FD1-465A-AE80-6E2F24185885";
shapes = (
{
closed = 1;
nodes = (
(387,0,l),
(620,555,l),
(620,700,l),
(21,700,l),
(21,415,l),
(216,415,l),
(216,624,l),
(124,517,l),
(456,517,l),
(393,616,l),
(129,0,l)
);
}
);
width = 645;
},
{
background = {
shapes = (
{
closed = 1;
nodes = (
(287,0,l),
(565,622,l),
(565,700,l),
(29,700,l),
(29,479,l),
(126,479,l),
(126,657,l),
(81,601,l),
(488,601,l),
(454,653,l),
(161,0,l)
);
}
);
};
layerId = "BF88A9B2-CED4-4B03-8FC2-F1361A8F7788";
shapes = (
{
closed = 1;
nodes = (
(287,0,l),
(565,622,l),
(565,700,l),
(29,700,l),
(29,479,l),
(139,479,l),
(139,657,l),
(81,601,l),
(488,601,l),
(459,653,l),
(166,0,l)
);
}
);
width = 603;
},
{
layerId = "BE9EF097-1901-49F4-A2DE-F2A985D0844B";
shapes = (
{
closed = 1;
nodes = (
(209,0,l),
(522,685,l),
(522,700,l),
(36,700,l),
(36,540,l),
(56,540,l),
(56,689,l),
(47,681,l),
(513,681,l),
(501,688,l),
(186,0,l)
);
}
);
width = 570;
}
);
leftKerningGroup = seven;
rightKerningGroup = seven;
unicode = 55;
}
{
color = 3;
glyphname = eight;
layers = (
{
layerId = "1D080760-4FD1-465A-AE80-6E2F24185885";
shapes = (
{
closed = 1;
nodes = (
(524,-16,o),
(653,72,o),
(653,208,cs),
(653,344,o),
(519,422,o),
(339,422,cs),
(159,422,o),
(25,344,o),
(25,208,cs),
(25,72,o),
(154,-16,o),
(339,-16,cs)
);
},
{
closed = 1;
nodes = (
(294,143,o),
(262,171,o),
(262,216,cs),
(262,261,o),
(294,289,o),
(339,289,cs),
(384,289,o),
(416,261,o),
(416,216,cs),
(416,171,o),
(384,143,o),
(339,143,cs)
);
},
{
closed = 1;
nodes = (
(504,308,o),
(628,380,o),
(628,507,cs),
(628,634,o),
(509,716,o),
(339,716,cs),
(169,716,o),
(50,634,o),
(50,507,cs),
(50,380,o),
(174,308,o),
(339,308,cs)
);
},
{
closed = 1;
nodes = (
(307,437,o),
(283,459,o),
(283,497,cs),
(283,535,o),
(307,557,o),
(339,557,cs),
(371,557,o),
(395,535,o),
(395,497,cs),
(395,459,o),
(371,437,o),
(339,437,cs)
);
}
);
width = 678;
},
{
background = {
shapes = (
{
closed = 1;
nodes = (
(495,-9,o),
(606,71,o),
(606,198,cs),
(606,322,o),
(493,396,o),
(323,396,cs),
(154,396,o),
(42,322,o),
(42,198,cs),
(42,71,o),
(151,-9,o),
(323,-9,cs)
);
},
{
closed = 1;
nodes = (
(219,78,o),
(157,125,o),
(157,201,cs),
(157,276,o),
(219,323,o),
(323,323,cs),
(427,323,o),
(491,276,o),
(491,201,cs),
(491,125,o),
(427,78,o),
(323,78,cs)
);
},
{
closed = 1;
nodes = (
(479,334,o),
(581,403,o),
(581,518,cs),
(581,635,o),
(477,709,o),
(323,709,cs),
(170,709,o),
(67,635,o),
(67,518,cs),
(67,403,o),
(168,334,o),
(323,334,cs)
);
},
{
closed = 1;
nodes = (
(234,405,o),
(180,447,o),
(180,513,cs),
(180,581,o),
(236,622,o),
(323,622,cs),
(410,622,o),
(468,581,o),
(468,513,cs),
(468,447,o),
(413,405,o),
(323,405,cs)
);
}
);
};
layerId = "BF88A9B2-CED4-4B03-8FC2-F1361A8F7788";
shapes = (
{
closed = 1;
nodes = (
(495,-9,o),
(606,71,o),
(606,200,cs),
(606,324,o),
(501,396,o),
(323,396,cs),
(145,396,o),
(42,325,o),
(42,200,cs),
(42,71,o),
(151,-9,o),
(323,-9,cs)
);
},
{
closed = 1;
nodes = (
(219,84,o),
(157,129,o),
(157,203,cs),
(157,276,o),
(219,321,o),
(323,321,cs),
(427,321,o),
(491,276,o),
(491,203,cs),
(491,129,o),
(427,84,o),
(323,84,cs)
);
},
{
closed = 1;
nodes = (
(485,334,o),
(581,401,o),
(581,516,cs),
(581,635,o),
(477,709,o),
(323,709,cs),
(170,709,o),
(67,635,o),
(67,516,cs),
(67,401,o),
(161,334,o),
(323,334,cs)
);
},
{
closed = 1;
nodes = (
(234,407,o),
(180,447,o),
(180,511,cs),
(180,577,o),
(236,616,o),
(323,616,cs),
(410,616,o),
(468,577,o),
(468,511,cs),
(468,447,o),
(413,407,o),
(323,407,cs)
);
}
);
width = 648;
},
{
guides = (
{
position = "{0, 356}";
},
{
position = "{0, 375}";
}
);
layerId = "BE9EF097-1901-49F4-A2DE-F2A985D0844B";
shapes = (
{
closed = 1;
nodes = (
(473,-3,o),
(569,70,o),
(569,188,cs),
(569,302,o),
(472,372,o),
(311,372,cs),
(150,372,o),
(55,302,o),
(55,188,cs),
(55,70,o),
(149,-3,o),
(311,-3,cs)
);
},
{
closed = 1;
nodes = (
(161,16,o),
(75,82,o),
(75,187,cs),
(75,290,o),
(161,356,o),
(311,356,cs),
(461,356,o),
(549,290,o),
(549,187,cs),
(549,82,o),
(461,16,o),
(311,16,cs)
);
},
{
closed = 1;
nodes = (
(459,359,o),
(544,424,o),
(544,528,cs),
(544,636,o),
(452,703,o),
(311,703,cs),
(170,703,o),
(80,636,o),
(80,528,cs),
(80,424,o),
(163,359,o),
(311,359,cs)
);
},
{
closed = 1;
nodes = (
(177,375,o),
(100,435,o),
(100,529,cs),
(100,624,o),
(181,684,o),
(311,684,cs),
(441,684,o),
(524,624,o),
(524,528,cs),
(524,435,o),
(445,375,o),
(311,375,cs)
);
}
);
width = 624;
}
);
leftKerningGroup = eight;
rightKerningGroup = eight;
unicode = 56;
}
{
color = 3;
glyphname = nine;
layers = (
{
layerId = "1D080760-4FD1-465A-AE80-6E2F24185885";
shapes = (
{
closed = 1;
nodes = (
(138,716,o),
(12,621,o),
(12,471,cs),
(12,334,o),
(124,247,o),
(252,247,cs),
(350,247,o),
(410,285,o),
(449,353,c),
(395,392,l),
(395,372,o),
(395,353,o),
(395,333,cs),
(395,225,o),
(334,167,o),
(239,167,cs),
(195,167,o),
(153,175,o),
(112,204,c),
(27,39,l),
(80,4,o),
(161,-16,o),
(244,-16,cs),
(475,-16,o),
(632,127,o),
(632,372,cs),
(632,601,o),
(496,716,o),
(296,716,cs)
);
},
{
closed = 1;
nodes = (
(354,553,o),
(384,526,o),
(384,482,cs),
(384,438,o),
(354,410,o),
(312,410,cs),
(270,410,o),
(240,438,o),
(240,482,cs),
(240,526,o),
(270,553,o),
(312,553,cs)
);
}
);
width = 661;
},
{
background = {
shapes = (
{
closed = 1;
nodes = (
(133,709,o),
(26,622,o),
(26,485,cs),
(26,355,o),
(126,271,o),
(260,271,cs),
(376,271,o),
(460,330,o),
(479,431,c),
(451,442,l),
(460,406,o),
(461,368,o),
(461,341,cs),
(461,175,o),
(373,89,o),
(237,89,cs),
(187,89,o),
(141,98,o),
(103,123,c),
(60,34,l),
(106,5,o),
(171,-9,o),
(239,-9,cs),
(440,-9,o),
(576,121,o),
(576,361,cs),
(576,584,o),
(466,709,o),
(276,709,cs)
);
},
{
closed = 1;
nodes = (
(384,620,o),
(439,558,o),
(439,491,cs),
(439,416,o),
(377,360,o),
(287,360,cs),
(195,360,o),
(137,411,o),
(137,490,cs),
(137,569,o),
(197,620,o),
(283,620,cs)
);
}
);
};
layerId = "BF88A9B2-CED4-4B03-8FC2-F1361A8F7788";
shapes = (
{
closed = 1;
nodes = (
(137,709,o),
(26,622,o),
(26,485,cs),
(26,355,o),
(128,271,o),
(267,271,cs),
(370,271,o),
(456,314,o),
(489,398,c),
(451,442,l),
(460,406,o),
(461,368,o),
(461,341,cs),
(461,174,o),
(374,89,o),
(237,89,cs),
(187,89,o),
(140,98,o),
(103,123,c),
(60,34,l),
(106,5,o),
(171,-9,o),
(239,-9,cs),
(438,-9,o),
(576,121,o),
(576,361,cs),
(576,585,o),
(467,709,o),
(278,709,cs)
);
},
{
closed = 1;
nodes = (
(384,616,o),
(439,560,o),
(439,491,cs),
(439,418,o),
(377,364,o),
(287,364,cs),
(195,364,o),
(137,413,o),
(137,490,cs),
(137,567,o),
(197,616,o),
(283,616,cs)
);
}
);
width = 622;
},
{
layerId = "BE9EF097-1901-49F4-A2DE-F2A985D0844B";
shapes = (
{
closed = 1;
nodes = (
(130,703,o),
(37,622,o),
(37,498,cs),
(37,374,o),
(127,294,o),
(267,294,cs),
(396,294,o),
(498,373,o),
(502,505,c),
(494,490,l),
(510,439,o),
(513,382,o),
(513,348,cs),
(513,127,o),
(403,16,o),
(235,16,cs),
(181,16,o),
(131,25,o),
(96,47,c),
(86,30,l),
(127,5,o),
(179,-3,o),
(235,-3,cs),
(413,-3,o),
(533,115,o),
(533,350,cs),
(533,567,o),
(442,703,o),
(260,703,cs)
);
},
{
closed = 1;
nodes = (
(407,684,o),
(482,588,o),
(482,500,cs),
(482,396,o),
(395,313,o),
(267,313,cs),
(137,313,o),
(57,386,o),
(57,498,cs),
(57,610,o),
(140,684,o),
(260,684,cs)
);
}
);
width = 592;
}
);
leftKerningGroup = nine;
rightKerningGroup = zero;
unicode = 57;
}
{
glyphname = less;
layers = (
{
layerId = "1D080760-4FD1-465A-AE80-6E2F24185885";
shapes = (
{
closed = 1;
nodes = (
(565,246,l),
(119,399,l),
(119,301,l),
(565,454,l),
(565,624,l),
(55,439,l),
(55,261,l),
(565,76,l)
);
}
);
width = 620;
},
{
background = {
shapes = (
{
closed = 1;
nodes = (
(520,217,l),
(102,376,l),
(102,324,l),
(520,483,l),
(520,577,l),
(66,399,l),
(66,301,l),
(520,123,l)
);
}
);
};
layerId = "BF88A9B2-CED4-4B03-8FC2-F1361A8F7788";
shapes = (
{
closed = 1;
nodes = (
(520,217,l),
(102,376,l),
(102,324,l),
(520,483,l),
(520,577,l),
(66,399,l),
(66,301,l),
(520,123,l)
);
}
);
width = 586;
},
{
layerId = "BE9EF097-1901-49F4-A2DE-F2A985D0844B";
shapes = (
{
closed = 1;
nodes = (
(485,190,l),
(88,354,l),
(88,346,l),
(485,510,l),
(485,532,l),
(75,361,l),
(75,339,l),
(485,168,l)
);
}
);
width = 560;
}
);
leftKerningGroup = less;
rightKerningGroup = less;
unicode = 60;
}
{
color = 3;
glyphname = equal;
layers = (
{
layerId = "50D943A8-B490-4162-9D4B-803713767B01";
shapes = (
{
closed = 1;
nodes = (
(565,395,l),
(565,565,l),
(55,565,l),
(55,395,l)
);
},
{
closed = 1;
nodes = (
(565,135,l),
(565,305,l),
(55,305,l),
(55,135,l)
);
}
);
width = 620;
},
{
background = {
shapes = (
{
closed = 1;
nodes = (
(520,423,l),
(520,516,l),
(66,516,l),
(66,423,l)
);
},
{
closed = 1;
nodes = (
(520,184,l),
(520,277,l),
(66,277,l),
(66,184,l)
);
}
);
};
layerId = "5922F47A-F449-4984-8091-CB5BAF0F3D6E";
shapes = (
{
closed = 1;
nodes = (
(520,425,l),
(520,515,l),
(66,515,l),
(66,425,l)
);
},
{
closed = 1;
nodes = (
(520,185,l),
(520,275,l),
(66,275,l),
(66,185,l)
);
}
);
width = 586;
},
{
layerId = "09D0C439-80D3-4C25-AAD4-493BFD6E371F";
shapes = (
{
closed = 1;
nodes = (
(485,450,l),
(485,469,l),
(75,469,l),
(75,450,l)
);
},
{
closed = 1;
nodes = (
(485,231,l),
(485,250,l),
(75,250,l),
(75,231,l)
);
}
);
width = 560;
}
);
leftKerningGroup = equal;
rightKerningGroup = equal;
unicode = 61;
}
{
glyphname = greater;
layers = (
{
layerId = "1D080760-4FD1-465A-AE80-6E2F24185885";
shapes = (
{
closed = 1;
nodes = (
(565,261,l),
(565,439,l),
(55,624,l),
(55,454,l),
(501,301,l),
(501,399,l),
(55,246,l),
(55,76,l)
);
}
);
width = 620;
},
{
background = {
shapes = (
{
closed = 1;
nodes = (
(520,301,l),
(520,399,l),
(66,577,l),
(66,483,l),
(485,324,l),
(485,376,l),
(66,217,l),
(66,123,l)
);
}
);
};
layerId = "BF88A9B2-CED4-4B03-8FC2-F1361A8F7788";
shapes = (
{
closed = 1;
nodes = (
(520,301,l),
(520,399,l),
(66,577,l),
(66,483,l),
(485,324,l),
(485,376,l),
(66,217,l),
(66,123,l)
);
}
);
width = 586;
},
{
layerId = "BE9EF097-1901-49F4-A2DE-F2A985D0844B";
shapes = (
{
closed = 1;
nodes = (
(485,339,l),
(485,361,l),
(75,532,l),
(75,510,l),
(472,346,l),
(472,354,l),
(75,190,l),
(75,168,l)
);
}
);
width = 560;
}
);
leftKerningGroup = greater;
rightKerningGroup = greater;
unicode = 62;
}
{
color = 3;
glyphname = at;
layers = (
{
layerId = "1D080760-4FD1-465A-AE80-6E2F24185885";
shapes = (
{
closed = 1;
nodes = (
(612,-210,o),
(707,-191,o),
(767,-162,c),
(725,-39,l),
(657,-70,o),
(589,-83,o),
(523,-83,cs),
(319,-83,o),
(184,57,o),
(184,253,cs),
(184,443,o),
(322,587,o),
(527,587,cs),
(733,587,o),
(868,459,o),
(868,278,cs),
(868,166,o),
(845,138,o),
(817,138,cs),
(795,138,o),
(778,151,o),
(778,193,cs),
(778,479,l),
(586,479,l),
(586,424,l),
(595,245,l),
(595,198,l),
(595,177,ls),
(595,54,o),
(663,-9,o),
(773,-9,cs),
(901,-9,o),
(1008,90,o),
(1008,281,cs),
(1008,521,o),
(815,714,o),
(527,714,cs),
(222,714,o),
(29,511,o),
(29,253,cs),
(29,-9,o),
(222,-210,o),
(523,-210,cs)
);
},
{
closed = 1;
nodes = (
(598,-9,o),
(645,91,o),
(645,240,cs),
(645,389,o),
(590,488,o),
(463,488,cs),
(352,488,o),
(251,394,o),
(251,240,cs),
(251,86,o),
(355,-9,o),
(463,-9,cs)
);
},
{
closed = 1;
nodes = (
(477,148,o),
(447,179,o),
(447,240,cs),
(447,300,o),
(477,331,o),
(518,331,cs),
(559,331,o),
(590,300,o),
(590,240,cs),
(590,179,o),
(559,148,o),
(518,148,cs)
);
}
);
width = 1037;
},
{
background = {
shapes = (
{
closed = 1;
nodes = (
(590,-203,o),
(675,-187,o),
(735,-156,c),
(712,-87,l),
(651,-118,o),
(579,-131,o),
(517,-131,cs),
(285,-131,o),
(125,28,o),
(125,254,cs),
(125,478,o),
(287,637,o),
(521,637,cs),
(755,637,o),
(916,488,o),
(916,268,cs),
(916,134,o),
(877,75,o),
(827,75,cs),
(794,75,o),
(769,93,o),
(769,145,cs),
(769,499,l),
(674,499,l),
(674,376,l),
(683,253,l),
(678,194,l),
(678,132,ls),
(678,43,o),
(728,-6,o),
(807,-6,cs),
(908,-6,o),
(988,90,o),
(988,270,cs),
(988,524,o),
(796,708,o),
(521,708,cs),
(238,708,o),
(46,517,o),
(46,254,cs),
(46,-11,o),
(236,-203,o),
(517,-203,cs)
);
},
{
closed = 1;
nodes = (
(629,-6,o),
(709,99,o),
(709,250,cs),
(709,401,o),
(625,504,o),
(490,504,cs),
(362,504,o),
(256,403,o),
(256,250,cs),
(256,96,o),
(363,-6,o),
(490,-6,cs)
);
},
{
closed = 1;
nodes = (
(422,80,o),
(353,147,o),
(353,250,cs),
(353,352,o),
(422,418,o),
(514,418,cs),
(606,418,o),
(676,352,o),
(676,250,cs),
(676,147,o),
(606,80,o),
(514,80,cs)
);
}
);
};
layerId = "BF88A9B2-CED4-4B03-8FC2-F1361A8F7788";
shapes = (
{
closed = 1;
nodes = (
(589,-203,o),
(674,-187,o),
(735,-156,c),
(710,-83,l),
(650,-114,o),
(578,-127,o),
(517,-127,cs),
(283,-127,o),
(129,30,o),
(129,254,cs),
(129,476,o),
(285,633,o),
(521,633,cs),
(753,633,o),
(912,486,o),
(912,268,cs),
(912,149,o),
(881,80,o),
(823,80,cs),
(794,80,o),
(769,98,o),
(769,150,cs),
(769,499,l),
(670,499,l),
(670,376,l),
(679,253,l),
(674,194,l),
(674,132,ls),
(674,43,o),
(724,-6,o),
(803,-6,cs),
(922,-6,o),
(988,99,o),
(988,270,cs),
(988,527,o),
(796,708,o),
(521,708,cs),
(238,708,o),
(46,517,o),
(46,254,cs),
(46,-11,o),
(236,-203,o),
(517,-203,cs)
);
},
{
closed = 1;
nodes = (
(635,-6,o),
(725,84,o),
(725,250,cs),
(725,416,o),
(631,504,o),
(496,504,cs),
(354,504,o),
(252,398,o),
(252,250,cs),
(252,101,o),
(354,-6,o),
(496,-6,cs)
);
},
{
closed = 1;
nodes = (
(418,82,o),
(353,148,o),
(353,250,cs),
(353,352,o),
(418,416,o),
(512,416,cs),
(603,416,o),
(672,355,o),
(672,250,cs),
(672,145,o),
(603,82,o),
(512,82,cs)
);
}
);
width = 1034;
},
{
layerId = "BE9EF097-1901-49F4-A2DE-F2A985D0844B";
shapes = (
{
closed = 1;
nodes = (
(573,-197,o),
(651,-183,o),
(710,-151,c),
(702,-133,l),
(647,-163,o),
(572,-177,o),
(513,-177,cs),
(258,-177,o),
(79,0,o),
(79,254,cs),
(79,511,o),
(260,684,o),
(517,684,cs),
(772,684,o),
(953,515,o),
(953,259,cs),
(953,103,o),
(902,16,o),
(834,16,cs),
(793,16,o),
(762,39,o),
(762,99,cs),
(762,517,l),
(742,517,l),
(742,330,l),
(752,260,l),
(742,190,l),
(742,89,ls),
(742,32,o),
(779,-3,o),
(834,-3,cs),
(914,-3,o),
(973,90,o),
(973,259,cs),
(973,526,o),
(782,703,o),
(517,703,cs),
(250,703,o),
(59,523,o),
(59,254,cs),
(59,-12,o),
(246,-197,o),
(513,-197,cs)
);
},
{
closed = 1;
nodes = (
(653,-3,o),
(759,106,o),
(759,259,cs),
(759,412,o),
(653,520,o),
(511,520,cs),
(369,520,o),
(260,412,o),
(260,259,cs),
(260,106,o),
(369,-3,o),
(511,-3,cs)
);
},
{
closed = 1;
nodes = (
(379,16,o),
(280,116,o),
(280,259,cs),
(280,402,o),
(379,501,o),
(511,501,cs),
(643,501,o),
(742,402,o),
(742,259,cs),
(742,116,o),
(643,16,o),
(511,16,cs)
);
}
);
width = 1032;
}
);
leftKerningGroup = O;
rightKerningGroup = O;
unicode = 64;
}
{
color = 3;
glyphname = B;
layers = (
{
anchors = (
{
name = bottom;
position = "{382, 0}";
},
{
name = top;
position = "{382, 700}";
}
);
layerId = "1D080760-4FD1-465A-AE80-6E2F24185885";
shapes = (
{
closed = 1;
nodes = (
(57,700,l),
(431,700,ls),
(624,700,o),
(714,623,o),
(714,517,cs),
(714,411,o),
(624,333,o),
(461,333,c),
(481,387,l),
(644,387,o),
(747,315,o),
(747,193,cs),
(747,71,o),
(644,0,o),
(451,0,cs),
(57,0,l),
(57,165,l),
(431,165,ls),
(483,165,o),
(509,184,o),
(509,220,cs),
(509,256,o),
(483,275,o),
(431,275,cs),
(57,275,l),
(57,431,l),
(399,431,ls),
(452,431,o),
(476,449,o),
(476,483,cs),
(476,517,o),
(452,535,o),
(399,535,cs),
(57,535,l)
);
}
);
width = 773;
},
{
anchors = (
{
name = bottom;
position = "{379, 0}";
},
{
name = top;
position = "{379, 700}";
}
);
background = {
shapes = (
{
closed = 1;
nodes = (
(439,0,ls),
(619,0,o),
(711,68,o),
(711,188,cs),
(711,308,o),
(620,375,o),
(458,375,c),
(440,342,l),
(585,342,o),
(675,408,o),
(675,520,cs),
(675,632,o),
(585,700,o),
(419,700,cs),
(100,700,l),
(100,0,l)
);
},
{
closed = 1;
nodes = (
(212,610,l),
(407,610,ls),
(505,610,o),
(560,574,o),
(560,504,cs),
(560,434,o),
(505,397,o),
(407,397,cs),
(203,397,l),
(203,312,l),
(433,312,ls),
(539,312,o),
(596,277,o),
(596,201,cs),
(596,125,o),
(539,90,o),
(433,90,cs),
(212,90,l)
);
}
);
};
layerId = "BF88A9B2-CED4-4B03-8FC2-F1361A8F7788";
shapes = (
{
closed = 1;
nodes = (
(100,0,l),
(441,0,ls),
(619,0,o),
(711,70,o),
(711,190,cs),
(711,310,o),
(623,374,o),
(512,374,c),
(494,341,l),
(588,341,o),
(675,406,o),
(675,518,cs),
(675,630,o),
(585,700,o),
(421,700,cs),
(100,700,l),
(100,607,l),
(409,607,ls),
(505,607,o),
(560,573,o),
(560,504,cs),
(560,435,o),
(505,401,o),
(409,401,cs),
(100,401,l),
(100,308,l),
(435,308,ls),
(539,308,o),
(596,275,o),
(596,200,cs),
(596,125,o),
(539,93,o),
(435,93,cs),
(100,93,l)
);
}
);
width = 759;
},
{
anchors = (
{
name = bottom;
position = "{377, 0}";
},
{
name = top;
position = "{377, 700}";
}
);
layerId = "BE9EF097-1901-49F4-A2DE-F2A985D0844B";
shapes = (
{
closed = 1;
nodes = (
(133,0,l),
(430,0,ls),
(600,0,o),
(683,65,o),
(683,183,cs),
(683,301,o),
(602,363,o),
(441,363,c),
(424,350,l),
(554,350,o),
(645,406,o),
(645,523,cs),
(645,640,o),
(554,700,o),
(410,700,cs),
(133,700,l),
(133,681,l),
(414,681,ls),
(547,681,o),
(625,627,o),
(625,523,cs),
(625,419,o),
(547,365,o),
(414,365,cs),
(133,365,l),
(133,346,l),
(434,346,ls),
(583,346,o),
(663,296,o),
(663,183,cs),
(663,70,o),
(583,19,o),
(434,19,cs),
(133,19,l)
);
}
);
width = 748;
}
);
leftKerningGroup = H;
rightKerningGroup = B;
unicode = 66;
}
{
color = 3;
glyphname = C;
layers = (
{
anchors = (
{
name = bottom;
position = "{392, 0}";
},
{
name = top;
position = "{418, 701}";
}
);
layerId = "50D943A8-B490-4162-9D4B-803713767B01";
shapes = (
{
closed = 1;
nodes = (
(556,-16,o),
(664,34,o),
(733,124,c),
(584,257,l),
(543,205,o),
(494,175,o),
(431,175,cs),
(333,175,o),
(267,243,o),
(267,350,cs),
(267,457,o),
(333,525,o),
(431,525,cs),
(494,525,o),
(543,495,o),
(584,443,c),
(733,576,l),
(664,666,o),
(556,716,o),
(419,716,cs),
(194,716,o),
(29,565,o),
(29,350,cs),
(29,135,o),
(194,-16,o),
(419,-16,cs)
);
}
);
width = 744;
},
{
anchors = (
{
name = bottom;
position = "{401, 0}";
},
{
name = top;
position = "{412, 700}";
}
);
background = {
shapes = (
{
closed = 1;
nodes = (
(1330,-9,o),
(1426,30,o),
(1490,105,c),
(1418,177,l),
(1364,120,o),
(1299,93,o),
(1224,93,cs),
(1072,93,o),
(961,201,o),
(961,350,cs),
(961,499,o),
(1072,607,o),
(1224,607,cs),
(1299,607,o),
(1364,580,o),
(1418,524,c),
(1490,596,l),
(1426,670,o),
(1330,709,o),
(1218,709,cs),
(1005,709,o),
(846,558,o),
(846,350,cs),
(846,142,o),
(1005,-9,o),
(1218,-9,cs)
);
},
{
closed = 1;
nodes = (
(636,-9,o),
(795,143,o),
(795,350,cs),
(795,557,o),
(636,709,o),
(421,709,cs),
(205,709,o),
(46,556,o),
(46,350,cs),
(46,144,o),
(205,-9,o),
(421,-9,cs)
);
},
{
closed = 1;
nodes = (
(271,93,o),
(161,202,o),
(161,350,cs),
(161,498,o),
(271,607,o),
(421,607,cs),
(570,607,o),
(680,498,o),
(680,350,cs),
(680,202,o),
(570,93,o),
(421,93,cs)
);
}
);
};
layerId = "5922F47A-F449-4984-8091-CB5BAF0F3D6E";
shapes = (
{
closed = 1;
nodes = (
(530,-9,o),
(626,30,o),
(690,105,c),
(616,177,l),
(564,120,o),
(499,93,o),
(424,93,cs),
(272,93,o),
(161,201,o),
(161,350,cs),
(161,499,o),
(272,607,o),
(424,607,cs),
(499,607,o),
(564,580,o),
(616,524,c),
(690,596,l),
(626,670,o),
(530,709,o),
(419,709,cs),
(205,709,o),
(46,558,o),
(46,350,cs),
(46,142,o),
(205,-9,o),
(418,-9,cs)
);
}
);
width = 725;
},
{
anchors = (
{
name = bottom;
position = "{408, 0}";
},
{
name = top;
position = "{408, 700}";
}
);
layerId = "09D0C439-80D3-4C25-AAD4-493BFD6E371F";
shapes = (
{
closed = 1;
nodes = (
(510,-3,o),
(596,27,o),
(656,87,c),
(644,101,l),
(580,40,o),
(503,16,o),
(418,16,cs),
(225,16,o),
(79,161,o),
(79,350,cs),
(79,539,o),
(225,684,o),
(418,684,cs),
(503,684,o),
(580,661,o),
(644,600,c),
(656,614,l),
(596,674,o),
(510,703,o),
(418,703,cs),
(213,703,o),
(59,552,o),
(59,350,cs),
(59,148,o),
(213,-3,o),
(418,-3,cs)
);
}
);
width = 711;
}
);
leftKerningGroup = O;
rightKerningGroup = C;
unicode = 67;
}
{
color = 3;
glyphname = D;
layers = (
{
anchors = (
{
name = bottom;
position = "{361, 0}";
},
{
name = center;
position = "{206, 355}";
},
{
name = top;
position = "{359, 700}";
}
);
layerId = "50D943A8-B490-4162-9D4B-803713767B01";
shapes = (
{
closed = 1;
nodes = (
(293,350,l),
(293,184,l),
(392,184,ls),
(491,184,o),
(559,243,o),
(559,350,cs),
(559,457,o),
(491,516,o),
(392,516,cs),
(57,516,l),
(57,700,l),
(402,700,ls),
(636,700,o),
(797,567,o),
(797,350,cs),
(797,133,o),
(636,0,o),
(402,0,cs),
(57,0,l),
(57,350,l)
);
}
);
width = 826;
},
{
anchors = (
{
name = bottom;
position = "{381, 0}";
},
{
name = center;
position = "{203, 356}";
},
{
name = top;
position = "{377, 699}";
}
);
background = {
shapes = (
{
closed = 1;
nodes = (
(400,0,ls),
(626,0,o),
(780,141,o),
(780,350,cs),
(780,559,o),
(626,700,o),
(400,700,cs),
(100,700,l),
(100,0,l)
);
},
{
closed = 1;
nodes = (
(214,601,l),
(394,601,ls),
(558,601,o),
(665,500,o),
(665,350,cs),
(665,200,o),
(558,99,o),
(394,99,cs),
(214,99,l)
);
}
);
};
layerId = "5922F47A-F449-4984-8091-CB5BAF0F3D6E";
shapes = (
{
closed = 1;
nodes = (
(100,700,l),
(400,700,ls),
(626,700,o),
(780,559,o),
(780,350,cs),
(780,141,o),
(626,0,o),
(400,0,cs),
(100,0,l),
(100,350,l),
(214,350,l),
(214,99,l),
(394,99,ls),
(559,99,o),
(665,199,o),
(665,350,cs),
(665,501,o),
(559,601,o),
(394,601,cs),
(100,601,l)
);
}
);
width = 826;
},
{
anchors = (
{
name = bottom;
position = "{396, 0}";
},
{
name = center;
position = "{200, 356}";
},
{
name = top;
position = "{391, 699}";
}
);
layerId = "09D0C439-80D3-4C25-AAD4-493BFD6E371F";
shapes = (
{
closed = 1;
nodes = (
(153,350,l),
(153,19,l),
(396,19,ls),
(610,19,o),
(747,159,o),
(747,350,cs),
(747,541,o),
(610,681,o),
(396,681,cs),
(133,681,l),
(133,700,l),
(398,700,ls),
(619,700,o),
(767,552,o),
(767,350,cs),
(767,148,o),
(619,0,o),
(398,0,cs),
(133,0,l),
(133,350,l)
);
}
);
width = 826;
}
);
leftKerningGroup = H;
rightKerningGroup = O;
unicode = 68;
}
{
color = 3;
glyphname = E;
layers = (
{
anchors = (
{
name = bottom;
position = "{342, 0}";
},
{
name = ogonek;
position = "{639, 0}";
},
{
name = top;
position = "{342, 700}";
},
{
name = topleft;
position = "{-9, 700}";
}
);
layerId = "1D080760-4FD1-465A-AE80-6E2F24185885";
shapes = (
{
closed = 1;
nodes = (
(57,270,l),
(626,270,l),
(626,440,l),
(57,440,l)
);
},
{
closed = 1;
nodes = (
(57,522,l),
(626,522,l),
(626,700,l),
(57,700,l)
);
},
{
closed = 1;
nodes = (
(57,178,l),
(626,178,l),
(626,0,l),
(57,0,l)
);
}
);
width = 673;
},
{
anchors = (
{
name = bottom;
position = "{361, 0}";
},
{
name = ogonek;
position = "{616, 0}";
},
{
name = top;
position = "{352, 700}";
},
{
name = topleft;
position = "{19, 700}";
}
);
background = {
shapes = (
{
closed = 1;
nodes = (
(203,309,l),
(559,309,l),
(559,401,l),
(203,401,l)
);
},
{
closed = 1;
nodes = (
(212,604,l),
(602,604,l),
(602,700,l),
(100,700,l),
(100,0,l),
(616,0,l),
(616,96,l),
(212,96,l)
);
}
);
};
layerId = "BF88A9B2-CED4-4B03-8FC2-F1361A8F7788";
shapes = (
{
closed = 1;
nodes = (
(100,307,l),
(602,307,l),
(602,404,l),
(100,404,l)
);
},
{
closed = 1;
nodes = (
(100,601,l),
(602,601,l),
(602,700,l),
(100,700,l)
);
},
{
closed = 1;
nodes = (
(100,99,l),
(602,99,l),
(602,0,l),
(100,0,l)
);
}
);
width = 670;
},
{
anchors = (
{
name = bottom;
position = "{376, 0}";
},
{
name = ogonek;
position = "{599, 0}";
},
{
name = top;
position = "{359, 700}";
},
{
name = topleft;
position = "{41, 700}";
}
);
layerId = "BE9EF097-1901-49F4-A2DE-F2A985D0844B";
shapes = (
{
closed = 1;
nodes = (
(133,0,l),
(584,0,l),
(584,19,l),
(133,19,l)
);
},
{
closed = 1;
nodes = (
(133,365,l),
(584,365,l),
(584,346,l),
(133,346,l)
);
},
{
closed = 1;
nodes = (
(133,719,l),
(584,719,l),
(584,700,l),
(133,700,l)
);
}
);
width = 668;
}
);
leftKerningGroup = H;
rightKerningGroup = E;
unicode = 69;
}
{
color = 3;
glyphname = F;
layers = (
{
layerId = "50D943A8-B490-4162-9D4B-803713767B01";
shapes = (
{
closed = 1;
nodes = (
(277,224,l),
(585,224,l),
(585,402,l),
(277,402,l)
);
},
{
closed = 1;
nodes = (
(57,700,l),
(57,522,l),
(626,522,l),
(626,700,l)
);
},
{
closed = 1;
nodes = (
(57,402,l),
(57,0,l),
(293,0,l),
(293,402,l)
);
}
);
width = 644;
},
{
background = {
shapes = (
{
closed = 1;
nodes = (
(204,276,l),
(559,276,l),
(559,373,l),
(204,373,l)
);
},
{
closed = 1;
nodes = (
(214,604,l),
(602,604,l),
(602,700,l),
(100,700,l),
(100,0,l),
(214,0,l)
);
}
);
};
layerId = "5922F47A-F449-4984-8091-CB5BAF0F3D6E";
shapes = (
{
closed = 1;
nodes = (
(204,275,l),
(559,275,l),
(559,374,l),
(204,374,l)
);
},
{
closed = 1;
nodes = (
(100,374,l),
(100,0,l),
(214,0,l),
(214,374,l)
);
},
{
closed = 1;
nodes = (
(100,700,l),
(100,601,l),
(602,601,l),
(602,700,l)
);
}
);
width = 636;
},
{
layerId = "09D0C439-80D3-4C25-AAD4-493BFD6E371F";
shapes = (
{
closed = 1;
nodes = (
(148,326,l),
(539,326,l),
(539,345,l),
(148,345,l)
);
},
{
closed = 1;
nodes = (
(133,345,l),
(133,0,l),
(153,0,l),
(153,345,l)
);
},
{
closed = 1;
nodes = (
(133,700,l),
(133,681,l),
(584,681,l),
(584,700,l)
);
}
);
width = 629;
}
);
leftKerningGroup = H;
rightKerningGroup = F;
unicode = 70;
}
{
color = 2;
glyphname = G;
layers = (
{
anchors = (
{
name = bottom;
position = "{410, 0}";
},
{
name = top;
position = "{424, 701}";
}
);
guides = (
{
angle = 90;
position = "{425, 0}";
}
);
layerId = "1D080760-4FD1-465A-AE80-6E2F24185885";
shapes = (
{
closed = 1;
nodes = (
(523,-16,o),
(640,15,o),
(725,73,c),
(593,235,l),
(536,191,o),
(487,175,o),
(434,175,cs),
(333,175,o),
(267,245,o),
(267,350,cs),
(267,458,o),
(333,525,o),
(437,525,cs),
(499,525,o),
(550,499,o),
(594,448,c),
(745,581,l),
(674,668,o),
(563,716,o),
(425,716,cs),
(194,716,o),
(29,565,o),
(29,350,cs),
(29,135,o),
(194,-16,o),
(420,-16,cs)
);
},
{
closed = 1;
nodes = (
(725,73,l),
(725,369,l),
(520,369,l),
(520,103,l)
);
}
);
width = 769;
},
{
anchors = (
{
name = bottom;
position = "{405, 0}";
},
{
name = top;
position = "{412, 700}";
}
);
background = {
shapes = (
{
closed = 1;
nodes = (
(519,-9,o),
(619,21,o),
(690,80,c),
(625,167,l),
(566,113,o),
(499,93,o),
(427,93,cs),
(272,93,o),
(161,202,o),
(161,350,cs),
(161,500,o),
(272,607,o),
(428,607,cs),
(505,607,o),
(570,582,o),
(626,526,c),
(698,598,l),
(633,671,o),
(537,709,o),
(423,709,cs),
(205,709,o),
(46,558,o),
(46,350,cs),
(46,142,o),
(205,-9,o),
(421,-9,cs)
);
},
{
closed = 1;
nodes = (
(690,80,l),
(690,356,l),
(589,356,l),
(589,95,l)
);
}
);
};
guides = (
{
angle = 90;
position = "{425, 0}";
}
);
layerId = "BF88A9B2-CED4-4B03-8FC2-F1361A8F7788";
shapes = (
{
closed = 1;
nodes = (
(519,-9,o),
(619,21,o),
(690,80,c),
(625,167,l),
(566,113,o),
(499,93,o),
(427,93,cs),
(272,93,o),
(161,202,o),
(161,350,cs),
(161,500,o),
(272,607,o),
(428,607,cs),
(505,607,o),
(570,582,o),
(626,526,c),
(698,598,l),
(633,671,o),
(537,709,o),
(423,709,cs),
(205,709,o),
(46,558,o),
(46,350,cs),
(46,142,o),
(205,-9,o),
(421,-9,cs)
);
},
{
closed = 1;
nodes = (
(690,80,l),
(690,356,l),
(580,356,l),
(580,95,l)
);
}
);
width = 772;
},
{
anchors = (
{
name = bottom;
position = "{402, 0}";
},
{
name = top;
position = "{402, 699}";
}
);
guides = (
{
angle = 90;
position = "{421, 0}";
}
);
layerId = "BE9EF097-1901-49F4-A2DE-F2A985D0844B";
shapes = (
{
closed = 1;
nodes = (
(516,-3,o),
(602,27,o),
(662,87,c),
(650,102,l),
(589,40,o),
(509,16,o),
(421,16,cs),
(225,16,o),
(79,161,o),
(79,350,cs),
(79,539,o),
(225,684,o),
(421,684,cs),
(509,684,o),
(586,661,o),
(650,600,c),
(662,614,l),
(602,674,o),
(516,703,o),
(421,703,cs),
(213,703,o),
(59,552,o),
(59,350,cs),
(59,148,o),
(213,-3,o),
(421,-3,cs)
);
},
{
closed = 1;
nodes = (
(662,87,l),
(662,343,l),
(643,343,l),
(643,87,l)
);
}
);
width = 774;
}
);
leftKerningGroup = O;
rightKerningGroup = G;
unicode = 71;
}
{
color = 3;
glyphname = H;
layers = (
{
anchors = (
{
name = bottom;
position = "{402, 0}";
},
{
name = center;
position = "{402, 576}";
},
{
name = top;
position = "{402, 700}";
}
);
layerId = "50D943A8-B490-4162-9D4B-803713767B01";
shapes = (
{
closed = 1;
nodes = (
(511,0,l),
(747,0,l),
(747,700,l),
(511,700,l)
);
},
{
closed = 1;
nodes = (
(293,700,l),
(57,700,l),
(57,0,l),
(293,0,l)
);
},
{
closed = 1;
nodes = (
(527,452,l),
(277,452,l),
(277,258,l),
(527,258,l)
);
}
);
width = 804;
},
{
anchors = (
{
name = bottom;
position = "{405, 0}";
},
{
name = center;
position = "{405, 556}";
},
{
name = top;
position = "{405, 700}";
}
);
background = {
shapes = (
{
closed = 1;
nodes = (
(597,0,l),
(711,0,l),
(711,700,l),
(597,700,l)
);
},
{
closed = 1;
nodes = (
(214,700,l),
(100,700,l),
(100,0,l),
(214,0,l)
);
},
{
closed = 1;
nodes = (
(606,407,l),
(204,407,l),
(204,303,l),
(606,303,l)
);
}
);
};
layerId = "5922F47A-F449-4984-8091-CB5BAF0F3D6E";
shapes = (
{
closed = 1;
nodes = (
(597,0,l),
(711,0,l),
(711,700,l),
(597,700,l)
);
},
{
closed = 1;
nodes = (
(214,700,l),
(100,700,l),
(100,0,l),
(214,0,l)
);
},
{
closed = 1;
nodes = (
(606,405,l),
(204,405,l),
(204,306,l),
(606,306,l)
);
}
);
width = 811;
},
{
anchors = (
{
name = bottom;
position = "{408, 0}";
},
{
name = center;
position = "{408, 538}";
},
{
name = top;
position = "{408, 700}";
}
);
layerId = "09D0C439-80D3-4C25-AAD4-493BFD6E371F";
shapes = (
{
closed = 1;
nodes = (
(663,0,l),
(683,0,l),
(683,700,l),
(663,700,l)
);
},
{
closed = 1;
nodes = (
(153,700,l),
(133,700,l),
(133,0,l),
(153,0,l)
);
},
{
closed = 1;
nodes = (
(668,365,l),
(148,365,l),
(148,346,l),
(668,346,l)
);
}
);
width = 816;
}
);
leftKerningGroup = H;
rightKerningGroup = H;
unicode = 72;
}
{
glyphname = I;
layers = (
{
anchors = (
{
name = bottom;
position = "{175, 0}";
},
{
name = ogonek;
position = "{293, 0}";
},
{
name = top;
position = "{175, 700}";
},
{
name = topleft;
position = "{-9, 700}";
}
);
layerId = "50D943A8-B490-4162-9D4B-803713767B01";
shapes = (
{
closed = 1;
nodes = (
(293,0,l),
(293,700,l),
(57,700,l),
(57,0,l)
);
}
);
width = 350;
},
{
anchors = (
{
name = bottom;
position = "{157, 0}";
},
{
name = ogonek;
position = "{214, 0}";
},
{
name = top;
position = "{157, 700}";
},
{
name = topleft;
position = "{19, 699}";
}
);
background = {
shapes = (
{
closed = 1;
nodes = (
(214,0,l),
(214,700,l),
(100,700,l),
(100,0,l)
);
}
);
};
layerId = "5922F47A-F449-4984-8091-CB5BAF0F3D6E";
shapes = (
{
closed = 1;
nodes = (
(214,0,l),
(214,700,l),
(100,700,l),
(100,0,l)
);
}
);
width = 314;
},
{
anchors = (
{
name = bottom;
position = "{143, 0}";
},
{
name = ogonek;
position = "{153, 0}";
},
{
name = top;
position = "{143, 700}";
},
{
name = topleft;
position = "{41, 699}";
}
);
layerId = "09D0C439-80D3-4C25-AAD4-493BFD6E371F";
shapes = (
{
closed = 1;
nodes = (
(153,0,l),
(153,700,l),
(133,700,l),
(133,0,l)
);
}
);
width = 286;
}
);
leftKerningGroup = H;
rightKerningGroup = H;
unicode = 73;
}
{
color = 3;
glyphname = J;
layers = (
{
anchors = (
{
name = top;
position = "{288, 700}";
}
);
layerId = "50D943A8-B490-4162-9D4B-803713767B01";
shapes = (
{
closed = 1;
nodes = (
(422,-16,o),
(523,78,o),
(523,270,cs),
(523,700,l),
(52,700,l),
(52,522,l),
(290,522,l),
(290,256,ls),
(290,199,o),
(263,169,o),
(214,169,cs),
(175,169,o),
(140,192,o),
(103,238,c),
(-24,88,l),
(34,20,o),
(125,-16,o),
(234,-16,cs)
);
}
);
width = 574;
},
{
anchors = (
{
name = top;
position = "{244, 700}";
}
);
background = {
shapes = (
{
closed = 1;
nodes = (
(349,-9,o),
(426,70,o),
(426,231,cs),
(426,700,l),
(61,700,l),
(61,604,l),
(313,604,l),
(313,225,ls),
(313,135,o),
(273,90,o),
(194,90,cs),
(140,90,o),
(93,118,o),
(55,171,c),
(-8,92,l),
(38,27,o),
(115,-9,o),
(202,-9,cs)
);
}
);
};
layerId = "5922F47A-F449-4984-8091-CB5BAF0F3D6E";
shapes = (
{
closed = 1;
nodes = (
(347,-9,o),
(426,70,o),
(426,231,cs),
(426,700,l),
(61,700,l),
(61,601,l),
(312,601,l),
(312,225,ls),
(312,135,o),
(273,90,o),
(198,90,cs),
(140,90,o),
(93,118,o),
(55,171,c),
(-11,92,l),
(35,27,o),
(113,-9,o),
(198,-9,cs)
);
}
);
width = 520;
},
{
anchors = (
{
name = top;
position = "{209, 700}";
}
);
layerId = "09D0C439-80D3-4C25-AAD4-493BFD6E371F";
shapes = (
{
closed = 1;
nodes = (
(292,-3,o),
(350,63,o),
(350,194,cs),
(350,700,l),
(68,700,l),
(68,681,l),
(330,681,l),
(330,196,ls),
(330,74,o),
(281,16,o),
(179,16,cs),
(113,16,o),
(56,49,o),
(18,108,c),
(4,96,l),
(41,34,o),
(107,-3,o),
(178,-3,cs)
);
}
);
width = 477;
}
);
leftKerningGroup = J;
rightKerningGroup = U;
unicode = 74;
}
{
color = 3;
glyphname = K;
layers = (
{
anchors = (
{
name = bottom;
position = "{384, 0}";
},
{
name = top;
position = "{384, 700}";
}
);
guides = (
{
angle = 48.492;
position = "{625, 544}";
}
);
layerId = "1D080760-4FD1-465A-AE80-6E2F24185885";
shapes = (
{
closed = 1;
nodes = (
(349,240,l),
(480,374,l),
(776,700,l),
(519,700,l),
(255,409,l),
(268,150,l)
);
},
{
closed = 1;
nodes = (
(289,0,l),
(289,700,l),
(57,700,l),
(57,0,l)
);
},
{
closed = 1;
nodes = (
(790,0,l),
(464,434,l),
(311,272,l),
(517,0,l)
);
}
);
width = 765;
},
{
anchors = (
{
name = bottom;
position = "{376, 0}";
},
{
name = top;
position = "{376, 700}";
}
);
background = {
shapes = (
{
closed = 1;
nodes = (
(337,305,l),
(401,376,l),
(707,700,l),
(580,700,l),
(195,306,l),
(201,166,l)
);
},
{
closed = 1;
nodes = (
(212,0,l),
(212,700,l),
(100,700,l),
(100,0,l)
);
},
{
closed = 1;
nodes = (
(726,0,l),
(390,411,l),
(314,326,l),
(592,0,l)
);
}
);
};
layerId = "BF88A9B2-CED4-4B03-8FC2-F1361A8F7788";
shapes = (
{
closed = 1;
nodes = (
(337,305,l),
(401,376,l),
(707,700,l),
(577,700,l),
(195,306,l),
(201,167,l)
);
},
{
closed = 1;
nodes = (
(214,0,l),
(214,700,l),
(100,700,l),
(100,0,l)
);
},
{
closed = 1;
nodes = (
(726,0,l),
(390,411,l),
(314,326,l),
(592,0,l)
);
}
);
width = 724;
},
{
anchors = (
{
name = bottom;
position = "{370, 0}";
},
{
name = top;
position = "{370, 700}";
}
);
layerId = "BE9EF097-1901-49F4-A2DE-F2A985D0844B";
shapes = (
{
closed = 1;
nodes = (
(328,366,l),
(340,377,l),
(654,700,l),
(627,700,l),
(149,209,l),
(149,182,l)
);
},
{
closed = 1;
nodes = (
(153,0,l),
(153,700,l),
(133,700,l),
(133,0,l)
);
},
{
closed = 1;
nodes = (
(677,0,l),
(332,390,l),
(317,377,l),
(650,0,l)
);
}
);
width = 693;
}
);
leftKerningGroup = H;
rightKerningGroup = K;
unicode = 75;
}
{
glyphname = L;
layers = (
{
anchors = (
{
name = bottom;
position = "{345, 0}";
},
{
name = center;
position = "{175, 400}";
},
{
name = dot;
position = "{484, 441}";
},
{
name = top;
position = "{175, 700}";
},
{
name = topright;
position = "{423, 700}";
}
);
guides = (
{
angle = 90;
position = "{581, 0}";
}
);
layerId = "1D080760-4FD1-465A-AE80-6E2F24185885";
shapes = (
{
closed = 1;
nodes = (
(609,0,l),
(609,183,l),
(293,183,l),
(293,700,l),
(57,700,l),
(57,0,l)
);
}
);
width = 617;
},
{
anchors = (
{
name = bottom;
position = "{355, 0}";
},
{
name = center;
position = "{157, 379}";
},
{
name = dot;
position = "{455, 399}";
},
{
name = top;
position = "{157, 700}";
},
{
name = topright;
position = "{436, 700}";
}
);
background = {
shapes = (
{
closed = 1;
nodes = (
(587,0,l),
(587,99,l),
(214,99,l),
(214,700,l),
(100,700,l),
(100,0,l)
);
}
);
};
layerId = "BF88A9B2-CED4-4B03-8FC2-F1361A8F7788";
shapes = (
{
closed = 1;
nodes = (
(587,0,l),
(587,99,l),
(214,99,l),
(214,700,l),
(100,700,l),
(100,0,l)
);
}
);
width = 596;
},
{
anchors = (
{
name = bottom;
position = "{362, 0}";
},
{
name = center;
position = "{143, 360}";
},
{
name = dot;
position = "{433, 360}";
},
{
name = top;
position = "{143, 700}";
},
{
name = topright;
position = "{446, 700}";
}
);
guides = (
{
angle = 90;
position = "{466, 0}";
}
);
layerId = "BE9EF097-1901-49F4-A2DE-F2A985D0844B";
shapes = (
{
closed = 1;
nodes = (
(570,0,l),
(570,19,l),
(153,19,l),
(153,700,l),
(133,700,l),
(133,0,l)
);
}
);
width = 580;
}
);
leftKerningGroup = H;
rightKerningGroup = L;
unicode = 76;
}
{
color = 3;
glyphname = M;
layers = (
{
anchors = (
{
name = bottom;
position = "{476, 0}";
},
{
name = top;
position = "{476, 700}";
}
);
layerId = "1D080760-4FD1-465A-AE80-6E2F24185885";
shapes = (
{
closed = 1;
nodes = (
(272,0,l),
(272,376,l),
(230,376,l),
(424,63,l),
(528,63,l),
(714,376,l),
(680,376,l),
(682,0,l),
(897,0,l),
(895,700,l),
(701,700,l),
(429,243,l),
(531,243,l),
(251,700,l),
(57,700,l),
(57,0,l)
);
}
);
width = 954;
},
{
anchors = (
{
name = bottom;
position = "{477, 0}";
},
{
name = top;
position = "{477, 700}";
}
);
background = {
shapes = (
{
closed = 1;
nodes = (
(205,0,l),
(205,528,l),
(182,528,l),
(451,82,l),
(503,82,l),
(769,528,l),
(749,528,l),
(750,0,l),
(855,0,l),
(854,700,l),
(760,700,l),
(454,179,l),
(504,179,l),
(194,700,l),
(100,700,l),
(100,0,l)
);
}
);
};
layerId = "BF88A9B2-CED4-4B03-8FC2-F1361A8F7788";
shapes = (
{
closed = 1;
nodes = (
(210,0,l),
(210,526,l),
(182,526,l),
(451,82,l),
(503,82,l),
(769,526,l),
(744,526,l),
(745,0,l),
(855,0,l),
(854,700,l),
(760,700,l),
(454,181,l),
(504,181,l),
(194,700,l),
(100,700,l),
(100,0,l)
);
}
);
width = 955;
},
{
anchors = (
{
name = bottom;
position = "{478, 0}";
},
{
name = top;
position = "{478, 700}";
}
);
layerId = "BE9EF097-1901-49F4-A2DE-F2A985D0844B";
shapes = (
{
closed = 1;
nodes = (
(153,0,l),
(153,671,l),
(144,671,l),
(472,99,l),
(484,99,l),
(811,671,l),
(803,671,l),
(803,0,l),
(823,0,l),
(823,700,l),
(806,700,l),
(474,118,l),
(483,118,l),
(150,700,l),
(133,700,l),
(133,0,l)
);
}
);
width = 956;
}
);
leftKerningGroup = H;
rightKerningGroup = H;
unicode = 77;
}
{
color = 3;
glyphname = N;
layers = (
{
anchors = (
{
name = bottom;
position = "{402, 0}";
},
{
name = top;
position = "{402, 700}";
}
);
layerId = "1D080760-4FD1-465A-AE80-6E2F24185885";
shapes = (
{
closed = 1;
nodes = (
(287,0,l),
(287,426,l),
(197,426,l),
(553,0,l),
(747,0,l),
(747,700,l),
(517,700,l),
(517,274,l),
(607,274,l),
(251,700,l),
(57,700,l),
(57,0,l)
);
}
);
width = 804;
},
{
anchors = (
{
name = bottom;
position = "{405, 0}";
},
{
name = top;
position = "{405, 700}";
}
);
background = {
shapes = (
{
closed = 1;
nodes = (
(212,0,l),
(212,555,l),
(166,555,l),
(617,0,l),
(711,0,l),
(711,700,l),
(599,700,l),
(599,145,l),
(645,145,l),
(194,700,l),
(100,700,l),
(100,0,l)
);
}
);
};
layerId = "BF88A9B2-CED4-4B03-8FC2-F1361A8F7788";
shapes = (
{
closed = 1;
nodes = (
(214,0,l),
(214,556,l),
(166,556,l),
(617,0,l),
(711,0,l),
(711,700,l),
(597,700,l),
(597,144,l),
(645,144,l),
(194,700,l),
(100,700,l),
(100,0,l)
);
}
);
width = 811;
},
{
anchors = (
{
name = bottom;
position = "{408, 0}";
},
{
name = top;
position = "{408, 700}";
}
);
layerId = "BE9EF097-1901-49F4-A2DE-F2A985D0844B";
shapes = (
{
closed = 1;
nodes = (
(153,0,l),
(153,677,l),
(142,677,l),
(666,0,l),
(683,0,l),
(683,700,l),
(663,700,l),
(663,23,l),
(674,23,l),
(150,700,l),
(133,700,l),
(133,0,l)
);
}
);
width = 816;
}
);
leftKerningGroup = H;
rightKerningGroup = H;
unicode = 78;
}
{
color = 3;
glyphname = O;
layers = (
{
anchors = (
{
name = bottom;
position = "{424, 0}";
},
{
name = center;
position = "{424, 350}";
},
{
name = ogonek;
position = "{547, 0}";
},
{
name = top;
position = "{424, 700}";
},
{
name = topleft;
position = "{34, 700}";
},
{
name = topright;
position = "{590, 700}";
}
);
guides = (
{
angle = 90;
position = "{819, 0}";
}
);
layerId = "1D080760-4FD1-465A-AE80-6E2F24185885";
shapes = (
{
closed = 1;
nodes = (
(652,-16,o),
(819,138,o),
(819,350,cs),
(819,562,o),
(652,716,o),
(424,716,cs),
(196,716,o),
(29,562,o),
(29,350,cs),
(29,138,o),
(196,-16,o),
(424,-16,cs)
);
},
{
closed = 1;
nodes = (
(337,175,o),
(267,241,o),
(267,350,cs),
(267,459,o),
(337,525,o),
(424,525,cs),
(511,525,o),
(581,459,o),
(581,350,cs),
(581,241,o),
(511,175,o),
(424,175,cs)
);
}
);
width = 848;
},
{
anchors = (
{
name = bottom;
position = "{421, 0}";
},
{
name = center;
position = "{421, 350}";
},
{
name = ogonek;
position = "{503, 0}";
},
{
name = top;
position = "{421, 700}";
},
{
name = topleft;
position = "{48, 700}";
},
{
name = topright;
position = "{633, 700}";
}
);
background = {
shapes = (
{
closed = 1;
nodes = (
(636,-9,o),
(795,143,o),
(795,350,cs),
(795,557,o),
(636,709,o),
(421,709,cs),
(206,709,o),
(46,557,o),
(46,350,cs),
(46,143,o),
(206,-9,o),
(421,-9,cs)
);
},
{
closed = 1;
nodes = (
(274,93,o),
(161,199,o),
(161,350,cs),
(161,501,o),
(274,607,o),
(421,607,cs),
(567,607,o),
(680,501,o),
(680,350,cs),
(680,199,o),
(567,93,o),
(421,93,cs)
);
}
);
};
layerId = "BF88A9B2-CED4-4B03-8FC2-F1361A8F7788";
shapes = (
{
closed = 1;
nodes = (
(636,-9,o),
(795,143,o),
(795,350,cs),
(795,557,o),
(636,709,o),
(421,709,cs),
(205,709,o),
(46,556,o),
(46,350,cs),
(46,144,o),
(205,-9,o),
(421,-9,cs)
);
},
{
closed = 1;
nodes = (
(271,93,o),
(161,202,o),
(161,350,cs),
(161,498,o),
(271,607,o),
(421,607,cs),
(570,607,o),
(680,498,o),
(680,350,cs),
(680,202,o),
(570,93,o),
(421,93,cs)
);
}
);
width = 841;
},
{
anchors = (
{
name = bottom;
position = "{418, 0}";
},
{
name = center;
position = "{418, 350}";
},
{
name = ogonek;
position = "{469, 0}";
},
{
name = top;
position = "{418, 700}";
},
{
name = topleft;
position = "{59, 700}";
},
{
name = topright;
position = "{667, 700}";
}
);
guides = (
{
angle = 90;
position = "{777, 0}";
}
);
layerId = "BE9EF097-1901-49F4-A2DE-F2A985D0844B";
shapes = (
{
closed = 1;
nodes = (
(623,-3,o),
(777,148,o),
(777,350,cs),
(777,552,o),
(623,703,o),
(418,703,cs),
(213,703,o),
(59,552,o),
(59,350,cs),
(59,148,o),
(213,-3,o),
(418,-3,cs)
);
},
{
closed = 1;
nodes = (
(225,16,o),
(79,159,o),
(79,350,cs),
(79,541,o),
(225,684,o),
(418,684,cs),
(611,684,o),
(757,541,o),
(757,350,cs),
(757,159,o),
(611,16,o),
(418,16,cs)
);
}
);
width = 836;
}
);
leftKerningGroup = O;
rightKerningGroup = O;
unicode = 79;
}
{
color = 3;
glyphname = P;
layers = (
{
layerId = "1D080760-4FD1-465A-AE80-6E2F24185885";
shapes = (
{
closed = 1;
nodes = (
(57,700,l),
(394,700,ls),
(589,700,o),
(713,598,o),
(713,436,cs),
(713,274,o),
(589,172,o),
(394,172,cs),
(188,172,l),
(293,273,l),
(293,0,l),
(57,0,l),
(57,354,l),
(293,354,l),
(293,247,l),
(188,354,l),
(379,354,ls),
(444,354,o),
(475,385,o),
(475,436,cs),
(475,487,o),
(444,518,o),
(379,518,cs),
(57,518,l)
);
}
);
width = 743;
},
{
background = {
shapes = (
{
closed = 1;
nodes = (
(214,0,l),
(214,261,l),
(163,207,l),
(380,207,ls),
(563,207,o),
(675,300,o),
(675,453,cs),
(675,607,o),
(563,700,o),
(380,700,cs),
(100,700,l),
(100,0,l)
);
},
{
closed = 1;
nodes = (
(214,658,l),
(163,602,l),
(375,602,ls),
(496,602,o),
(559,547,o),
(559,453,cs),
(559,360,o),
(496,305,o),
(375,305,cs),
(163,305,l),
(214,249,l)
);
}
);
};
layerId = "BF88A9B2-CED4-4B03-8FC2-F1361A8F7788";
shapes = (
{
closed = 1;
nodes = (
(214,306,l),
(214,249,l),
(163,306,l),
(376,306,ls),
(497,306,o),
(560,360,o),
(560,453,cs),
(560,547,o),
(497,601,o),
(376,601,cs),
(100,601,l),
(101,700,l),
(380,700,ls),
(563,700,o),
(675,607,o),
(675,453,cs),
(675,300,o),
(563,207,o),
(380,207,cs),
(163,207,l),
(214,261,l),
(214,0,l),
(100,0,l),
(100,306,l)
);
}
);
width = 724;
},
{
layerId = "BE9EF097-1901-49F4-A2DE-F2A985D0844B";
shapes = (
{
closed = 1;
nodes = (
(153,259,l),
(153,251,l),
(144,259,l),
(372,259,ls),
(536,259,o),
(625,336,o),
(625,470,cs),
(625,604,o),
(536,681,o),
(372,681,cs),
(133,681,l),
(133,700,l),
(370,700,ls),
(542,700,o),
(645,615,o),
(645,470,cs),
(645,325,o),
(542,240,o),
(370,240,cs),
(144,240,l),
(153,249,l),
(153,0,l),
(133,0,l),
(133,259,l)
);
}
);
width = 710;
}
);
leftKerningGroup = H;
rightKerningGroup = P;
unicode = 80;
}
{
color = 3;
glyphname = Q;
layers = (
{
anchors = (
{
name = top;
position = "{425, 700}";
}
);
layerId = "1D080760-4FD1-465A-AE80-6E2F24185885";
shapes = (
{
closed = 1;
nodes = (
(652,-16,o),
(819,138,o),
(819,350,cs),
(819,562,o),
(652,716,o),
(424,716,cs),
(196,716,o),
(29,562,o),
(29,350,cs),
(29,138,o),
(196,-16,o),
(424,-16,cs)
);
},
{
closed = 1;
nodes = (
(546,-177,l),
(546,-177,o),
(546,262.5,o),
(546,263,c),
(302,263,l),
(302,262.5,o),
(302,-177,o),
(302,-177,c)
);
},
{
closed = 1;
nodes = (
(337,175,o),
(267,241,o),
(267,350,cs),
(267,459,o),
(337,525,o),
(424,525,cs),
(511,525,o),
(581,459,o),
(581,350,cs),
(581,241,o),
(511,175,o),
(424,175,cs)
);
}
);
width = 848;
},
{
anchors = (
{
name = top;
position = "{421, 700}";
}
);
background = {
shapes = (
{
closed = 1;
nodes = (
(636,-9,o),
(795,143,o),
(795,350,cs),
(795,557,o),
(636,709,o),
(421,709,cs),
(206,709,o),
(46,557,o),
(46,350,cs),
(46,143,o),
(206,-9,o),
(421,-9,cs)
);
},
{
closed = 1;
nodes = (
(722,-150,o),
(784,-121,o),
(829,-67,c),
(776,-2,l),
(741,-41,o),
(700,-60,o),
(652,-60,cs),
(599,-60,o),
(551,-32,o),
(493,43,c),
(371,11,l),
(480,-108,o),
(553,-150,o),
(650,-150,cs)
);
},
{
closed = 1;
nodes = (
(274,93,o),
(161,200,o),
(161,350,cs),
(161,500,o),
(274,607,o),
(421,607,cs),
(567,607,o),
(680,500,o),
(680,350,cs),
(680,200,o),
(567,93,o),
(421,93,cs)
);
}
);
};
layerId = "BF88A9B2-CED4-4B03-8FC2-F1361A8F7788";
shapes = (
{
closed = 1;
nodes = (
(636,-9,o),
(795,143,o),
(795,350,cs),
(795,557,o),
(636,709,o),
(421,709,cs),
(205,709,o),
(46,556,o),
(46,350,cs),
(46,144,o),
(205,-9,o),
(421,-9,cs)
);
},
{
closed = 1;
nodes = (
(493,-150,l),
(493,-154,o),
(493,221.5,o),
(493,222,c),
(371,222,l),
(371,221.5,o),
(371,-150,o),
(371,-150,c)
);
},
{
closed = 1;
nodes = (
(271,93,o),
(161,202,o),
(161,350,cs),
(161,498,o),
(271,607,o),
(421,607,cs),
(570,607,o),
(680,498,o),
(680,350,cs),
(680,202,o),
(570,93,o),
(421,93,cs)
);
}
);
width = 841;
},
{
anchors = (
{
name = top;
position = "{418, 700}";
}
);
layerId = "BE9EF097-1901-49F4-A2DE-F2A985D0844B";
shapes = (
{
closed = 1;
nodes = (
(623,-3,o),
(777,148,o),
(777,350,cs),
(777,552,o),
(623,703,o),
(418,703,cs),
(213,703,o),
(59,552,o),
(59,350,cs),
(59,148,o),
(213,-3,o),
(418,-3,cs)
);
},
{
closed = 1;
nodes = (
(431,-124,l),
(431,-124,o),
(431,183,o),
(431,183,c),
(405,183,l),
(405,183,o),
(405,-124,o),
(405,-124,c)
);
},
{
closed = 1;
nodes = (
(225,16,o),
(79,161,o),
(79,350,cs),
(79,539,o),
(225,684,o),
(418,684,cs),
(611,684,o),
(757,539,o),
(757,350,cs),
(757,161,o),
(611,16,o),
(418,16,cs)
);
}
);
width = 836;
}
);
leftKerningGroup = O;
rightKerningGroup = O;
unicode = 81;
}
{
color = 3;
glyphname = R;
layers = (
{
anchors = (
{
name = bottom;
position = "{379, 0}";
},
{
name = top;
position = "{379, 700}";
}
);
layerId = "1D080760-4FD1-465A-AE80-6E2F24185885";
shapes = (
{
closed = 1;
nodes = (
(57,700,l),
(57,518,l),
(379,518,ls),
(444,518,o),
(475,487,o),
(475,436,cs),
(475,385,o),
(444,354,o),
(379,354,cs),
(188,354,l),
(293,247,l),
(293,354,l),
(57,354,l),
(57,0,l),
(293,0,l),
(293,273,l),
(188,176,l),
(394,176,ls),
(589,176,o),
(713,274,o),
(713,436,cs),
(713,598,o),
(589,700,o),
(394,700,cs)
);
},
{
closed = 1;
nodes = (
(728,0,l),
(554,255,l),
(304,255,l),
(476,0,l)
);
}
);
width = 745;
},
{
anchors = (
{
name = bottom;
position = "{372, 0}";
},
{
name = top;
position = "{372, 700}";
}
);
background = {
shapes = (
{
closed = 1;
nodes = (
(214,0,l),
(214,261,l),
(163,209,l),
(380,209,ls),
(563,209,o),
(675,300,o),
(675,453,cs),
(675,607,o),
(563,700,o),
(380,700,cs),
(100,700,l),
(100,0,l)
);
},
{
closed = 1;
nodes = (
(687,0,l),
(508,254,l),
(385,254,l),
(563,0,l)
);
},
{
closed = 1;
nodes = (
(214,658,l),
(163,602,l),
(375,602,ls),
(496,602,o),
(559,547,o),
(559,453,cs),
(559,360,o),
(496,305,o),
(375,305,cs),
(163,305,l),
(214,249,l)
);
}
);
};
layerId = "BF88A9B2-CED4-4B03-8FC2-F1361A8F7788";
shapes = (
{
closed = 1;
nodes = (
(100,700,l),
(100,601,l),
(376,601,ls),
(497,601,o),
(560,547,o),
(560,453,cs),
(560,360,o),
(497,305,o),
(376,305,cs),
(163,305,l),
(214,249,l),
(214,305,l),
(100,305,l),
(100,0,l),
(214,0,l),
(214,261,l),
(163,208,l),
(380,208,ls),
(563,208,o),
(675,300,o),
(675,453,cs),
(675,607,o),
(563,700,o),
(380,700,cs)
);
},
{
closed = 1;
nodes = (
(687,0,l),
(508,254,l),
(385,254,l),
(563,0,l)
);
}
);
width = 729;
},
{
anchors = (
{
name = bottom;
position = "{366, 0}";
},
{
name = top;
position = "{366, 700}";
}
);
layerId = "BE9EF097-1901-49F4-A2DE-F2A985D0844B";
shapes = (
{
closed = 1;
nodes = (
(655,0,l),
(472,254,l),
(447,254,l),
(630,0,l)
);
},
{
closed = 1;
nodes = (
(133,700,l),
(133,681,l),
(372,681,ls),
(536,681,o),
(625,604,o),
(625,470,cs),
(625,336,o),
(536,259,o),
(372,259,cs),
(144,259,l),
(153,251,l),
(153,259,l),
(133,259,l),
(133,0,l),
(153,0,l),
(153,249,l),
(144,240,l),
(370,240,ls),
(542,240,o),
(645,325,o),
(645,470,cs),
(645,615,o),
(542,700,o),
(370,700,cs)
);
}
);
width = 716;
}
);
leftKerningGroup = H;
rightKerningGroup = R;
unicode = 82;
}
{
color = 3;
glyphname = S;
layers = (
{
anchors = (
{
name = bottom;
position = "{329, 0}";
},
{
name = top;
position = "{329, 700}";
}
);
layerId = "1D080760-4FD1-465A-AE80-6E2F24185885";
shapes = (
{
closed = 1;
nodes = (
(535,-16,o),
(644,92,o),
(644,220,cs),
(644,478,o),
(257,408,o),
(257,492,cs),
(257,516,o),
(279,536,o),
(348,536,cs),
(409,536,o),
(474,519,o),
(543,484,c),
(614,655,l),
(541,696,o),
(444,716,o),
(350,716,cs),
(133,716,o),
(24,610,o),
(24,480,cs),
(24,219,o),
(411,290,o),
(411,202,cs),
(411,178,o),
(387,164,o),
(320,164,cs),
(243,164,o),
(155,189,o),
(89,228,c),
(13,56,l),
(83,13,o),
(201,-16,o),
(318,-16,cs)
);
}
);
width = 657;
},
{
anchors = (
{
name = bottom;
position = "{323, 0}";
},
{
name = top;
position = "{323, 700}";
}
);
background = {
shapes = (
{
closed = 1;
nodes = (
(498,-9,o),
(587,85,o),
(587,195,cs),
(587,451,o),
(167,347,o),
(167,509,cs),
(167,566,o),
(215,612,o),
(328,612,cs),
(390,612,o),
(459,594,o),
(521,556,c),
(558,647,l),
(498,687,o),
(412,709,o),
(329,709,cs),
(141,709,o),
(54,615,o),
(54,504,cs),
(54,245,o),
(474,350,o),
(474,187,cs),
(474,131,o),
(425,88,o),
(310,88,cs),
(222,88,o),
(133,121,o),
(79,167,c),
(38,77,l),
(95,26,o),
(202,-9,o),
(310,-9,cs)
);
}
);
};
layerId = "BF88A9B2-CED4-4B03-8FC2-F1361A8F7788";
shapes = (
{
closed = 1;
nodes = (
(498,-9,o),
(587,85,o),
(587,195,cs),
(587,452,o),
(167,350,o),
(167,509,cs),
(167,566,o),
(215,612,o),
(328,612,cs),
(390,612,o),
(459,594,o),
(521,556,c),
(558,647,l),
(498,687,o),
(412,709,o),
(329,709,cs),
(141,709,o),
(54,615,o),
(54,504,cs),
(54,244,o),
(474,347,o),
(474,187,cs),
(474,131,o),
(425,88,o),
(310,88,cs),
(222,88,o),
(133,121,o),
(79,167,c),
(38,77,l),
(95,26,o),
(202,-9,o),
(310,-9,cs)
);
}
);
width = 625;
},
{
anchors = (
{
name = bottom;
position = "{318, 0}";
},
{
name = top;
position = "{318, 700}";
}
);
layerId = "BE9EF097-1901-49F4-A2DE-F2A985D0844B";
shapes = (
{
closed = 1;
nodes = (
(470,-3,o),
(543,79,o),
(543,172,cs),
(543,425,o),
(98,290,o),
(98,526,cs),
(98,613,o),
(166,684,o),
(313,684,cs),
(376,684,o),
(448,664,o),
(504,623,c),
(515,639,l),
(464,678,o),
(387,703,o),
(312,703,cs),
(148,703,o),
(78,619,o),
(78,527,cs),
(78,269,o),
(523,407,o),
(523,172,cs),
(523,86,o),
(455,16,o),
(303,16,cs),
(205,16,o),
(116,57,o),
(72,109,c),
(58,96,l),
(105,38,o),
(202,-3,o),
(304,-3,cs)
);
}
);
width = 601;
}
);
leftKerningGroup = S;
rightKerningGroup = S;
unicode = 83;
}
{
glyphname = T;
layers = (
{
anchors = (
{
name = bottom;
position = "{327, 0}";
},
{
name = center;
position = "{327, 315}";
},
{
name = top;
position = "{327, 700}";
}
);
layerId = "1D080760-4FD1-465A-AE80-6E2F24185885";
shapes = (
{
closed = 1;
nodes = (
(445,0,l),
(445,517,l),
(650,517,l),
(650,700,l),
(4,700,l),
(4,517,l),
(209,517,l),
(209,0,l)
);
}
);
width = 654;
},
{
anchors = (
{
name = bottom;
position = "{297, 0}";
},
{
name = center;
position = "{297, 336}";
},
{
name = top;
position = "{297, 700}";
}
);
background = {
shapes = (
{
closed = 1;
nodes = (
(354,0,l),
(354,601,l),
(590,601,l),
(590,700,l),
(4,700,l),
(4,601,l),
(240,601,l),
(240,0,l)
);
}
);
};
layerId = "BF88A9B2-CED4-4B03-8FC2-F1361A8F7788";
shapes = (
{
closed = 1;
nodes = (
(354,0,l),
(354,601,l),
(590,601,l),
(590,700,l),
(4,700,l),
(4,601,l),
(240,601,l),
(240,0,l)
);
}
);
width = 594;
},
{
anchors = (
{
name = bottom;
position = "{274, 0}";
},
{
name = center;
position = "{274, 356}";
},
{
name = top;
position = "{274, 700}";
}
);
layerId = "BE9EF097-1901-49F4-A2DE-F2A985D0844B";
shapes = (
{
closed = 1;
nodes = (
(284,0,l),
(284,681,l),
(544,681,l),
(544,700,l),
(4,700,l),
(4,681,l),
(264,681,l),
(264,0,l)
);
}
);
width = 548;
}
);
leftKerningGroup = T;
rightKerningGroup = T;
unicode = 84;
}
{
color = 3;
glyphname = U;
layers = (
{
anchors = (
{
name = bottom;
position = "{394, 0}";
},
{
name = ogonek;
position = "{620, 0}";
},
{
name = top;
position = "{394, 700}";
},
{
name = topright;
position = "{640, 700}";
}
);
layerId = "50D943A8-B490-4162-9D4B-803713767B01";
shapes = (
{
closed = 1;
nodes = (
(607,-16,o),
(733,105,o),
(733,315,cs),
(733,700,l),
(501,700,l),
(501,322,ls),
(501,215,o),
(460,175,o),
(394,175,cs),
(328,175,o),
(287,215,o),
(287,322,cs),
(287,700,l),
(51,700,l),
(51,315,ls),
(51,105,o),
(177,-16,o),
(392,-16,cs)
);
}
);
width = 784;
},
{
anchors = (
{
name = bottom;
position = "{396, 0}";
},
{
name = ogonek;
position = "{599, 0}";
},
{
name = top;
position = "{396, 700}";
},
{
name = topright;
position = "{658, 700}";
}
);
background = {
shapes = (
{
closed = 1;
nodes = (
(583,-9,o),
(696,100,o),
(696,304,cs),
(696,700,l),
(583,700,l),
(583,308,ls),
(583,159,o),
(514,93,o),
(396,93,cs),
(277,93,o),
(208,159,o),
(208,308,cs),
(208,700,l),
(94,700,l),
(94,304,ls),
(94,100,o),
(207,-9,o),
(395,-9,cs)
);
}
);
};
layerId = "5922F47A-F449-4984-8091-CB5BAF0F3D6E";
shapes = (
{
closed = 1;
nodes = (
(583,-9,o),
(696,100,o),
(696,304,cs),
(696,700,l),
(584,700,l),
(584,308,ls),
(584,159,o),
(516,93,o),
(396,93,cs),
(276,93,o),
(208,159,o),
(208,308,cs),
(208,700,l),
(94,700,l),
(94,304,ls),
(94,100,o),
(207,-9,o),
(395,-9,cs)
);
}
);
width = 790;
},
{
anchors = (
{
name = bottom;
position = "{397, 0}";
},
{
name = ogonek;
position = "{583, 0}";
},
{
name = top;
position = "{397, 700}";
},
{
name = topright;
position = "{672, 700}";
}
);
layerId = "09D0C439-80D3-4C25-AAD4-493BFD6E371F";
shapes = (
{
closed = 1;
nodes = (
(564,-3,o),
(667,95,o),
(667,293,cs),
(667,700,l),
(647,700,l),
(647,294,ls),
(647,107,o),
(556,16,o),
(397,16,cs),
(238,16,o),
(147,107,o),
(147,294,cs),
(147,700,l),
(127,700,l),
(127,293,ls),
(127,95,o),
(230,-3,o),
(397,-3,cs)
);
}
);
width = 794;
}
);
leftKerningGroup = U;
rightKerningGroup = U;
unicode = 85;
}
{
glyphname = V;
layers = (
{
guides = (
{
angle = 113.612;
position = "{368, 350}";
}
);
layerId = "50D943A8-B490-4162-9D4B-803713767B01";
shapes = (
{
closed = 1;
nodes = (
(509,0,l),
(805,700,l),
(573,700,l),
(325,109,l),
(476,109,l),
(235,700,l),
(-19,700,l),
(277,0,l)
);
}
);
width = 786;
},
{
background = {
shapes = (
{
closed = 1;
nodes = (
(417,0,l),
(723,700,l),
(609,700,l),
(328,61,l),
(399,61,l),
(121,700,l),
(-3,700,l),
(304,0,l)
);
}
);
};
layerId = "5922F47A-F449-4984-8091-CB5BAF0F3D6E";
shapes = (
{
closed = 1;
nodes = (
(417,0,l),
(723,700,l),
(609,700,l),
(328,61,l),
(399,61,l),
(121,700,l),
(-3,700,l),
(304,0,l)
);
}
);
width = 720;
},
{
layerId = "09D0C439-80D3-4C25-AAD4-493BFD6E371F";
shapes = (
{
closed = 1;
nodes = (
(345,0,l),
(660,700,l),
(637,700,l),
(330,16,l),
(340,16,l),
(33,700,l),
(10,700,l),
(325,0,l)
);
}
);
width = 670;
}
);
leftKerningGroup = V;
rightKerningGroup = V;
unicode = 86;
}
{
glyphname = W;
layers = (
{
anchors = (
{
name = bottom;
position = "{603, 0}";
},
{
name = top;
position = "{603, 700}";
}
);
layerId = "50D943A8-B490-4162-9D4B-803713767B01";
shapes = (
{
closed = 1;
nodes = (
(487,0,l),
(641,484,l),
(573,484,l),
(719,0,l),
(972,0,l),
(1196,700,l),
(972,700,l),
(783,109,l),
(900,109,l),
(721,700,l),
(504,700,l),
(312,109,l),
(434,109,l),
(253,700,l),
(10,700,l),
(234,0,l)
);
}
);
width = 1206;
},
{
anchors = (
{
name = bottom;
position = "{568, 0}";
},
{
name = top;
position = "{568, 700}";
}
);
background = {
shapes = (
{
closed = 1;
nodes = (
(385,0,l),
(585,584,l),
(553,584,l),
(751,0,l),
(872,0,l),
(1105,700,l),
(996,700,l),
(781,61,l),
(838,61,l),
(625,700,l),
(519,700,l),
(300,61,l),
(359,61,l),
(148,700,l),
(30,700,l),
(263,0,l)
);
}
);
};
layerId = "5922F47A-F449-4984-8091-CB5BAF0F3D6E";
shapes = (
{
closed = 1;
nodes = (
(385,0,l),
(585,584,l),
(553,584,l),
(751,0,l),
(872,0,l),
(1105,700,l),
(996,700,l),
(781,61,l),
(838,61,l),
(625,700,l),
(519,700,l),
(300,61,l),
(359,61,l),
(148,700,l),
(30,700,l),
(263,0,l)
);
}
);
width = 1135;
},
{
anchors = (
{
name = bottom;
position = "{540, 0}";
},
{
name = top;
position = "{540, 700}";
}
);
layerId = "09D0C439-80D3-4C25-AAD4-493BFD6E371F";
shapes = (
{
closed = 1;
nodes = (
(305,0,l),
(542,678,l),
(538,678,l),
(775,0,l),
(795,0,l),
(1035,700,l),
(1014,700,l),
(780,16,l),
(790,16,l),
(550,700,l),
(530,700,l),
(290,16,l),
(301,16,l),
(67,700,l),
(45,700,l),
(285,0,l)
);
}
);
width = 1080;
}
);
leftKerningGroup = V;
rightKerningGroup = V;
unicode = 87;
}
{
glyphname = X;
layers = (
{
layerId = "1D080760-4FD1-465A-AE80-6E2F24185885";
shapes = (
{
closed = 1;
nodes = (
(261,0,l),
(433,273,l),
(324,272,l),
(500,0,l),
(770,0,l),
(453,444,l),
(453,280,l),
(755,700,l),
(501,700,l),
(329,439,l),
(442,440,l),
(266,700,l),
(1,700,l),
(303,271,l),
(304,436,l),
(-8,0,l)
);
}
);
width = 762;
},
{
background = {
shapes = (
{
closed = 1;
nodes = (
(142,0,l),
(365,313,l),
(314,313,l),
(540,0,l),
(672,0,l),
(378,404,l),
(378,320,l),
(654,700,l),
(530,700,l),
(317,405,l),
(370,406,l),
(156,700,l),
(26,700,l),
(304,314,l),
(304,402,l),
(11,0,l)
);
}
);
};
layerId = "BF88A9B2-CED4-4B03-8FC2-F1361A8F7788";
shapes = (
{
closed = 1;
nodes = (
(142,0,l),
(365,313,l),
(314,313,l),
(540,0,l),
(672,0,l),
(378,404,l),
(378,320,l),
(654,700,l),
(530,700,l),
(317,405,l),
(370,406,l),
(156,700,l),
(26,700,l),
(304,314,l),
(304,402,l),
(11,0,l)
);
}
);
width = 683;
},
{
layerId = "BE9EF097-1901-49F4-A2DE-F2A985D0844B";
shapes = (
{
closed = 1;
nodes = (
(49,0,l),
(313,351,l),
(307,351,l),
(571,0,l),
(596,0,l),
(320,366,l),
(320,358,l),
(576,700,l),
(552,700,l),
(308,373,l),
(314,373,l),
(70,700,l),
(45,700,l),
(304,354,l),
(304,370,l),
(25,0,l)
);
}
);
width = 621;
}
);
leftKerningGroup = X;
rightKerningGroup = X;
unicode = 88;
}
{
glyphname = Y;
layers = (
{
anchors = (
{
name = bottom;
position = "{355, 0}";
},
{
name = center;
position = "{349, 266}";
},
{
name = top;
position = "{355, 700}";
}
);
layerId = "50D943A8-B490-4162-9D4B-803713767B01";
shapes = (
{
closed = 1;
nodes = (
(473,0,l),
(473,307,l),
(421,166,l),
(737,700,l),
(509,700,l),
(292,335,l),
(437,335,l),
(222,700,l),
(-27,700,l),
(291,166,l),
(237,307,l),
(237,0,l)
);
}
);
width = 710;
},
{
anchors = (
{
name = bottom;
position = "{327, 0}";
},
{
name = center;
position = "{324, 251}";
},
{
name = top;
position = "{327, 700}";
}
);
background = {
shapes = (
{
closed = 1;
nodes = (
(384,0,l),
(384,275,l),
(358,199,l),
(660,700,l),
(547,700,l),
(297,293,l),
(365,293,l),
(116,700,l),
(-6,700,l),
(296,199,l),
(270,275,l),
(270,0,l)
);
}
);
};
layerId = "5922F47A-F449-4984-8091-CB5BAF0F3D6E";
shapes = (
{
closed = 1;
nodes = (
(384,0,l),
(384,272,l),
(358,202,l),
(660,700,l),
(547,700,l),
(297,289,l),
(365,289,l),
(116,700,l),
(-6,700,l),
(296,202,l),
(270,272,l),
(270,0,l)
);
}
);
width = 654;
},
{
anchors = (
{
name = bottom;
position = "{305, 0}";
},
{
name = center;
position = "{305, 240}";
},
{
name = top;
position = "{305, 700}";
}
);
layerId = "09D0C439-80D3-4C25-AAD4-493BFD6E371F";
shapes = (
{
closed = 1;
nodes = (
(315,0,l),
(315,245,l),
(310,230,l),
(600,700,l),
(577,700,l),
(301,253,l),
(309,253,l),
(33,700,l),
(10,700,l),
(300,230,l),
(295,245,l),
(295,0,l)
);
}
);
width = 610;
}
);
leftKerningGroup = Y;
rightKerningGroup = Y;
unicode = 89;
}
{
glyphname = Z;
layers = (
{
anchors = (
{
name = bottom;
position = "{354, 0}";
},
{
name = top;
position = "{354, 700}";
}
);
layerId = "50D943A8-B490-4162-9D4B-803713767B01";
shapes = (
{
closed = 1;
nodes = (
(675,0,l),
(675,183,l),
(240,183,l),
(269,101,l),
(659,555,l),
(659,700,l),
(42,700,l),
(42,517,l),
(451,517,l),
(422,599,l),
(32,145,l),
(32,0,l)
);
}
);
width = 687;
},
{
anchors = (
{
name = bottom;
position = "{343, 0}";
},
{
name = top;
position = "{338, 700}";
}
);
background = {
shapes = (
{
closed = 1;
nodes = (
(633,0,l),
(633,99,l),
(145,99,l),
(159,55,l),
(620,622,l),
(620,700,l),
(49,700,l),
(49,601,l),
(517,601,l),
(504,645,l),
(42,78,l),
(42,0,l)
);
}
);
};
layerId = "5922F47A-F449-4984-8091-CB5BAF0F3D6E";
shapes = (
{
closed = 1;
nodes = (
(633,0,l),
(633,99,l),
(145,99,l),
(159,55,l),
(620,622,l),
(620,700,l),
(49,700,l),
(49,601,l),
(517,601,l),
(504,645,l),
(42,78,l),
(42,0,l)
);
}
);
width = 660;
},
{
anchors = (
{
name = bottom;
position = "{335, 0}";
},
{
name = top;
position = "{325, 700}";
}
);
layerId = "09D0C439-80D3-4C25-AAD4-493BFD6E371F";
shapes = (
{
closed = 1;
nodes = (
(600,0,l),
(600,19,l),
(72,19,l),
(73,12,l),
(590,685,l),
(590,700,l),
(55,700,l),
(55,681,l),
(568,681,l),
(567,688,l),
(50,15,l),
(50,0,l)
);
}
);
width = 639;
}
);
leftKerningGroup = Z;
rightKerningGroup = Z;
unicode = 90;
}
{
color = 3;
glyphname = bracketleft;
layers = (
{
layerId = "7E8CEF00-BA92-44DC-84AA-76D218B9B77C";
name = Light.Bold;
shapes = (
{
closed = 1;
nodes = (
(339,757,l),
(270,759,l),
(249,759,o),
(238,756,o),
(228,756,c),
(156,747,o),
(103,712,o),
(103,607,cs),
(103,416,ls),
(103,368,o),
(81,391,o),
(43,390,c),
(47,338,o),
(52,287,o),
(56,234,c),
(57,232,o),
(58,232,o),
(62,233,cs),
(88,236,o),
(103,252,o),
(103,207,cs),
(103,12,ls),
(103,-111,o),
(203,-135,o),
(270,-135,c),
(293,-135,o),
(316,-134,o),
(339,-134,c),
(332,20,l),
(278,20,o),
(274,33,o),
(274,36,cs),
(274,47,o),
(274,59,o),
(274,70,cs),
(274,207,ls),
(274,261,o),
(277,279,o),
(251,312,c),
(257,315,o),
(259,321,o),
(262,327,cs),
(275,356,o),
(274,368,o),
(274,421,cs),
(274,581,ls),
(274,606,o),
(294,608,o),
(314,606,cs),
(320,605,o),
(326,603,o),
(332,603,c)
);
}
);
width = 385;
},
{
layerId = "1D080760-4FD1-465A-AE80-6E2F24185885";
shapes = (
{
closed = 1;
nodes = (
(400,-194,l),
(400,-24,l),
(283,-24,l),
(283,572,l),
(400,572,l),
(400,742,l),
(57,742,l),
(57,-194,l)
);
}
);
width = 410;
},
{
background = {
shapes = (
{
closed = 1;
nodes = (
(323,-194,l),
(323,-102,l),
(210,-102,l),
(210,650,l),
(323,650,l),
(323,742,l),
(100,742,l),
(100,-194,l)
);
}
);
};
layerId = "BF88A9B2-CED4-4B03-8FC2-F1361A8F7788";
shapes = (
{
closed = 1;
nodes = (
(323,-194,l),
(323,-104,l),
(210,-104,l),
(210,652,l),
(323,652,l),
(323,742,l),
(100,742,l),
(100,-194,l)
);
}
);
width = 341;
},
{
layerId = "BE9EF097-1901-49F4-A2DE-F2A985D0844B";
shapes = (
{
closed = 1;
nodes = (
(263,-194,l),
(263,-175,l),
(153,-175,l),
(153,723,l),
(263,723,l),
(263,742,l),
(133,742,l),
(133,-194,l)
);
}
);
width = 288;
}
);
leftKerningGroup = bracketleft;
rightKerningGroup = braceleft;
unicode = 91;
}
{
glyphname = backslash;
layers = (
{
layerId = "1D080760-4FD1-465A-AE80-6E2F24185885";
shapes = (
{
closed = 1;
nodes = (
(150,842,l),
(-50,842,l),
(280,-100,l),
(480,-100,l)
);
}
);
width = 440;
},
{
background = {
shapes = (
{
closed = 1;
nodes = (
(60,842,l),
(-39,842,l),
(291,-100,l),
(390,-100,l)
);
}
);
};
layerId = "BF88A9B2-CED4-4B03-8FC2-F1361A8F7788";
shapes = (
{
closed = 1;
nodes = (
(60,842,l),
(-39,842,l),
(291,-100,l),
(390,-100,l)
);
}
);
width = 361;
},
{
layerId = "BE9EF097-1901-49F4-A2DE-F2A985D0844B";
shapes = (
{
closed = 1;
nodes = (
(-10,842,l),
(-30,842,l),
(300,-100,l),
(320,-100,l)
);
}
);
width = 300;
}
);
leftKerningGroup = backslash;
rightKerningGroup = backslash;
unicode = 92;
}
{
color = 3;
glyphname = bracketright;
layers = (
{
layerId = "7E8CEF00-BA92-44DC-84AA-76D218B9B77C";
name = Light.Bold;
shapes = (
{
closed = 1;
nodes = (
(53,603,l),
(108,603,o),
(111,591,o),
(111,587,cs),
(111,415,ls),
(111,361,o),
(109,350,o),
(122,321,cs),
(125,315,o),
(127,308,o),
(134,306,c),
(108,280,o),
(111,254,o),
(111,200,cs),
(111,42,ls),
(111,12,o),
(88,10,o),
(63,14,c),
(59,18,o),
(57,20,o),
(53,20,c),
(46,-134,l),
(69,-134,o),
(92,-135,o),
(115,-135,c),
(160,-135,o),
(213,-125,o),
(246,-75,c),
(260,-55,o),
(282,-23,o),
(282,27,cs),
(282,199,ls),
(282,244,o),
(295,229,o),
(323,227,c),
(325,226,o),
(326,226,o),
(327,226,c),
(331,226,o),
(340,359,o),
(341,383,c),
(304,384,o),
(282,361,o),
(282,408,cs),
(282,611,ls),
(282,739,o),
(192,758,o),
(115,755,c),
(99,753,o),
(81,754,o),
(59,755,c),
(60,757,o),
(58,759,o),
(46,759,c),
(46,741,o),
(46,723,o),
(46,705,c)
);
}
);
width = 385;
},
{
layerId = "1D080760-4FD1-465A-AE80-6E2F24185885";
shapes = (
{
closed = 1;
nodes = (
(353,742,l),
(10,742,l),
(10,572,l),
(127,572,l),
(127,-24,l),
(10,-24,l),
(10,-194,l),
(353,-194,l)
);
}
);
width = 410;
},
{
background = {
shapes = (
{
closed = 1;
nodes = (
(241,742,l),
(17,742,l),
(17,650,l),
(131,650,l),
(131,-102,l),
(17,-102,l),
(17,-194,l),
(241,-194,l)
);
}
);
};
layerId = "BF88A9B2-CED4-4B03-8FC2-F1361A8F7788";
shapes = (
{
closed = 1;
nodes = (
(241,742,l),
(18,742,l),
(18,652,l),
(131,652,l),
(131,-104,l),
(18,-104,l),
(18,-194,l),
(241,-194,l)
);
}
);
width = 341;
},
{
layerId = "BE9EF097-1901-49F4-A2DE-F2A985D0844B";
shapes = (
{
closed = 1;
nodes = (
(155,742,l),
(25,742,l),
(25,723,l),
(135,723,l),
(135,-175,l),
(25,-175,l),
(25,-194,l),
(155,-194,l)
);
}
);
width = 288;
}
);
leftKerningGroup = braceright;
rightKerningGroup = bracketright;
unicode = 93;
}
{
glyphname = asciicircum;
layers = (
{
layerId = "1D080760-4FD1-465A-AE80-6E2F24185885";
shapes = (
{
closed = 1;
nodes = (
(206,139,l),
(359,508,l),
(261,508,l),
(414,139,l),
(584,139,l),
(399,561,l),
(221,561,l),
(36,139,l)
);
}
);
width = 620;
},
{
background = {
shapes = (
{
closed = 1;
nodes = (
(158,142,l),
(317,525,l),
(270,525,l),
(429,142,l),
(516,142,l),
(339,558,l),
(249,558,l),
(71,142,l)
);
}
);
};
layerId = "BF88A9B2-CED4-4B03-8FC2-F1361A8F7788";
shapes = (
{
closed = 1;
nodes = (
(158,142,l),
(317,525,l),
(270,525,l),
(429,142,l),
(516,142,l),
(339,558,l),
(249,558,l),
(71,142,l)
);
}
);
width = 587;
},
{
layerId = "BE9EF097-1901-49F4-A2DE-F2A985D0844B";
shapes = (
{
closed = 1;
nodes = (
(121,145,l),
(285,542,l),
(277,542,l),
(441,145,l),
(463,145,l),
(292,555,l),
(270,555,l),
(99,145,l)
);
}
);
width = 562;
}
);
leftKerningGroup = asciicircum;
rightKerningGroup = asciicircum;
unicode = 94;
}
{
color = 3;
glyphname = underscore;
layers = (
{
layerId = "50D943A8-B490-4162-9D4B-803713767B01";
shapes = (
{
closed = 1;
nodes = (
(500,-120,l),
(500,0,l),
(0,0,l),
(0,-120,l)
);
}
);
width = 500;
},
{
background = {
shapes = (
{
closed = 1;
nodes = (
(500,-68,l),
(500,0,l),
(0,0,l),
(0,-68,l)
);
}
);
};
layerId = "5922F47A-F449-4984-8091-CB5BAF0F3D6E";
shapes = (
{
closed = 1;
nodes = (
(500,-70,l),
(500,0,l),
(0,0,l),
(0,-70,l)
);
}
);
width = 500;
},
{
layerId = "09D0C439-80D3-4C25-AAD4-493BFD6E371F";
shapes = (
{
closed = 1;
nodes = (
(500,-19,l),
(500,0,l),
(0,0,l),
(0,-19,l)
);
}
);
width = 500;
}
);
leftKerningGroup = underscore;
rightKerningGroup = underscore;
unicode = 95;
}
{
color = 2;
glyphname = a;
layers = (
{
anchors = (
{
name = bottom;
position = "{298, 0}";
},
{
name = ogonek;
position = "{591, 0}";
},
{
name = top;
position = "{321, 547}";
}
);
layerId = "50D943A8-B490-4162-9D4B-803713767B01";
shapes = (
{
closed = 1;
nodes = (
(591,0,l),
(591,294,ls),
(591,476,o),
(483,557,o),
(295,557,cs),
(210,557,o),
(113,535,o),
(49,495,c),
(121,346,l),
(157,373,o),
(212,389,o),
(261,389,cs),
(334,389,o),
(365,360,o),
(365,307,cs),
(365,123,l),
(381,97,l),
(381,0,l)
);
},
{
closed = 1;
nodes = (
(320,-10,o),
(376,30,o),
(394,111,c),
(365,178,l),
(353,142,o),
(325,126,o),
(294,126,cs),
(260,126,o),
(240,145,o),
(240,170,cs),
(240,200,o),
(261,216,o),
(309,216,cs),
(387,216,l),
(387,325,l),
(273,325,ls),
(103,325,o),
(23,266,o),
(23,160,cs),
(23,66,o),
(92,-10,o),
(226,-10,cs)
);
}
);
width = 639;
},
{
anchors = (
{
name = bottom;
position = "{290, 0}";
},
{
name = ogonek;
position = "{520, 0}";
},
{
name = top;
position = "{294, 532}";
}
);
background = {
shapes = (
{
closed = 1;
nodes = (
(520,0,l),
(520,317,ls),
(520,466,o),
(436,538,o),
(287,538,cs),
(205,538,o),
(121,512,o),
(66,468,c),
(105,389,l),
(146,424,o),
(207,447,o),
(272,447,cs),
(364,447,o),
(410,404,o),
(410,323,cs),
(410,132,l),
(417,110,l),
(417,0,l)
);
},
{
closed = 1;
nodes = (
(340,-6,o),
(405,41,o),
(428,123,c),
(410,163,l),
(386,102,o),
(338,69,o),
(268,69,cs),
(195,69,o),
(153,104,o),
(153,156,cs),
(153,206,o),
(188,240,o),
(275,240,cs),
(426,240,l),
(426,302,l),
(259,302,ls),
(108,302,o),
(47,240,o),
(47,151,cs),
(47,60,o),
(115,-6,o),
(238,-6,cs)
);
}
);
};
layerId = "5922F47A-F449-4984-8091-CB5BAF0F3D6E";
shapes = (
{
closed = 1;
nodes = (
(520,0,l),
(520,316,ls),
(520,466,o),
(434,538,o),
(285,538,cs),
(199,538,o),
(118,515,o),
(62,471,c),
(107,389,l),
(148,422,o),
(211,443,o),
(272,443,cs),
(364,443,o),
(410,398,o),
(410,322,cs),
(410,132,l),
(415,110,l),
(415,0,l)
);
},
{
closed = 1;
nodes = (
(341,-6,o),
(405,29,o),
(430,89,c),
(410,165,l),
(387,108,o),
(331,78,o),
(265,78,cs),
(197,78,o),
(156,108,o),
(156,156,cs),
(156,197,o),
(179,231,o),
(270,231,cs),
(426,231,l),
(426,310,l),
(265,310,ls),
(104,310,o),
(47,239,o),
(47,152,cs),
(47,59,o),
(125,-6,o),
(246,-6,cs)
);
}
);
width = 602;
},
{
anchors = (
{
name = bottom;
position = "{283, 0}";
},
{
name = ogonek;
position = "{465, 0}";
},
{
name = top;
position = "{273, 517}";
}
);
layerId = "09D0C439-80D3-4C25-AAD4-493BFD6E371F";
shapes = (
{
closed = 1;
nodes = (
(465,0,l),
(465,339,ls),
(465,457,o),
(400,520,o),
(280,520,cs),
(202,520,o),
(128,490,o),
(79,443,c),
(93,429,l),
(138,472,o),
(204,501,o),
(281,501,cs),
(388,501,o),
(445,446,o),
(445,338,cs),
(445,140,l),
(445,123,l),
(445,0,l)
);
},
{
closed = 1;
nodes = (
(356,-3,o),
(427,52,o),
(455,135,c),
(445,148,l),
(411,64,o),
(348,16,o),
(248,16,cs),
(145,16,o),
(85,65,o),
(85,143,cs),
(85,212,o),
(131,262,o),
(248,262,cs),
(456,262,l),
(456,281,l),
(249,281,ls),
(111,281,o),
(65,216,o),
(65,142,cs),
(65,55,o),
(132,-3,o),
(248,-3,cs)
);
}
);
width = 574;
}
);
leftKerningGroup = a;
rightKerningGroup = n;
unicode = 97;
}
{
color = 3;
glyphname = b;
layers = (
{
layerId = "1D080760-4FD1-465A-AE80-6E2F24185885";
shapes = (
{
closed = 1;
nodes = (
(558,-10,o),
(679,98,o),
(679,274,cs),
(679,450,o),
(558,557,o),
(415,557,cs),
(272,557,o),
(207,468,o),
(207,274,cs),
(207,77,o),
(264,-10,o),
(415,-10,cs)
);
},
{
closed = 1;
nodes = (
(265,0,l),
(265,74,l),
(266,274,l),
(276,474,l),
(276,742,l),
(50,742,l),
(50,0,l)
);
},
{
closed = 1;
nodes = (
(311,166,o),
(272,203,o),
(272,274,cs),
(272,345,o),
(311,381,o),
(361,381,cs),
(411,381,o),
(450,345,o),
(450,274,cs),
(450,203,o),
(411,166,o),
(361,166,cs)
);
}
);
width = 700;
},
{
background = {
shapes = (
{
closed = 1;
nodes = (
(1330,-6,o),
(1444,102,o),
(1444,266,cs),
(1444,430,o),
(1330,538,o),
(1187,538,cs),
(1045,538,o),
(957,439,o),
(957,266,cs),
(957,92,o),
(1041,-6,o),
(1187,-6,cs)
);
},
{
closed = 1;
nodes = (
(992,0,l),
(992,134,l),
(987,267,l),
(997,400,l),
(997,742,l),
(887,742,l),
(887,0,l)
);
},
{
closed = 1;
nodes = (
(1068,89,o),
(995,158,o),
(995,266,cs),
(995,374,o),
(1068,443,o),
(1164,443,cs),
(1260,443,o),
(1333,374,o),
(1333,266,cs),
(1333,158,o),
(1260,89,o),
(1164,89,cs)
);
},
{
closed = 1;
nodes = (
(526,-6,o),
(644,107,o),
(644,266,cs),
(644,425,o),
(526,538,o),
(364,538,cs),
(203,538,o),
(84,425,o),
(84,266,cs),
(84,107,o),
(203,-6,o),
(364,-6,cs)
);
},
{
closed = 1;
nodes = (
(268,90,o),
(195,159,o),
(195,266,cs),
(195,373,o),
(268,442,o),
(364,442,cs),
(461,442,o),
(533,373,o),
(533,266,cs),
(533,159,o),
(461,90,o),
(364,90,cs)
);
}
);
};
layerId = "BF88A9B2-CED4-4B03-8FC2-F1361A8F7788";
shapes = (
{
closed = 1;
nodes = (
(530,-6,o),
(644,102,o),
(644,266,cs),
(644,430,o),
(530,538,o),
(373,538,cs),
(242,538,o),
(134,451,o),
(134,266,cs),
(134,81,o),
(238,-6,o),
(373,-6,cs)
);
},
{
closed = 1;
nodes = (
(192,0,l),
(192,134,l),
(187,267,l),
(197,400,l),
(197,742,l),
(87,742,l),
(87,0,l)
);
},
{
closed = 1;
nodes = (
(268,90,o),
(195,159,o),
(195,266,cs),
(195,373,o),
(268,442,o),
(364,442,cs),
(460,442,o),
(533,373,o),
(533,266,cs),
(533,159,o),
(460,90,o),
(364,90,cs)
);
}
);
width = 684;
},
{
layerId = "BE9EF097-1901-49F4-A2DE-F2A985D0844B";
shapes = (
{
closed = 1;
nodes = (
(508,-3,o),
(617,106,o),
(617,259,cs),
(617,412,o),
(508,520,o),
(366,520,cs),
(224,520,o),
(118,412,o),
(118,259,cs),
(118,106,o),
(224,-3,o),
(366,-3,cs)
);
},
{
closed = 1;
nodes = (
(135,0,l),
(135,190,l),
(125,260,l),
(135,330,l),
(135,742,l),
(115,742,l),
(115,0,l)
);
},
{
closed = 1;
nodes = (
(234,16,o),
(135,116,o),
(135,259,cs),
(135,402,o),
(234,501,o),
(366,501,cs),
(498,501,o),
(597,402,o),
(597,259,cs),
(597,116,o),
(498,16,o),
(366,16,cs)
);
}
);
width = 671;
}
);
leftKerningGroup = l;
rightKerningGroup = o;
unicode = 98;
}
{
color = 3;
glyphname = d;
layers = (
{
anchors = (
{
name = bottom;
position = "{382, 0}";
},
{
name = center;
position = "{492, 640}";
},
{
name = topright;
position = "{728, 742}";
}
);
layerId = "1D080760-4FD1-465A-AE80-6E2F24185885";
shapes = (
{
closed = 1;
nodes = (
(441,-10,o),
(498,77,o),
(498,274,cs),
(498,468,o),
(433,557,o),
(290,557,cs),
(147,557,o),
(26,450,o),
(26,274,cs),
(26,98,o),
(147,-10,o),
(290,-10,cs)
);
},
{
closed = 1;
nodes = (
(294,166,o),
(255,203,o),
(255,274,cs),
(255,345,o),
(294,381,o),
(344,381,cs),
(394,381,o),
(433,345,o),
(433,274,cs),
(433,203,o),
(394,166,o),
(344,166,cs)
);
},
{
closed = 1;
nodes = (
(655,0,l),
(655,742,l),
(429,742,l),
(429,474,l),
(439,274,l),
(440,74,l),
(440,0,l)
);
}
);
width = 705;
},
{
anchors = (
{
name = bottom;
position = "{350, 0}";
},
{
name = center;
position = "{484, 635}";
},
{
name = topright;
position = "{685, 742}";
}
);
background = {
shapes = (
{
closed = 1;
nodes = (
(1142,-6,o),
(1227,92,o),
(1227,266,cs),
(1227,439,o),
(1139,538,o),
(996,538,cs),
(854,538,o),
(740,430,o),
(740,266,cs),
(740,102,o),
(854,-6,o),
(996,-6,cs)
);
},
{
closed = 1;
nodes = (
(924,89,o),
(851,158,o),
(851,266,cs),
(851,374,o),
(924,443,o),
(1020,443,cs),
(1116,443,o),
(1189,374,o),
(1189,266,cs),
(1189,158,o),
(1116,89,o),
(1020,89,cs)
);
},
{
closed = 1;
nodes = (
(1297,0,l),
(1297,742,l),
(1187,742,l),
(1187,400,l),
(1197,267,l),
(1192,134,l),
(1192,0,l)
);
},
{
closed = 1;
nodes = (
(482,-6,o),
(600,107,o),
(600,266,cs),
(600,425,o),
(482,538,o),
(320,538,cs),
(159,538,o),
(40,425,o),
(40,266,cs),
(40,107,o),
(159,-6,o),
(320,-6,cs)
);
},
{
closed = 1;
nodes = (
(224,90,o),
(151,159,o),
(151,266,cs),
(151,373,o),
(224,442,o),
(320,442,cs),
(417,442,o),
(489,373,o),
(489,266,cs),
(489,159,o),
(417,90,o),
(320,90,cs)
);
}
);
};
layerId = "BF88A9B2-CED4-4B03-8FC2-F1361A8F7788";
shapes = (
{
closed = 1;
nodes = (
(446,-6,o),
(550,81,o),
(550,266,cs),
(550,451,o),
(442,538,o),
(311,538,cs),
(154,538,o),
(40,430,o),
(40,266,cs),
(40,102,o),
(154,-6,o),
(311,-6,cs)
);
},
{
closed = 1;
nodes = (
(224,90,o),
(151,159,o),
(151,266,cs),
(151,373,o),
(224,442,o),
(320,442,cs),
(416,442,o),
(489,373,o),
(489,266,cs),
(489,159,o),
(416,90,o),
(320,90,cs)
);
},
{
closed = 1;
nodes = (
(597,0,l),
(597,742,l),
(487,742,l),
(487,400,l),
(497,267,l),
(492,134,l),
(492,0,l)
);
}
);
width = 684;
},
{
anchors = (
{
name = bottom;
position = "{328, 0}";
},
{
name = center;
position = "{482, 630}";
},
{
name = topright;
position = "{656, 742}";
}
);
layerId = "BE9EF097-1901-49F4-A2DE-F2A985D0844B";
shapes = (
{
closed = 1;
nodes = (
(447,-3,o),
(553,106,o),
(553,259,cs),
(553,412,o),
(447,520,o),
(305,520,cs),
(163,520,o),
(54,412,o),
(54,259,cs),
(54,106,o),
(163,-3,o),
(305,-3,cs)
);
},
{
closed = 1;
nodes = (
(173,16,o),
(74,116,o),
(74,259,cs),
(74,402,o),
(173,501,o),
(305,501,cs),
(437,501,o),
(536,402,o),
(536,259,cs),
(536,116,o),
(437,16,o),
(305,16,cs)
);
},
{
closed = 1;
nodes = (
(556,0,l),
(556,742,l),
(536,742,l),
(536,330,l),
(546,260,l),
(536,190,l),
(536,0,l)
);
}
);
width = 671;
}
);
leftKerningGroup = o;
rightKerningGroup = l;
unicode = 100;
}
{
color = 2;
glyphname = e;
layers = (
{
anchors = (
{
name = bottom;
position = "{338, 0}";
},
{
name = ogonek;
position = "{565, 0}";
},
{
name = top;
position = "{338, 547}";
}
);
guides = (
{
angle = 90;
position = "{600, 0}";
}
);
layerId = "44B3B9A0-087B-4A25-B37C-B04368DE3785";
name = Bold.Jaques;
shapes = (
{
closed = 1;
nodes = (
(471,-10,o),
(550,20,o),
(605,78,c),
(484,197,l),
(447,170,o),
(418,157,o),
(367,157,cs),
(291,157,o),
(247,196,o),
(247,267,cs),
(247,301,ls),
(247,364,o),
(283,403,o),
(340,403,cs),
(397,403,o),
(433,364,o),
(433,301,c),
(521,330,l),
(212,330,l),
(212,221,l),
(643,221,l),
(645,237,o),
(647,258,o),
(647,274,cs),
(647,459,o),
(504,557,o),
(338,557,cs),
(157,557,o),
(21,440,o),
(21,274,cs),
(21,111,o),
(154,-10,o),
(360,-10,cs)
);
}
);
width = 668;
},
{
anchors = (
{
name = bottom;
position = "{300, 0}";
},
{
name = ogonek;
position = "{493, 0}";
},
{
name = top;
position = "{300, 517}";
}
);
guides = (
{
angle = 90;
position = "{520, 0}";
}
);
layerId = "E382F90B-3E51-4AF2-BC2B-7A74F07342B5";
name = Light.jacques;
shapes = (
{
closed = 1;
nodes = (
(400,-3,o),
(473,26,o),
(520,82,c),
(506,96,l),
(463,42,o),
(395,16,o),
(322,16,cs),
(180,16,o),
(74,116,o),
(74,259,cs),
(74,263,ls),
(74,399,o),
(171,501,o),
(303,501,cs),
(435,501,o),
(533,399,o),
(533,263,c),
(541,278,l),
(66,278,l),
(66,259,l),
(552,259,l),
(552,261,o),
(552,262,o),
(552,264,cs),
(552,414,o),
(444,520,o),
(303,520,cs),
(160,520,o),
(54,412,o),
(54,259,cs),
(54,106,o),
(168,-3,o),
(322,-3,cs)
);
}
);
width = 606;
},
{
anchors = (
{
name = bottom;
position = "{327, 0}";
},
{
name = ogonek;
position = "{553, 0}";
},
{
name = top;
position = "{327, 547}";
}
);
guides = (
{
angle = 90;
position = "{477, 0}";
}
);
layerId = "1D080760-4FD1-465A-AE80-6E2F24185885";
shapes = (
{
closed = 1;
nodes = (
(461,-10,o),
(538,20,o),
(591,78,c),
(473,197,l),
(437,170,o),
(409,157,o),
(359,157,cs),
(285,157,o),
(242,196,o),
(242,267,cs),
(242,301,ls),
(242,364,o),
(277,403,o),
(333,403,cs),
(388,403,o),
(424,364,o),
(424,301,c),
(509,330,l),
(208,330,l),
(208,221,l),
(629,221,l),
(630,237,o),
(632,258,o),
(632,274,cs),
(632,459,o),
(493,557,o),
(331,557,cs),
(154,557,o),
(21,440,o),
(21,274,cs),
(21,111,o),
(151,-10,o),
(352,-10,cs)
);
}
);
width = 653;
},
{
anchors = (
{
name = bottom;
position = "{317, 0}";
},
{
name = ogonek;
position = "{524, 0}";
},
{
name = top;
position = "{317, 532}";
}
);
layerId = "3D83D38E-C50C-473B-9B87-42369BDCBFFF";
associatedMasterId = "BF88A9B2-CED4-4B03-8FC2-F1361A8F7788";
name = Jaques;
shapes = (
{
closed = 1;
nodes = (
(432,-6,o),
(508,24,o),
(557,80,c),
(496,151,l),
(456,110,o),
(405,90,o),
(342,90,cs),
(228,90,o),
(151,159,o),
(151,260,cs),
(151,278,ls),
(151,377,o),
(220,445,o),
(319,445,cs),
(418,445,o),
(487,377,o),
(486,281,c),
(532,307,l),
(130,307,l),
(130,228,l),
(591,228,l),
(593,239,o),
(594,253,o),
(594,262,cs),
(594,427,o),
(480,538,o),
(319,538,cs),
(158,538,o),
(40,424,o),
(40,266,cs),
(40,107,o),
(159,-6,o),
(339,-6,cs)
);
}
);
width = 634;
},
{
anchors = (
{
name = bottom;
position = "{309, 0}";
},
{
name = ogonek;
position = "{524, 0}";
},
{
name = top;
position = "{309, 532}";
}
);
background = {
shapes = (
{
closed = 1;
nodes = (
(419,-6,o),
(492,23,o),
(541,80,c),
(481,140,l),
(443,98,o),
(393,78,o),
(333,78,cs),
(223,78,o),
(147,151,o),
(147,262,cs),
(147,280,ls),
(147,384,o),
(214,458,o),
(310,458,cs),
(406,458,o),
(475,384,o),
(475,280,c),
(516,301,l),
(127,301,l),
(127,242,l),
(575,242,l),
(575,251,o),
(576,260,o),
(576,268,cs),
(576,434,o),
(457,536,o),
(310,536,cs),
(155,536,o),
(40,424,o),
(40,266,cs),
(40,108,o),
(158,-6,o),
(329,-6,cs)
);
}
);
};
layerId = "BF88A9B2-CED4-4B03-8FC2-F1361A8F7788";
shapes = (
{
closed = 1;
nodes = (
(420,-6,o),
(494,24,o),
(542,80,c),
(482,151,l),
(444,110,o),
(394,90,o),
(333,90,cs),
(222,90,o),
(148,159,o),
(148,260,cs),
(148,278,ls),
(148,377,o),
(215,445,o),
(311,445,cs),
(407,445,o),
(474,377,o),
(473,281,c),
(517,307,l),
(127,307,l),
(127,228,l),
(575,228,l),
(576,239,o),
(577,253,o),
(577,262,cs),
(577,427,o),
(467,538,o),
(311,538,cs),
(155,538,o),
(40,424,o),
(40,266,cs),
(40,107,o),
(155,-6,o),
(330,-6,cs)
);
}
);
width = 617;
},
{
anchors = (
{
name = bottom;
position = "{294, 0}";
},
{
name = ogonek;
position = "{493, 0}";
},
{
name = top;
position = "{294, 517}";
}
);
guides = (
{
angle = 90;
position = "{438, 0}";
}
);
layerId = "BE9EF097-1901-49F4-A2DE-F2A985D0844B";
shapes = (
{
closed = 1;
nodes = (
(386,-3,o),
(456,26,o),
(502,82,c),
(488,96,l),
(447,42,o),
(381,16,o),
(312,16,cs),
(175,16,o),
(73,116,o),
(73,259,cs),
(73,263,ls),
(73,399,o),
(166,501,o),
(293,501,cs),
(420,501,o),
(514,399,o),
(514,263,c),
(522,278,l),
(65,278,l),
(65,259,l),
(533,259,l),
(533,261,o),
(533,262,o),
(533,264,cs),
(533,414,o),
(429,520,o),
(293,520,cs),
(156,520,o),
(54,412,o),
(54,259,cs),
(54,106,o),
(163,-3,o),
(312,-3,cs)
);
}
);
width = 587;
}
);
leftKerningGroup = o;
rightKerningGroup = e;
unicode = 101;
}
{
color = 2;
glyphname = f;
layers = (
{
layerId = "50D943A8-B490-4162-9D4B-803713767B01";
shapes = (
{
closed = 1;
nodes = (
(301,0,l),
(301,399,l),
(294,492,l),
(294,518,ls),
(294,562,o),
(316,581,o),
(348,581,cs),
(366,581,o),
(384,575,o),
(399,568,c),
(453,725,l),
(420,743,o),
(367,752,o),
(319,752,cs),
(163,752,o),
(75,661,o),
(75,520,cs),
(75,0,l)
);
},
{
closed = 1;
nodes = (
(413,352,l),
(413,517,l),
(0,517,l),
(0,352,l)
);
}
);
width = 426;
},
{
background = {
shapes = (
{
closed = 1;
nodes = (
(212,0,l),
(212,453,l),
(209,503,l),
(209,567,ls),
(209,626,o),
(239,656,o),
(292,656,cs),
(319,656,o),
(344,647,o),
(363,633,c),
(394,716,l),
(367,738,o),
(321,748,o),
(279,748,cs),
(166,748,o),
(102,678,o),
(102,570,cs),
(102,0,l)
);
},
{
closed = 1;
nodes = (
(360,427,l),
(360,517,l),
(13,517,l),
(13,427,l)
);
}
);
};
layerId = "5922F47A-F449-4984-8091-CB5BAF0F3D6E";
shapes = (
{
closed = 1;
nodes = (
(212,0,l),
(212,453,l),
(209,503,l),
(209,569,ls),
(209,628,o),
(237,658,o),
(292,658,cs),
(319,658,o),
(344,649,o),
(363,635,c),
(395,719,l),
(368,739,o),
(328,748,o),
(286,748,cs),
(167,748,o),
(102,678,o),
(102,570,cs),
(102,0,l)
);
},
{
closed = 1;
nodes = (
(360,442,l),
(360,532,l),
(13,532,l),
(13,442,l)
);
}
);
width = 361;
},
{
layerId = "09D0C439-80D3-4C25-AAD4-493BFD6E371F";
shapes = (
{
closed = 1;
nodes = (
(143,0,l),
(143,503,l),
(143,514,l),
(143,613,ls),
(143,686,o),
(179,726,o),
(249,726,cs),
(282,726,o),
(313,715,o),
(335,694,c),
(349,708,l),
(325,733,o),
(285,745,o),
(248,745,cs),
(168,745,o),
(123,694,o),
(123,618,cs),
(123,0,l)
);
},
{
closed = 1;
nodes = (
(318,498,l),
(318,517,l),
(23,517,l),
(23,498,l)
);
}
);
width = 311;
}
);
leftKerningGroup = f;
rightKerningGroup = f;
unicode = 102;
}
{
color = 3;
glyphname = h;
layers = (
{
anchors = (
{
name = bottom;
position = "{355, 0}";
},
{
name = center;
position = "{214, 640}";
},
{
name = top;
position = "{163, 742}";
},
{
name = topright;
position = "{310, 547}";
}
);
layerId = "50D943A8-B490-4162-9D4B-803713767B01";
shapes = (
{
closed = 1;
nodes = (
(341,557,o),
(264,516,o),
(222,433,c),
(276,387,l),
(276,742,l),
(50,742,l),
(50,0,l),
(276,0,l),
(276,257,ls),
(276,338,o),
(315,367,o),
(361,367,cs),
(402,367,o),
(428,341,o),
(428,273,cs),
(428,0,l),
(654,0,l),
(654,312,ls),
(654,484,o),
(556,557,o),
(430,557,cs)
);
}
);
width = 702;
},
{
anchors = (
{
name = bottom;
position = "{344, 0}";
},
{
name = center;
position = "{200, 635}";
},
{
name = top;
position = "{142, 742}";
},
{
name = topright;
position = "{264, 532}";
}
);
background = {
shapes = (
{
closed = 1;
nodes = (
(601,0,l),
(601,308,ls),
(601,464,o),
(513,538,o),
(386,538,cs),
(252,538,o),
(161,453,o),
(152,310,c),
(197,269,l),
(197,376,o),
(260,436,o),
(356,436,cs),
(440,436,o),
(491,388,o),
(491,289,cs),
(491,0,l)
);
},
{
closed = 1;
nodes = (
(197,0,l),
(197,742,l),
(87,742,l),
(87,0,l)
);
}
);
};
layerId = "5922F47A-F449-4984-8091-CB5BAF0F3D6E";
shapes = (
{
closed = 1;
nodes = (
(285,538,o),
(210,501,o),
(174,434,c),
(197,390,l),
(197,742,l),
(87,742,l),
(87,0,l),
(197,0,l),
(197,272,ls),
(197,383,o),
(260,440,o),
(355,440,cs),
(441,440,o),
(491,391,o),
(491,292,cs),
(491,0,l),
(601,0,l),
(601,305,ls),
(601,464,o),
(507,538,o),
(378,538,cs)
);
}
);
width = 683;
},
{
anchors = (
{
name = bottom;
position = "{335, 0}";
},
{
name = center;
position = "{189, 630}";
},
{
name = top;
position = "{125, 742}";
},
{
name = topright;
position = "{228, 517}";
}
);
layerId = "09D0C439-80D3-4C25-AAD4-493BFD6E371F";
shapes = (
{
closed = 1;
nodes = (
(240,520,o),
(163,463,o),
(133,373,c),
(135,370,l),
(135,742,l),
(115,742,l),
(115,0,l),
(135,0,l),
(135,281,ls),
(135,412,o),
(217,501,o),
(353,501,cs),
(470,501,o),
(539,433,o),
(539,305,cs),
(539,0,l),
(559,0,l),
(559,305,ls),
(559,445,o),
(479,520,o),
(352,520,cs)
);
}
);
width = 668;
}
);
leftKerningGroup = l;
rightKerningGroup = n;
unicode = 104;
}
{
color = 1;
glyphname = k;
layers = (
{
anchors = (
{
name = bottom;
position = "{323, 0}";
},
{
name = top;
position = "{163, 742}";
},
{
name = topright;
position = "{305, 547}";
}
);
layerId = "50D943A8-B490-4162-9D4B-803713767B01";
shapes = (
{
closed = 1;
nodes = (
(337,194,l),
(450,285,l),
(700,547,l),
(433,547,l),
(244,356,l),
(239,90,l)
);
},
{
closed = 1;
nodes = (
(276,0,l),
(276,742,l),
(50,742,l),
(50,0,l)
);
},
{
closed = 1;
nodes = (
(718,0,l),
(434,361,l),
(295,190,l),
(445,0,l)
);
}
);
width = 713;
},
{
anchors = (
{
name = bottom;
position = "{313, 0}";
},
{
name = top;
position = "{142, 742}";
},
{
name = topright;
position = "{259, 532}";
}
);
background = {
shapes = (
{
closed = 1;
nodes = (
(309,248,l),
(368,298,l),
(604,532,l),
(471,532,l),
(179,264,l),
(176,123,l)
);
},
{
closed = 1;
nodes = (
(197,0,l),
(197,742,l),
(87,742,l),
(87,0,l)
);
},
{
closed = 1;
nodes = (
(625,0,l),
(359,338,l),
(289,249,l),
(491,0,l)
);
}
);
};
layerId = "5922F47A-F449-4984-8091-CB5BAF0F3D6E";
shapes = (
{
closed = 1;
nodes = (
(309,248,l),
(368,298,l),
(604,532,l),
(471,532,l),
(179,264,l),
(176,123,l)
);
},
{
closed = 1;
nodes = (
(197,0,l),
(197,742,l),
(87,742,l),
(87,0,l)
);
},
{
closed = 1;
nodes = (
(625,0,l),
(359,338,l),
(289,249,l),
(491,0,l)
);
}
);
width = 625;
},
{
anchors = (
{
name = bottom;
position = "{307, 0}";
},
{
name = top;
position = "{125, 742}";
},
{
name = topright;
position = "{223, 517}";
}
);
layerId = "09D0C439-80D3-4C25-AAD4-493BFD6E371F";
shapes = (
{
closed = 1;
nodes = (
(288,299,l),
(304,311,l),
(529,517,l),
(500,517,l),
(128,178,l),
(128,154,l)
);
},
{
closed = 1;
nodes = (
(135,0,l),
(135,742,l),
(115,742,l),
(115,0,l)
);
},
{
closed = 1;
nodes = (
(552,0,l),
(300,316,l),
(284,304,l),
(526,0,l)
);
}
);
width = 570;
}
);
leftKerningGroup = l;
rightKerningGroup = k;
unicode = 107;
}
{
glyphname = l;
layers = (
{
anchors = (
{
name = bottom;
position = "{163, 0}";
},
{
name = center;
position = "{163, 370}";
},
{
name = dot;
position = "{416, 370}";
},
{
name = top;
position = "{163, 742}";
},
{
name = topright;
position = "{346, 742}";
}
);
layerId = "1D080760-4FD1-465A-AE80-6E2F24185885";
shapes = (
{
closed = 1;
nodes = (
(276,0,l),
(276,742,l),
(50,742,l),
(50,0,l)
);
}
);
width = 326;
},
{
anchors = (
{
name = bottom;
position = "{142, 0}";
},
{
name = center;
position = "{142, 360}";
},
{
name = dot;
position = "{323, 360}";
},
{
name = top;
position = "{142, 742}";
},
{
name = topright;
position = "{283, 742}";
}
);
background = {
shapes = (
{
closed = 1;
nodes = (
(197,0,l),
(197,742,l),
(87,742,l),
(87,0,l)
);
}
);
};
layerId = "BF88A9B2-CED4-4B03-8FC2-F1361A8F7788";
shapes = (
{
closed = 1;
nodes = (
(197,0,l),
(197,742,l),
(87,742,l),
(87,0,l)
);
}
);
width = 284;
},
{
anchors = (
{
name = bottom;
position = "{125, 0}";
},
{
name = center;
position = "{125, 350}";
},
{
name = dot;
position = "{251, 350}";
},
{
name = top;
position = "{125, 742}";
},
{
name = topright;
position = "{235, 742}";
}
);
layerId = "BE9EF097-1901-49F4-A2DE-F2A985D0844B";
shapes = (
{
closed = 1;
nodes = (
(135,0,l),
(135,742,l),
(115,742,l),
(115,0,l)
);
}
);
width = 250;
}
);
leftKerningGroup = l;
rightKerningGroup = l;
unicode = 108;
}
{
color = 3;
glyphname = o;
layers = (
{
anchors = (
{
name = bottom;
position = "{336, 0}";
},
{
name = center;
position = "{336, 274}";
},
{
name = ogonek;
position = "{459, 0}";
},
{
name = top;
position = "{336, 547}";
},
{
name = topright;
position = "{432, 547}";
}
);
guides = (
{
angle = 90;
position = "{651, 0}";
}
);
layerId = "1D080760-4FD1-465A-AE80-6E2F24185885";
shapes = (
{
closed = 1;
nodes = (
(525,-10,o),
(657,108,o),
(657,274,cs),
(657,440,o),
(525,557,o),
(339,557,cs),
(154,557,o),
(21,440,o),
(21,274,cs),
(21,108,o),
(154,-10,o),
(339,-10,cs)
);
},
{
closed = 1;
nodes = (
(289,166,o),
(250,203,o),
(250,274,cs),
(250,345,o),
(289,381,o),
(339,381,cs),
(389,381,o),
(428,345,o),
(428,274,cs),
(428,203,o),
(389,166,o),
(339,166,cs)
);
}
);
width = 678;
},
{
anchors = (
{
name = bottom;
position = "{319, 0}";
},
{
name = center;
position = "{319, 266}";
},
{
name = ogonek;
position = "{421, 0}";
},
{
name = top;
position = "{319, 532}";
},
{
name = topright;
position = "{452, 532}";
}
);
background = {
shapes = (
{
closed = 1;
nodes = (
(481,-6,o),
(598,107,o),
(598,266,cs),
(598,425,o),
(481,538,o),
(320,538,cs),
(160,538,o),
(43,425,o),
(43,266,cs),
(43,107,o),
(160,-6,o),
(320,-6,cs)
);
},
{
closed = 1;
nodes = (
(224,89,o),
(151,158,o),
(151,266,cs),
(151,374,o),
(224,443,o),
(320,443,cs),
(417,443,o),
(489,374,o),
(489,266,cs),
(489,158,o),
(417,89,o),
(320,89,cs)
);
}
);
};
layerId = "BF88A9B2-CED4-4B03-8FC2-F1361A8F7788";
shapes = (
{
closed = 1;
nodes = (
(482,-6,o),
(600,107,o),
(600,266,cs),
(600,425,o),
(482,538,o),
(320,538,cs),
(159,538,o),
(40,425,o),
(40,266,cs),
(40,107,o),
(159,-6,o),
(320,-6,cs)
);
},
{
closed = 1;
nodes = (
(224,90,o),
(151,159,o),
(151,266,cs),
(151,373,o),
(224,442,o),
(320,442,cs),
(417,442,o),
(489,373,o),
(489,266,cs),
(489,159,o),
(417,90,o),
(320,90,cs)
);
}
);
width = 640;
},
{
anchors = (
{
name = bottom;
position = "{305, 0}";
},
{
name = center;
position = "{305, 259}";
},
{
name = ogonek;
position = "{390, 0}";
},
{
name = top;
position = "{305, 517}";
},
{
name = topright;
position = "{466, 518}";
}
);
guides = (
{
angle = 90;
position = "{305, 0}";
}
);
layerId = "BE9EF097-1901-49F4-A2DE-F2A985D0844B";
shapes = (
{
closed = 1;
nodes = (
(449,-3,o),
(556,106,o),
(556,259,cs),
(556,412,o),
(449,520,o),
(305,520,cs),
(161,520,o),
(54,412,o),
(54,259,cs),
(54,106,o),
(161,-3,o),
(305,-3,cs)
);
},
{
closed = 1;
nodes = (
(173,16,o),
(74,116,o),
(74,259,cs),
(74,402,o),
(173,501,o),
(305,501,cs),
(437,501,o),
(536,402,o),
(536,259,cs),
(536,116,o),
(437,16,o),
(305,16,cs)
);
}
);
width = 610;
}
);
leftKerningGroup = o;
rightKerningGroup = o;
unicode = 111;
}
{
color = 3;
glyphname = q;
layers = (
{
anchors = (
{
name = bottom;
position = "{288, 0}";
},
{
name = top;
position = "{339, 547}";
}
);
layerId = "50D943A8-B490-4162-9D4B-803713767B01";
shapes = (
{
closed = 1;
nodes = (
(428,-10,o),
(493,79,o),
(493,273,cs),
(493,470,o),
(436,557,o),
(285,557,cs),
(142,557,o),
(21,449,o),
(21,273,cs),
(21,97,o),
(142,-10,o),
(285,-10,cs)
);
},
{
closed = 1;
nodes = (
(289,166,o),
(250,202,o),
(250,273,cs),
(250,344,o),
(289,381,o),
(339,381,cs),
(389,381,o),
(428,344,o),
(428,273,cs),
(428,202,o),
(389,166,o),
(339,166,cs)
);
},
{
closed = 1;
nodes = (
(650,-194,l),
(650,547,l),
(435,547,l),
(435,473,l),
(434,273,l),
(424,73,l),
(424,-194,l)
);
}
);
width = 700;
},
{
anchors = (
{
name = bottom;
position = "{298, 0}";
},
{
name = top;
position = "{320, 532}";
}
);
background = {
shapes = (
{
closed = 1;
nodes = (
(439,-6,o),
(527,92,o),
(527,265,cs),
(527,440,o),
(442,538,o),
(296,538,cs),
(154,538,o),
(40,429,o),
(40,265,cs),
(40,101,o),
(154,-6,o),
(296,-6,cs)
);
},
{
closed = 1;
nodes = (
(224,89,o),
(151,157,o),
(151,265,cs),
(151,373,o),
(224,443,o),
(320,443,cs),
(416,443,o),
(489,373,o),
(489,265,cs),
(489,157,o),
(416,89,o),
(320,89,cs)
);
},
{
closed = 1;
nodes = (
(597,-194,l),
(597,532,l),
(492,532,l),
(492,398,l),
(497,265,l),
(487,132,l),
(487,-194,l)
);
}
);
};
layerId = "5922F47A-F449-4984-8091-CB5BAF0F3D6E";
shapes = (
{
closed = 1;
nodes = (
(442,-6,o),
(550,81,o),
(550,266,cs),
(550,451,o),
(446,538,o),
(311,538,cs),
(154,538,o),
(40,430,o),
(40,266,cs),
(40,102,o),
(154,-6,o),
(311,-6,cs)
);
},
{
closed = 1;
nodes = (
(224,90,o),
(151,159,o),
(151,266,cs),
(151,373,o),
(224,442,o),
(320,442,cs),
(416,442,o),
(489,373,o),
(489,266,cs),
(489,159,o),
(416,90,o),
(320,90,cs)
);
},
{
closed = 1;
nodes = (
(597,-194,l),
(597,532,l),
(492,532,l),
(492,398,l),
(497,265,l),
(487,132,l),
(487,-194,l)
);
}
);
width = 684;
},
{
anchors = (
{
name = bottom;
position = "{305, 0}";
},
{
name = top;
position = "{305, 517}";
}
);
layerId = "09D0C439-80D3-4C25-AAD4-493BFD6E371F";
shapes = (
{
closed = 1;
nodes = (
(447,-3,o),
(553,105,o),
(553,258,cs),
(553,411,o),
(447,520,o),
(305,520,cs),
(163,520,o),
(54,411,o),
(54,258,cs),
(54,105,o),
(163,-3,o),
(305,-3,cs)
);
},
{
closed = 1;
nodes = (
(173,16,o),
(74,115,o),
(74,258,cs),
(74,401,o),
(173,501,o),
(305,501,cs),
(437,501,o),
(536,401,o),
(536,258,cs),
(536,115,o),
(437,16,o),
(305,16,cs)
);
},
{
closed = 1;
nodes = (
(556,-194,l),
(556,517,l),
(536,517,l),
(536,327,l),
(546,257,l),
(536,187,l),
(536,-194,l)
);
}
);
width = 671;
}
);
leftKerningGroup = o;
rightKerningGroup = u;
unicode = 113;
}
{
color = 3;
glyphname = u;
layers = (
{
anchors = (
{
name = bottom;
position = "{348, 0}";
},
{
name = ogonek;
position = "{648, 0}";
},
{
name = top;
position = "{348, 547}";
},
{
name = topright;
position = "{535, 547}";
}
);
layerId = "1D080760-4FD1-465A-AE80-6E2F24185885";
shapes = (
{
closed = 1;
nodes = (
(361,-10,o),
(437,30,o),
(476,115,c),
(433,158,l),
(433,0,l),
(648,0,l),
(648,547,l),
(422,547,l),
(422,290,ls),
(422,209,o),
(384,180,o),
(345,180,cs),
(301,180,o),
(274,206,o),
(274,284,cs),
(274,547,l),
(48,547,l),
(48,245,ls),
(48,67,o),
(147,-10,o),
(278,-10,cs)
);
}
);
width = 698;
},
{
anchors = (
{
name = bottom;
position = "{337, 0}";
},
{
name = ogonek;
position = "{592, 0}";
},
{
name = top;
position = "{337, 532}";
},
{
name = topright;
position = "{538, 532}";
}
);
background = {
shapes = (
{
closed = 1;
nodes = (
(429,-6,o),
(518,78,o),
(527,221,c),
(482,262,l),
(482,155,o),
(421,96,o),
(331,96,cs),
(244,96,o),
(192,143,o),
(192,247,cs),
(192,532,l),
(82,532,l),
(82,228,ls),
(82,70,o),
(171,-6,o),
(302,-6,cs)
);
},
{
closed = 1;
nodes = (
(592,0,l),
(592,532,l),
(482,532,l),
(482,184,l),
(487,151,l),
(487,0,l)
);
}
);
};
layerId = "BF88A9B2-CED4-4B03-8FC2-F1361A8F7788";
shapes = (
{
closed = 1;
nodes = (
(395,-6,o),
(469,31,o),
(505,98,c),
(487,142,l),
(487,0,l),
(592,0,l),
(592,532,l),
(482,532,l),
(482,260,ls),
(482,149,o),
(420,92,o),
(326,92,cs),
(241,92,o),
(192,141,o),
(192,240,cs),
(192,532,l),
(82,532,l),
(82,227,ls),
(82,68,o),
(175,-6,o),
(313,-6,cs)
);
}
);
width = 679;
},
{
anchors = (
{
name = bottom;
position = "{329, 0}";
},
{
name = ogonek;
position = "{549, 0}";
},
{
name = top;
position = "{329, 517}";
},
{
name = topright;
position = "{540, 517}";
}
);
layerId = "BE9EF097-1901-49F4-A2DE-F2A985D0844B";
shapes = (
{
closed = 1;
nodes = (
(428,-3,o),
(502,53,o),
(531,143,c),
(529,146,l),
(529,0,l),
(549,0,l),
(549,517,l),
(529,517,l),
(529,236,ls),
(529,105,o),
(450,16,o),
(320,16,cs),
(199,16,o),
(129,84,o),
(129,212,cs),
(129,517,l),
(109,517,l),
(109,212,ls),
(109,72,o),
(190,-3,o),
(321,-3,cs)
);
}
);
width = 664;
}
);
leftKerningGroup = u;
rightKerningGroup = u;
unicode = 117;
}
{
glyphname = v;
layers = (
{
anchors = (
{
name = bottom;
position = "{322, 0}";
},
{
name = top;
position = "{322, 547}";
}
);
layerId = "1D080760-4FD1-465A-AE80-6E2F24185885";
shapes = (
{
closed = 1;
nodes = (
(439,0,l),
(659,547,l),
(445,547,l),
(267,103,l),
(384,103,l),
(217,547,l),
(-15,547,l),
(205,0,l)
);
}
);
width = 644;
},
{
anchors = (
{
name = bottom;
position = "{284, 0}";
},
{
name = top;
position = "{284, 532}";
}
);
background = {
shapes = (
{
closed = 1;
nodes = (
(340,0,l),
(571,532,l),
(464,532,l),
(257,57,l),
(313,57,l),
(111,532,l),
(-3,532,l),
(227,0,l)
);
}
);
};
layerId = "BF88A9B2-CED4-4B03-8FC2-F1361A8F7788";
shapes = (
{
closed = 1;
nodes = (
(340,0,l),
(571,532,l),
(464,532,l),
(257,57,l),
(313,57,l),
(111,532,l),
(-3,532,l),
(227,0,l)
);
}
);
width = 568;
},
{
anchors = (
{
name = bottom;
position = "{254, 0}";
},
{
name = top;
position = "{254, 517}";
}
);
layerId = "BE9EF097-1901-49F4-A2DE-F2A985D0844B";
shapes = (
{
closed = 1;
nodes = (
(264,0,l),
(502,517,l),
(479,517,l),
(250,14,l),
(258,14,l),
(29,517,l),
(6,517,l),
(244,0,l)
);
}
);
width = 508;
}
);
leftKerningGroup = v;
rightKerningGroup = v;
unicode = 118;
}
{
glyphname = w;
layers = (
{
anchors = (
{
name = bottom;
position = "{520, 0}";
},
{
name = top;
position = "{520, 547}";
}
);
layerId = "4257739F-AFE1-4A10-AF53-226BE3024F02";
name = Bold.Jacques;
shapes = (
{
closed = 1;
nodes = (
(430,0,l),
(557,352,l),
(487,352,l),
(610,0,l),
(844,0,l),
(1046,547,l),
(835,547,l),
(671,103,l),
(783,103,l),
(630,547,l),
(425,547,l),
(261,103,l),
(374,103,l),
(221,547,l),
(-6,547,l),
(196,0,l)
);
}
);
width = 1040;
},
{
anchors = (
{
name = bottom;
position = "{464, 0}";
},
{
name = top;
position = "{464, 517}";
}
);
layerId = "11850B37-36D0-43B0-B595-4F03AF61C06F";
name = Light.Jacques;
shapes = (
{
closed = 1;
nodes = (
(253,0,l),
(468,498,l),
(460,498,l),
(675,0,l),
(695,0,l),
(915,517,l),
(892,517,l),
(681,14,l),
(689,14,l),
(474,517,l),
(454,517,l),
(239,14,l),
(247,14,l),
(36,517,l),
(13,517,l),
(233,0,l)
);
}
);
width = 928;
},
{
anchors = (
{
name = top;
position = "{438, 517}";
}
);
layerId = "BB583698-45B6-491F-B88B-D8AFB040B3E8";
name = Light.Bold;
shapes = (
{
closed = 1;
nodes = (
(195,544,l),
(0,544,l),
(175,31,l),
(361,4,l),
(441,236,l),
(453,189,l),
(469,125,o),
(492,66,o),
(512,4,c),
(700,31,l),
(875,544,l),
(679,544,l),
(596,268,l),
(590,294,o),
(585,323,o),
(581,350,c),
(560,419,o),
(539,489,o),
(518,558,c),
(346,528,l),
(267,268,l),
(261,294,o),
(256,323,o),
(252,350,c)
);
}
);
width = 875;
},
{
anchors = (
{
name = bottom;
position = "{489, 0}";
},
{
name = top;
position = "{489, 547}";
}
);
layerId = "50D943A8-B490-4162-9D4B-803713767B01";
shapes = (
{
closed = 1;
nodes = (
(404,0,l),
(524,352,l),
(458,352,l),
(573,0,l),
(793,0,l),
(983,547,l),
(785,547,l),
(636,103,l),
(736,103,l),
(592,547,l),
(400,547,l),
(249,103,l),
(352,103,l),
(208,547,l),
(-6,547,l),
(184,0,l)
);
}
);
width = 977;
},
{
anchors = (
{
name = bottom;
position = "{488, 0}";
},
{
name = top;
position = "{488, 532}";
}
);
layerId = "88AE98E8-9E1E-4796-AA75-DB2EE64EB08A";
associatedMasterId = "5922F47A-F449-4984-8091-CB5BAF0F3D6E";
name = Jacques;
shapes = (
{
closed = 1;
nodes = (
(330,0,l),
(507,427,l),
(472,427,l),
(647,0,l),
(760,0,l),
(972,532,l),
(867,532,l),
(677,57,l),
(730,57,l),
(542,532,l),
(441,532,l),
(249,57,l),
(302,57,l),
(117,532,l),
(5,532,l),
(217,0,l)
);
}
);
width = 977;
},
{
anchors = (
{
name = bottom;
position = "{452, 0}";
},
{
name = top;
position = "{452, 530}";
}
);
background = {
shapes = (
{
closed = 1;
nodes = (
(330,0,l),
(507,427,l),
(472,427,l),
(647,0,l),
(760,0,l),
(972,532,l),
(867,532,l),
(677,57,l),
(730,57,l),
(542,532,l),
(441,532,l),
(249,57,l),
(302,57,l),
(117,532,l),
(5,532,l),
(217,0,l)
);
}
);
};
layerId = "5922F47A-F449-4984-8091-CB5BAF0F3D6E";
shapes = (
{
closed = 1;
nodes = (
(307,0,l),
(472,427,l),
(440,427,l),
(602,0,l),
(707,0,l),
(905,532,l),
(807,532,l),
(630,57,l),
(679,57,l),
(504,532,l),
(411,532,l),
(232,57,l),
(281,57,l),
(109,532,l),
(5,532,l),
(202,0,l)
);
}
);
width = 910;
},
{
anchors = (
{
name = bottom;
position = "{419, 0}";
},
{
name = top;
position = "{419, 517}";
}
);
layerId = "09D0C439-80D3-4C25-AAD4-493BFD6E371F";
shapes = (
{
closed = 1;
nodes = (
(228,0,l),
(422,498,l),
(415,498,l),
(609,0,l),
(627,0,l),
(826,517,l),
(805,517,l),
(614,14,l),
(622,14,l),
(428,517,l),
(409,517,l),
(215,14,l),
(223,14,l),
(32,517,l),
(12,517,l),
(211,0,l)
);
}
);
width = 838;
}
);
leftKerningGroup = v;
rightKerningGroup = v;
unicode = 119;
}
{
color = 3;
glyphname = x;
layers = (
{
layerId = "1D080760-4FD1-465A-AE80-6E2F24185885";
shapes = (
{
closed = 1;
nodes = (
(236,0,l),
(365,180,l),
(270,193,l),
(395,0,l),
(654,0,l),
(402,344,l),
(402,219,l),
(649,547,l),
(412,547,l),
(279,359,l),
(373,366,l),
(252,547,l),
(-3,547,l),
(243,208,l),
(249,338,l),
(-9,0,l)
);
}
);
width = 645;
},
{
background = {
shapes = (
{
closed = 1;
nodes = (
(420,532,l),
(12,0,l),
(134,0,l),
(540,532,l)
);
},
{
closed = 1;
nodes = (
(426,0,l),
(550,0,l),
(143,532,l),
(21,532,l)
);
}
);
};
layerId = "BF88A9B2-CED4-4B03-8FC2-F1361A8F7788";
shapes = (
{
closed = 1;
nodes = (
(134,0,l),
(301,221,l),
(255,227,l),
(426,0,l),
(550,0,l),
(318,300,l),
(317,242,l),
(540,532,l),
(420,532,l),
(258,319,l),
(305,318,l),
(143,532,l),
(21,532,l),
(242,244,l),
(243,301,l),
(12,0,l)
);
}
);
width = 562;
},
{
layerId = "BE9EF097-1901-49F4-A2DE-F2A985D0844B";
shapes = (
{
closed = 1;
nodes = (
(53,0,l),
(251,256,l),
(246,256,l),
(444,0,l),
(470,0,l),
(256,273,l),
(255,261,l),
(455,517,l),
(431,517,l),
(244,277,l),
(252,277,l),
(65,517,l),
(40,517,l),
(238,265,l),
(239,272,l),
(28,0,l)
);
}
);
width = 498;
}
);
leftKerningGroup = x;
rightKerningGroup = x;
unicode = 120;
}
{
color = 3;
glyphname = y;
layers = (
{
anchors = (
{
name = bottom;
position = "{527, 0}";
},
{
name = top;
position = "{313, 547}";
}
);
guides = (
{
angle = 68.154;
position = "{346, 325}";
}
);
layerId = "50D943A8-B490-4162-9D4B-803713767B01";
shapes = (
{
closed = 1;
nodes = (
(286,-204,o),
(374,-161,o),
(434,-11,cs),
(659,547,l),
(445,547,l),
(270,101,l),
(254,79,l),
(231,21,ls),
(218,-12,o),
(199,-29,o),
(159,-29,cs),
(132,-29,o),
(101,-17,o),
(79,0,c),
(4,-155,l),
(41,-185,o),
(110,-204,o),
(170,-204,cs)
);
},
{
closed = 1;
nodes = (
(381,121,l),
(217,547,l),
(-15,547,l),
(223,-25,l)
);
}
);
width = 644;
},
{
anchors = (
{
name = bottom;
position = "{423, 0}";
},
{
name = top;
position = "{271, 532}";
}
);
background = {
shapes = (
{
closed = 1;
nodes = (
(205,-200,o),
(269,-165,o),
(317,-48,cs),
(571,532,l),
(464,532,l),
(259,56,l),
(249,42,l),
(217,-29,ls),
(192,-86,o),
(161,-106,o),
(116,-106,cs),
(81,-106,o),
(51,-93,o),
(26,-69,c),
(-16,-153,l),
(16,-183,o),
(68,-200,o),
(120,-200,cs)
);
},
{
closed = 1;
nodes = (
(312,66,l),
(111,532,l),
(-3,532,l),
(238,-18,l)
);
}
);
};
layerId = "5922F47A-F449-4984-8091-CB5BAF0F3D6E";
shapes = (
{
closed = 1;
nodes = (
(205,-200,o),
(269,-165,o),
(317,-48,cs),
(571,532,l),
(464,532,l),
(259,56,l),
(249,42,l),
(217,-29,ls),
(192,-86,o),
(165,-107,o),
(120,-107,cs),
(85,-107,o),
(51,-93,o),
(26,-69,c),
(-20,-151,l),
(14,-183,o),
(68,-200,o),
(120,-200,cs)
);
},
{
closed = 1;
nodes = (
(312,66,l),
(111,532,l),
(-3,532,l),
(238,-18,l)
);
}
);
width = 568;
},
{
anchors = (
{
name = bottom;
position = "{342, 0}";
},
{
name = top;
position = "{239, 517}";
}
);
guides = (
{
angle = 65.522;
position = "{365, 266}";
}
);
layerId = "09D0C439-80D3-4C25-AAD4-493BFD6E371F";
shapes = (
{
closed = 1;
nodes = (
(142,-197,o),
(188,-168,o),
(227,-83,cs),
(502,517,l),
(479,517,l),
(250,14,l),
(245,7,l),
(207,-77,ls),
(171,-155,o),
(132,-178,o),
(82,-178,cs),
(41,-178,o),
(12,-165,o),
(-16,-135,c),
(-31,-151,l),
(-3,-182,o),
(36,-197,o),
(81,-197,cs)
);
},
{
closed = 1;
nodes = (
(258,14,l),
(29,517,l),
(6,517,l),
(249,-11,l)
);
}
);
width = 508;
}
);
leftKerningGroup = v;
rightKerningGroup = v;
unicode = 121;
}
{
glyphname = z;
layers = (
{
anchors = (
{
name = bottom;
position = "{290, 0}";
},
{
name = top;
position = "{290, 547}";
}
);
layerId = "50D943A8-B490-4162-9D4B-803713767B01";
shapes = (
{
closed = 1;
nodes = (
(552,0,l),
(552,165,l),
(213,165,l),
(250,93,l),
(541,417,l),
(541,547,l),
(38,547,l),
(38,382,l),
(358,382,l),
(321,454,l),
(30,130,l),
(30,0,l)
);
}
);
width = 570;
},
{
anchors = (
{
name = bottom;
position = "{270, 0}";
},
{
name = top;
position = "{265, 532}";
}
);
background = {
shapes = (
{
closed = 1;
nodes = (
(491,0,l),
(491,90,l),
(125,90,l),
(148,52,l),
(483,461,l),
(483,532,l),
(45,532,l),
(45,442,l),
(395,442,l),
(374,480,l),
(39,71,l),
(39,0,l)
);
}
);
};
layerId = "5922F47A-F449-4984-8091-CB5BAF0F3D6E";
shapes = (
{
closed = 1;
nodes = (
(491,0,l),
(491,90,l),
(125,90,l),
(148,52,l),
(483,461,l),
(483,532,l),
(45,532,l),
(45,442,l),
(395,442,l),
(374,480,l),
(39,71,l),
(39,0,l)
);
}
);
width = 526;
},
{
anchors = (
{
name = bottom;
position = "{255, 0}";
},
{
name = top;
position = "{245, 517}";
}
);
layerId = "09D0C439-80D3-4C25-AAD4-493BFD6E371F";
shapes = (
{
closed = 1;
nodes = (
(443,0,l),
(443,19,l),
(57,19,l),
(69,13,l),
(438,502,l),
(438,517,l),
(51,517,l),
(51,498,l),
(423,498,l),
(415,504,l),
(46,15,l),
(46,0,l)
);
}
);
width = 491;
}
);
leftKerningGroup = z;
rightKerningGroup = z;
unicode = 122;
}
{
glyphname = bar;
layers = (
{
layerId = "50D943A8-B490-4162-9D4B-803713767B01";
shapes = (
{
closed = 1;
nodes = (
(263,-194,l),
(263,742,l),
(57,742,l),
(57,-194,l)
);
}
);
width = 320;
},
{
background = {
shapes = (
{
closed = 1;
nodes = (
(201,-194,l),
(201,742,l),
(100,742,l),
(100,-194,l)
);
}
);
};
layerId = "5922F47A-F449-4984-8091-CB5BAF0F3D6E";
shapes = (
{
closed = 1;
nodes = (
(201,-194,l),
(201,742,l),
(100,742,l),
(100,-194,l)
);
}
);
width = 301;
},
{
layerId = "09D0C439-80D3-4C25-AAD4-493BFD6E371F";
shapes = (
{
closed = 1;
nodes = (
(153,-194,l),
(153,742,l),
(133,742,l),
(133,-194,l)
);
}
);
width = 286;
}
);
leftKerningGroup = bar;
rightKerningGroup = bar;
unicode = 124;
}
{
color = 3;
glyphname = braceright;
layers = (
{
layerId = "50D943A8-B490-4162-9D4B-803713767B01";
shapes = (
{
closed = 1;
nodes = (
(84,-194,ls),
(239,-194,o),
(317,-116,o),
(317,19,cs),
(317,145,ls),
(317,175,o),
(335,189,o),
(360,189,cs),
(393,189,l),
(393,359,l),
(360,359,ls),
(335,359,o),
(317,373,o),
(317,403,cs),
(317,529,ls),
(317,664,o),
(239,742,o),
(84,742,cs),
(10,742,l),
(10,572,l),
(20,572,ls),
(67,572,o),
(91,547,o),
(91,503,cs),
(91,408,ls),
(91,298,o),
(138,270,o),
(246,262,c),
(246,286,l),
(138,278,o),
(91,250,o),
(91,140,cs),
(91,45,ls),
(91,1,o),
(67,-24,o),
(20,-24,cs),
(10,-24,l),
(10,-194,l)
);
}
);
width = 438;
},
{
background = {
shapes = (
{
closed = 1;
nodes = (
(171,-194,o),
(226,-140,o),
(226,-38,cs),
(226,179,ls),
(226,213,o),
(243,228,o),
(270,228,cs),
(304,228,l),
(304,320,l),
(270,320,ls),
(243,320,o),
(226,335,o),
(226,369,cs),
(226,586,ls),
(226,688,o),
(171,742,o),
(65,742,cs),
(18,742,l),
(18,650,l),
(41,650,ls),
(92,650,o),
(116,622,o),
(116,573,cs),
(116,371,ls),
(116,297,o),
(143,276,o),
(204,267,c),
(204,281,l),
(143,272,o),
(116,251,o),
(116,177,cs),
(116,-25,ls),
(116,-74,o),
(92,-102,o),
(41,-102,cs),
(18,-102,l),
(18,-194,l),
(65,-194,ls)
);
}
);
};
layerId = "5922F47A-F449-4984-8091-CB5BAF0F3D6E";
shapes = (
{
closed = 1;
nodes = (
(65,-194,ls),
(171,-194,o),
(226,-140,o),
(226,-38,cs),
(226,179,ls),
(226,213,o),
(243,228,o),
(270,228,cs),
(304,228,l),
(304,320,l),
(270,320,ls),
(243,320,o),
(226,335,o),
(226,369,cs),
(226,586,ls),
(226,688,o),
(171,742,o),
(65,742,cs),
(18,742,l),
(18,652,l),
(41,652,ls),
(92,652,o),
(116,624,o),
(116,575,cs),
(116,371,ls),
(116,297,o),
(143,276,o),
(204,267,c),
(204,281,l),
(143,272,o),
(116,251,o),
(116,177,cs),
(116,-27,ls),
(116,-76,o),
(92,-104,o),
(41,-104,cs),
(18,-104,l),
(18,-194,l)
);
}
);
width = 360;
},
{
layerId = "09D0C439-80D3-4C25-AAD4-493BFD6E371F";
shapes = (
{
closed = 1;
nodes = (
(50,-194,ls),
(119,-194,o),
(155,-162,o),
(155,-92,cs),
(155,212,ls),
(155,249,o),
(171,265,o),
(200,265,cs),
(235,265,l),
(235,284,l),
(200,284,ls),
(171,284,o),
(155,299,o),
(155,336,cs),
(155,640,ls),
(155,710,o),
(119,742,o),
(50,742,cs),
(25,742,l),
(25,723,l),
(57,723,ls),
(111,723,o),
(135,693,o),
(135,640,cs),
(135,336,ls),
(135,296,o),
(147,281,o),
(172,272,c),
(172,276,l),
(147,267,o),
(135,252,o),
(135,212,cs),
(135,-92,ls),
(135,-145,o),
(111,-175,o),
(57,-175,cs),
(25,-175,l),
(25,-194,l)
);
}
);
width = 300;
}
);
leftKerningGroup = braceright;
rightKerningGroup = braceright;
unicode = 125;
}
{
color = 3;
glyphname = asciitilde;
layers = (
{
layerId = "BB583698-45B6-491F-B88B-D8AFB040B3E8";
name = Light.Bold;
shapes = (
{
closed = 1;
nodes = (
(345,489,l),
(362,464,o),
(362,425,o),
(329,425,c),
(331,425,o),
(332,424,o),
(333,424,c),
(323,424,o),
(323,419,o),
(297,431,c),
(258,456,o),
(188,479,o),
(160,479,cs),
(72,479,o),
(9,424,o),
(-1,303,c),
(52,286,l),
(79,267,o),
(113,255,o),
(135,245,c),
(139,310,o),
(176,318,o),
(224,329,c),
(248,346,o),
(316,273,o),
(365,275,c),
(375,275,o),
(385,277,o),
(393,279,cs),
(442,292,o),
(492,329,o),
(499,450,c)
);
}
);
width = 504;
},
{
layerId = "50D943A8-B490-4162-9D4B-803713767B01";
shapes = (
{
closed = 1;
nodes = (
(508,235,o),
(578,317,o),
(580,456,c),
(442,456,l),
(440,416,o),
(420,393,o),
(391,393,cs),
(346,393,o),
(302,468,o),
(211,468,cs),
(112,468,o),
(42,386,o),
(40,247,c),
(178,247,l),
(180,287,o),
(200,310,o),
(229,310,cs),
(274,310,o),
(318,235,o),
(409,235,cs)
);
}
);
width = 620;
},
{
background = {
shapes = (
{
closed = 1;
nodes = (
(472,261,o),
(527,325,o),
(530,433,c),
(459,433,l),
(457,380,o),
(430,347,o),
(386,347,cs),
(320,347,o),
(286,440,o),
(192,440,cs),
(114,440,o),
(59,376,o),
(56,269,c),
(127,269,l),
(129,321,o),
(157,354,o),
(200,354,cs),
(266,354,o),
(301,261,o),
(394,261,cs)
);
}
);
};
layerId = "5922F47A-F449-4984-8091-CB5BAF0F3D6E";
shapes = (
{
closed = 1;
nodes = (
(472,261,o),
(527,315,o),
(530,433,c),
(459,433,l),
(457,380,o),
(432,345,o),
(390,345,cs),
(332,345,o),
(289,440,o),
(192,440,cs),
(114,440,o),
(59,386,o),
(56,269,c),
(127,269,l),
(129,322,o),
(155,356,o),
(196,356,cs),
(254,356,o),
(298,261,o),
(394,261,cs)
);
}
);
width = 586;
},
{
layerId = "09D0C439-80D3-4C25-AAD4-493BFD6E371F";
shapes = (
{
closed = 1;
nodes = (
(444,286,o),
(487,333,o),
(491,411,c),
(473,411,l),
(470,346,o),
(437,304,o),
(382,304,cs),
(300,304,o),
(273,414,o),
(178,414,cs),
(116,414,o),
(73,367,o),
(69,289,c),
(87,289,l),
(90,354,o),
(123,396,o),
(178,396,cs),
(260,396,o),
(287,286,o),
(382,286,cs)
);
}
);
width = 560;
}
);
leftKerningGroup = hyphen;
rightKerningGroup = hyphen;
unicode = 126;
}
{
glyphname = exclamdown;
layers = (
{
layerId = "50D943A8-B490-4162-9D4B-803713767B01";
shapes = (
{
closed = 1;
nodes = (
(67,279,l),
(22,-154,l),
(292,-154,l),
(247,279,l)
);
},
{
closed = 1;
nodes = (
(79,557,o),
(25,503,o),
(25,437,cs),
(25,370,o),
(79,319,o),
(157,319,cs),
(235,319,o),
(289,370,o),
(289,437,cs),
(289,503,o),
(235,557,o),
(157,557,cs)
);
}
);
width = 314;
},
{
background = {
shapes = (
{
closed = 1;
nodes = (
(93,305,l),
(72,-154,l),
(202,-154,l),
(180,305,l)
);
},
{
closed = 1;
nodes = (
(95,538,o),
(64,506,o),
(64,466,cs),
(64,427,o),
(95,396,o),
(137,396,cs),
(179,396,o),
(209,427,o),
(209,466,cs),
(209,506,o),
(179,538,o),
(137,538,cs)
);
}
);
};
layerId = "5922F47A-F449-4984-8091-CB5BAF0F3D6E";
shapes = (
{
closed = 1;
nodes = (
(93,305,l),
(72,-154,l),
(202,-154,l),
(180,305,l)
);
},
{
closed = 1;
nodes = (
(95,538,o),
(64,506,o),
(64,466,cs),
(64,427,o),
(95,396,o),
(137,396,cs),
(179,396,o),
(209,427,o),
(209,466,cs),
(209,506,o),
(179,538,o),
(137,538,cs)
);
}
);
width = 273;
},
{
layerId = "09D0C439-80D3-4C25-AAD4-493BFD6E371F";
shapes = (
{
closed = 1;
nodes = (
(114,329,l),
(110,-154,l),
(132,-154,l),
(128,329,l)
);
},
{
closed = 1;
nodes = (
(107,520,o),
(95,508,o),
(95,494,cs),
(95,480,o),
(107,468,o),
(121,468,cs),
(135,468,o),
(147,480,o),
(147,494,cs),
(147,508,o),
(135,520,o),
(121,520,cs)
);
}
);
width = 242;
}
);
leftKerningGroup = exclamdown;
rightKerningGroup = exclamdown;
unicode = 161;
}
{
color = 9;
glyphname = cent;
layers = (
{
hints = (
{
place = (229,166);
type = Stem;
}
);
layerId = "DA54131A-4DF7-4FD1-94A5-DC042A0ECC67";
name = "Bold.Bold [179]";
shapes = (
{
closed = 1;
nodes = (
(477,-10,o),
(577,51,o),
(613,152,c),
(438,238,l),
(415,187,o),
(382,166,o),
(343,166,cs),
(292,166,o),
(250,202,o),
(250,274,cs),
(250,345,o),
(292,381,o),
(343,381,cs),
(382,381,o),
(415,360,o),
(438,309,c),
(613,395,l),
(577,496,o),
(477,557,o),
(344,557,cs),
(155,557,o),
(21,440,o),
(21,274,cs),
(21,107,o),
(155,-10,o),
(344,-10,cs)
);
},
{
closed = 1;
nodes = (
(404,-120,l),
(404,10,l),
(263,10,l),
(263,-120,l)
);
},
{
closed = 1;
nodes = (
(404,537,l),
(404,667,l),
(263,667,l),
(263,537,l)
);
}
);
width = 615;
},
{
hints = (
{
place = (229,166);
type = Stem;
}
);
layerId = "1D080760-4FD1-465A-AE80-6E2F24185885";
shapes = (
{
closed = 1;
nodes = (
(404,-120,l),
(404,667,l),
(263,667,l),
(263,-120,l)
);
},
{
closed = 1;
nodes = (
(477,-10,o),
(577,51,o),
(613,152,c),
(438,238,l),
(415,187,o),
(382,166,o),
(343,166,cs),
(292,166,o),
(250,202,o),
(250,274,cs),
(250,345,o),
(292,381,o),
(343,381,cs),
(382,381,o),
(415,360,o),
(438,309,c),
(613,395,l),
(577,496,o),
(477,557,o),
(344,557,cs),
(155,557,o),
(21,440,o),
(21,274,cs),
(21,107,o),
(155,-10,o),
(344,-10,cs)
);
}
);
width = 615;
},
{
hints = (
{
place = (265,83);
type = Stem;
}
);
layerId = "860BB73A-8EB4-4502-843E-60E65B14DF23";
associatedMasterId = "BF88A9B2-CED4-4B03-8FC2-F1361A8F7788";
name = "SemiBold [179]";
shapes = (
{
closed = 1;
nodes = (
(424,-6,o),
(505,36,o),
(546,113,c),
(462,165,l),
(429,113,o),
(379,90,o),
(323,90,cs),
(225,90,o),
(151,157,o),
(151,266,cs),
(151,374,o),
(225,442,o),
(323,442,cs),
(379,442,o),
(429,418,o),
(462,367,c),
(546,419,l),
(505,497,o),
(424,538,o),
(324,538,cs),
(159,538,o),
(40,425,o),
(40,266,cs),
(40,107,o),
(159,-6,o),
(324,-6,cs)
);
},
{
closed = 1;
nodes = (
(352,-120,l),
(352,25,l),
(280,25,l),
(280,-120,l)
);
},
{
closed = 1;
nodes = (
(352,485,l),
(352,652,l),
(280,652,l),
(280,485,l)
);
}
);
width = 576;
},
{
background = {
shapes = (
{
closed = 1;
nodes = (
(352,-120,l),
(352,652,l),
(280,652,l),
(280,-120,l)
);
},
{
closed = 1;
nodes = (
(424,-6,o),
(505,38,o),
(546,115,c),
(462,165,l),
(429,112,o),
(379,89,o),
(323,89,cs),
(225,89,o),
(151,157,o),
(151,266,cs),
(151,374,o),
(225,443,o),
(323,443,cs),
(379,443,o),
(429,419,o),
(462,367,c),
(546,416,l),
(505,494,o),
(424,538,o),
(324,538,cs),
(158,538,o),
(40,426,o),
(40,266,cs),
(40,106,o),
(158,-6,o),
(324,-6,cs)
);
}
);
};
hints = (
{
place = (265,83);
type = Stem;
}
);
layerId = "BF88A9B2-CED4-4B03-8FC2-F1361A8F7788";
shapes = (
{
closed = 1;
nodes = (
(352,-120,l),
(352,652,l),
(280,652,l),
(280,-120,l)
);
},
{
closed = 1;
nodes = (
(424,-6,o),
(505,36,o),
(546,113,c),
(462,165,l),
(429,113,o),
(379,90,o),
(323,90,cs),
(225,90,o),
(151,157,o),
(151,266,cs),
(151,374,o),
(225,442,o),
(323,442,cs),
(379,442,o),
(429,418,o),
(462,367,c),
(546,419,l),
(505,497,o),
(424,538,o),
(324,538,cs),
(159,538,o),
(40,425,o),
(40,266,cs),
(40,107,o),
(159,-6,o),
(324,-6,cs)
);
}
);
width = 576;
},
{
hints = (
{
place = (294,20);
type = Stem;
}
);
layerId = "BE9EF097-1901-49F4-A2DE-F2A985D0844B";
shapes = (
{
closed = 1;
nodes = (
(312,-120,l),
(312,637,l),
(293,637,l),
(293,-120,l)
);
},
{
closed = 1;
nodes = (
(382,-3,o),
(450,25,o),
(494,81,c),
(480,96,l),
(440,42,o),
(377,16,o),
(308,16,cs),
(173,16,o),
(74,115,o),
(74,259,cs),
(74,402,o),
(173,501,o),
(308,501,cs),
(377,501,o),
(440,475,o),
(480,421,c),
(494,436,l),
(450,492,o),
(382,520,o),
(308,520,cs),
(161,520,o),
(54,413,o),
(54,259,cs),
(54,105,o),
(161,-3,o),
(308,-3,cs)
);
}
);
width = 545;
}
);
leftKerningGroup = o;
rightKerningGroup = c;
unicode = 162;
}
{
color = 3;
glyphname = yen;
layers = (
{
layerId = "50D943A8-B490-4162-9D4B-803713767B01";
shapes = (
{
closed = 1;
nodes = (
(503,0,l),
(503,307,l),
(451,166,l),
(797,700,l),
(566,700,l),
(319,329,l),
(470,329,l),
(225,700,l),
(-27,700,l),
(321,166,l),
(267,307,l),
(267,0,l)
);
},
{
closed = 1;
nodes = (
(663,60,l),
(663,172,l),
(107,172,l),
(107,60,l)
);
},
{
closed = 1;
nodes = (
(663,198,l),
(663,310,l),
(107,310,l),
(107,198,l)
);
}
);
width = 770;
},
{
background = {
shapes = (
{
closed = 1;
nodes = (
(414,0,l),
(414,305,l),
(388,229,l),
(720,700,l),
(606,700,l),
(326,319,l),
(396,319,l),
(117,700,l),
(-6,700,l),
(326,229,l),
(300,305,l),
(300,0,l)
);
},
{
closed = 1;
nodes = (
(619,110,l),
(619,174,l),
(95,174,l),
(95,110,l)
);
},
{
closed = 1;
nodes = (
(619,248,l),
(619,312,l),
(95,312,l),
(95,248,l)
);
}
);
};
layerId = "5922F47A-F449-4984-8091-CB5BAF0F3D6E";
shapes = (
{
closed = 1;
nodes = (
(414,0,l),
(414,305,l),
(388,229,l),
(720,700,l),
(604,700,l),
(324,303,l),
(394,303,l),
(115,700,l),
(-6,700,l),
(326,229,l),
(300,305,l),
(300,0,l)
);
},
{
closed = 1;
nodes = (
(619,110,l),
(619,174,l),
(95,174,l),
(95,110,l)
);
},
{
closed = 1;
nodes = (
(619,248,l),
(619,312,l),
(95,312,l),
(95,248,l)
);
}
);
width = 714;
},
{
layerId = "09D0C439-80D3-4C25-AAD4-493BFD6E371F";
shapes = (
{
closed = 1;
nodes = (
(345,0,l),
(345,303,l),
(340,288,l),
(660,700,l),
(637,700,l),
(331,309,l),
(339,309,l),
(33,700,l),
(10,700,l),
(330,288,l),
(325,303,l),
(325,0,l)
);
},
{
closed = 1;
nodes = (
(585,157,l),
(585,175,l),
(85,175,l),
(85,157,l)
);
},
{
closed = 1;
nodes = (
(585,295,l),
(585,313,l),
(85,313,l),
(85,295,l)
);
}
);
width = 670;
}
);
leftKerningGroup = yen;
rightKerningGroup = yen;
unicode = 165;
}
{
glyphname = brokenbar;
layers = (
{
layerId = "1D080760-4FD1-465A-AE80-6E2F24185885";
shapes = (
{
closed = 1;
nodes = (
(263,392,l),
(263,742,l),
(57,742,l),
(57,392,l)
);
},
{
closed = 1;
nodes = (
(263,-194,l),
(263,156,l),
(57,156,l),
(57,-194,l)
);
}
);
width = 320;
},
{
background = {
shapes = (
{
closed = 1;
nodes = (
(201,392,l),
(201,742,l),
(100,742,l),
(100,392,l)
);
},
{
closed = 1;
nodes = (
(201,-194,l),
(201,156,l),
(100,156,l),
(100,-194,l)
);
}
);
};
layerId = "BF88A9B2-CED4-4B03-8FC2-F1361A8F7788";
shapes = (
{
closed = 1;
nodes = (
(201,392,l),
(201,742,l),
(100,742,l),
(100,392,l)
);
},
{
closed = 1;
nodes = (
(201,-194,l),
(201,156,l),
(100,156,l),
(100,-194,l)
);
}
);
width = 301;
},
{
layerId = "BE9EF097-1901-49F4-A2DE-F2A985D0844B";
shapes = (
{
closed = 1;
nodes = (
(153,392,l),
(153,742,l),
(133,742,l),
(133,392,l)
);
},
{
closed = 1;
nodes = (
(153,-194,l),
(153,156,l),
(133,156,l),
(133,-194,l)
);
}
);
width = 286;
}
);
leftKerningGroup = brokenbar;
rightKerningGroup = brokenbar;
unicode = 166;
}
{
color = 3;
glyphname = section;
layers = (
{
layerId = "50D943A8-B490-4162-9D4B-803713767B01";
shapes = (
{
closed = 1;
nodes = (
(394,145,l),
(484,177,o),
(526,241,o),
(526,308,cs),
(526,521,o),
(236,461,o),
(236,523,cs),
(236,541,o),
(250,556,o),
(308,556,cs),
(362,556,o),
(418,547,o),
(474,516,c),
(536,665,l),
(480,697,o),
(375,710,o),
(318,710,cs),
(125,710,o),
(38,624,o),
(38,515,cs),
(38,304,o),
(331,373,o),
(331,299,cs),
(331,278,o),
(315,257,o),
(287,247,c)
);
},
{
closed = 1;
nodes = (
(425,-110,o),
(508,-24,o),
(508,85,cs),
(508,297,o),
(214,228,o),
(214,302,cs),
(214,323,o),
(230,344,o),
(258,354,c),
(151,456,l),
(61,424,o),
(19,360,o),
(19,283,cs),
(19,80,o),
(310,150,o),
(310,77,cs),
(310,59,o),
(295,44,o),
(255,44,cs),
(204,44,o),
(130,62,o),
(78,93,c),
(16,-56,l),
(72,-88,o),
(170,-110,o),
(257,-110,cs)
);
}
);
width = 549;
},
{
background = {
shapes = (
{
closed = 1;
nodes = (
(425,170,o),
(472,227,o),
(472,295,cs),
(472,503,o),
(154,420,o),
(154,543,cs),
(154,594,o),
(195,622,o),
(283,622,cs),
(339,622,o),
(397,609,o),
(445,577,c),
(479,657,l),
(432,689,o),
(348,706,o),
(287,706,cs),
(134,706,o),
(56,639,o),
(56,539,cs),
(56,335,o),
(376,421,o),
(376,291,cs),
(376,244,o),
(338,212,o),
(288,203,c),
(350,147,l)
);
},
{
closed = 1;
nodes = (
(374,-106,o),
(451,-39,o),
(451,60,cs),
(451,266,o),
(130,179,o),
(130,310,cs),
(130,356,o),
(167,387,o),
(216,397,c),
(156,453,l),
(81,430,o),
(34,374,o),
(34,300,cs),
(34,97,o),
(353,185,o),
(353,57,cs),
(353,6,o),
(312,-22,o),
(238,-22,cs),
(174,-22,o),
(102,3,o),
(59,37,c),
(25,-44,l),
(71,-80,o),
(159,-106,o),
(238,-106,cs)
);
}
);
};
layerId = "5922F47A-F449-4984-8091-CB5BAF0F3D6E";
shapes = (
{
closed = 1;
nodes = (
(360,147,l),
(425,170,o),
(472,224,o),
(472,292,cs),
(472,504,o),
(154,424,o),
(154,543,cs),
(154,591,o),
(198,619,o),
(283,619,cs),
(342,619,o),
(397,606,o),
(445,574,c),
(479,657,l),
(436,689,o),
(352,706,o),
(291,706,cs),
(144,706,o),
(56,639,o),
(56,539,cs),
(56,335,o),
(376,421,o),
(376,291,cs),
(376,244,o),
(338,212,o),
(288,203,c)
);
},
{
closed = 1;
nodes = (
(364,-106,o),
(451,-39,o),
(451,60,cs),
(451,266,o),
(130,179,o),
(130,310,cs),
(130,356,o),
(167,387,o),
(216,397,c),
(146,453,l),
(81,430,o),
(34,378,o),
(34,304,cs),
(34,97,o),
(353,181,o),
(353,57,cs),
(353,9,o),
(309,-19,o),
(238,-19,cs),
(171,-19,o),
(102,6,o),
(59,40,c),
(25,-44,l),
(67,-80,o),
(155,-106,o),
(234,-106,cs)
);
}
);
width = 505;
},
{
layerId = "09D0C439-80D3-4C25-AAD4-493BFD6E371F";
shapes = (
{
closed = 1;
nodes = (
(315,148,l),
(380,164,o),
(430,213,o),
(430,283,cs),
(430,486,o),
(90,382,o),
(90,562,cs),
(90,644,o),
(152,684,o),
(263,684,cs),
(321,684,o),
(381,667,o),
(422,634,c),
(434,650,l),
(394,682,o),
(327,703,o),
(263,703,cs),
(141,703,o),
(70,653,o),
(70,562,cs),
(70,364,o),
(411,467,o),
(411,283,cs),
(411,211,o),
(356,170,o),
(289,161,c)
);
},
{
closed = 1;
nodes = (
(335,-103,o),
(406,-53,o),
(406,36,cs),
(406,236,o),
(65,133,o),
(65,317,cs),
(65,387,o),
(119,428,o),
(184,438,c),
(160,451,l),
(96,435,o),
(46,387,o),
(46,317,cs),
(46,114,o),
(386,218,o),
(386,38,cs),
(386,-44,o),
(326,-84,o),
(224,-84,cs),
(151,-84,o),
(81,-52,o),
(44,-16,c),
(32,-32,l),
(71,-73,o),
(150,-103,o),
(224,-103,cs)
);
}
);
width = 471;
}
);
leftKerningGroup = section;
rightKerningGroup = section;
unicode = 167;
}
{
color = 3;
glyphname = ordfeminine;
layers = (
{
layerId = "50D943A8-B490-4162-9D4B-803713767B01";
shapes = (
{
closed = 1;
nodes = (
(386,420,l),
(386,593,ls),
(386,703,o),
(315,752,o),
(192,752,cs),
(138,752,o),
(75,739,o),
(33,715,c),
(81,622,l),
(104,638,o),
(139,647,o),
(166,647,cs),
(214,647,o),
(233,630,o),
(233,601,cs),
(233,492,l),
(244,477,l),
(244,420,l)
);
},
{
closed = 1;
nodes = (
(206,414,o),
(241,437,o),
(252,485,c),
(233,527,l),
(226,507,o),
(209,499,o),
(192,499,cs),
(173,499,o),
(161,509,o),
(161,522,cs),
(161,538,o),
(174,546,o),
(202,546,cs),
(247,546,l),
(247,614,l),
(178,614,ls),
(68,614,o),
(17,580,o),
(17,516,cs),
(17,460,o),
(60,414,o),
(146,414,cs)
);
}
);
width = 422;
},
{
background = {
shapes = (
{
closed = 1;
nodes = (
(344,427,l),
(344,614,ls),
(344,705,o),
(289,748,o),
(190,748,cs),
(139,748,o),
(84,732,o),
(48,707,c),
(74,654,l),
(101,675,o),
(140,688,o),
(179,688,cs),
(238,688,o),
(266,663,o),
(266,617,cs),
(266,504,l),
(272,492,l),
(272,427,l)
);
},
{
closed = 1;
nodes = (
(223,423,o),
(264,451,o),
(278,499,c),
(266,525,l),
(251,491,o),
(222,473,o),
(180,473,cs),
(135,473,o),
(109,492,o),
(109,521,cs),
(109,549,o),
(131,567,o),
(184,567,cs),
(277,567,l),
(277,608,l),
(173,608,ls),
(75,608,o),
(35,572,o),
(35,518,cs),
(35,464,o),
(78,423,o),
(158,423,cs)
);
}
);
};
layerId = "5922F47A-F449-4984-8091-CB5BAF0F3D6E";
shapes = (
{
closed = 1;
nodes = (
(344,427,l),
(344,614,ls),
(344,705,o),
(290,748,o),
(190,748,cs),
(138,748,o),
(80,732,o),
(45,705,c),
(74,654,l),
(101,675,o),
(142,688,o),
(182,688,cs),
(238,688,o),
(266,666,o),
(266,617,cs),
(266,504,l),
(272,492,l),
(272,427,l)
);
},
{
closed = 1;
nodes = (
(223,423,o),
(264,445,o),
(278,472,c),
(266,521,l),
(251,493,o),
(222,477,o),
(178,477,cs),
(135,477,o),
(109,492,o),
(109,521,cs),
(109,547,o),
(131,563,o),
(184,563,cs),
(277,563,l),
(277,612,l),
(173,612,ls),
(75,612,o),
(35,572,o),
(35,518,cs),
(35,464,o),
(78,423,o),
(162,423,cs)
);
}
);
width = 406;
},
{
layerId = "09D0C439-80D3-4C25-AAD4-493BFD6E371F";
shapes = (
{
closed = 1;
nodes = (
(312,434,l),
(312,633,ls),
(312,706,o),
(268,744,o),
(189,744,cs),
(139,744,o),
(91,726,o),
(59,699,c),
(69,685,l),
(98,710,o),
(140,726,o),
(189,726,cs),
(257,726,o),
(292,695,o),
(292,633,cs),
(292,516,l),
(293,506,l),
(293,434,l)
);
},
{
closed = 1;
nodes = (
(236,432,o),
(282,464,o),
(299,513,c),
(292,523,l),
(271,475,o),
(232,448,o),
(170,448,cs),
(105,448,o),
(68,476,o),
(68,520,cs),
(68,559,o),
(97,587,o),
(170,587,cs),
(300,587,l),
(300,602,l),
(170,602,ls),
(80,602,o),
(49,564,o),
(49,519,cs),
(49,467,o),
(92,432,o),
(167,432,cs)
);
}
);
width = 394;
}
);
leftKerningGroup = asterisk;
rightKerningGroup = asterisk;
unicode = 170;
}
{
color = 3;
glyphname = logicalnot;
layers = (
{
layerId = "50D943A8-B490-4162-9D4B-803713767B01";
shapes = (
{
closed = 1;
nodes = (
(55,435,l),
(55,265,l),
(385,265,l),
(385,95,l),
(565,95,l),
(565,435,l)
);
}
);
width = 620;
},
{
background = {
shapes = (
{
closed = 1;
nodes = (
(66,396,l),
(66,304,l),
(430,304,l),
(430,128,l),
(520,128,l),
(520,396,l)
);
}
);
};
layerId = "5922F47A-F449-4984-8091-CB5BAF0F3D6E";
shapes = (
{
closed = 1;
nodes = (
(66,396,l),
(66,306,l),
(424,306,l),
(424,128,l),
(520,128,l),
(520,396,l)
);
}
);
width = 586;
},
{
layerId = "09D0C439-80D3-4C25-AAD4-493BFD6E371F";
shapes = (
{
closed = 1;
nodes = (
(75,359,l),
(75,340,l),
(465,340,l),
(465,159,l),
(485,159,l),
(485,359,l)
);
}
);
width = 560;
}
);
leftKerningGroup = hyphen;
rightKerningGroup = logicalnot;
unicode = 172;
}
{
color = 3;
glyphname = plusminus;
layers = (
{
layerId = "50D943A8-B490-4162-9D4B-803713767B01";
shapes = (
{
closed = 1;
nodes = (
(565,0,l),
(565,170,l),
(55,170,l),
(55,0,l)
);
},
{
closed = 1;
nodes = (
(400,235,l),
(400,700,l),
(220,700,l),
(220,235,l)
);
},
{
closed = 1;
nodes = (
(565,387,l),
(565,548,l),
(55,548,l),
(55,387,l)
);
}
);
width = 620;
},
{
background = {
shapes = (
{
closed = 1;
nodes = (
(520,0,l),
(520,92,l),
(66,92,l),
(66,0,l)
);
},
{
closed = 1;
nodes = (
(338,191,l),
(338,623,l),
(248,623,l),
(248,191,l)
);
},
{
closed = 1;
nodes = (
(520,363,l),
(520,451,l),
(66,451,l),
(66,363,l)
);
}
);
};
layerId = "5922F47A-F449-4984-8091-CB5BAF0F3D6E";
shapes = (
{
closed = 1;
nodes = (
(520,0,l),
(520,90,l),
(66,90,l),
(66,0,l)
);
},
{
closed = 1;
nodes = (
(341,191,l),
(341,623,l),
(245,623,l),
(245,191,l)
);
},
{
closed = 1;
nodes = (
(520,362,l),
(520,452,l),
(66,452,l),
(66,362,l)
);
}
);
width = 586;
},
{
layerId = "09D0C439-80D3-4C25-AAD4-493BFD6E371F";
shapes = (
{
closed = 1;
nodes = (
(485,0,l),
(485,19,l),
(75,19,l),
(75,0,l)
);
},
{
closed = 1;
nodes = (
(290,150,l),
(290,550,l),
(270,550,l),
(270,150,l)
);
},
{
closed = 1;
nodes = (
(485,340,l),
(485,359,l),
(75,359,l),
(75,340,l)
);
}
);
width = 560;
}
);
leftKerningGroup = plus;
rightKerningGroup = plus;
unicode = 177;
}
{
glyphname = paragraph;
layers = (
{
layerId = "BB583698-45B6-491F-B88B-D8AFB040B3E8";
name = Light.Bold;
shapes = (
{
closed = 1;
nodes = (
(242,-98,l),
(414,-98,l),
(414,601,l),
(497,601,l),
(497,-98,l),
(672,-98,l),
(672,755,l),
(285,755,ls),
(103,755,o),
(33,648,o),
(33,540,cs),
(33,459,o),
(77,331,o),
(249,331,c),
(247,331,o),
(245,330,o),
(242,328,c)
);
}
);
width = 672;
},
{
layerId = "50D943A8-B490-4162-9D4B-803713767B01";
shapes = (
{
closed = 1;
nodes = (
(411,-100,l),
(411,587,l),
(491,587,l),
(491,-100,l),
(673,-100,l),
(673,742,l),
(268,742,ls),
(111,742,o),
(8,663,o),
(8,537,cs),
(8,414,o),
(106,337,o),
(229,333,c),
(229,-100,l)
);
}
);
width = 730;
},
{
background = {
shapes = (
{
closed = 1;
nodes = (
(318,-100,l),
(318,657,l),
(466,657,l),
(466,-100,l),
(557,-100,l),
(557,742,l),
(244,742,ls),
(107,742,o),
(18,672,o),
(18,560,cs),
(18,449,o),
(105,379,o),
(227,377,c),
(227,-100,l)
);
}
);
};
layerId = "5922F47A-F449-4984-8091-CB5BAF0F3D6E";
shapes = (
{
closed = 1;
nodes = (
(318,-100,l),
(318,657,l),
(466,657,l),
(466,-100,l),
(557,-100,l),
(557,742,l),
(244,742,ls),
(107,742,o),
(18,672,o),
(18,560,cs),
(18,449,o),
(105,379,o),
(227,377,c),
(227,-100,l)
);
}
);
width = 657;
},
{
layerId = "09D0C439-80D3-4C25-AAD4-493BFD6E371F";
shapes = (
{
closed = 1;
nodes = (
(245,-100,l),
(245,723,l),
(447,723,l),
(447,-100,l),
(467,-100,l),
(467,742,l),
(225,742,ls),
(104,742,o),
(25,681,o),
(25,581,cs),
(25,482,o),
(104,419,o),
(225,419,c),
(225,-100,l)
);
}
);
width = 600;
}
);
leftKerningGroup = paragraph;
rightKerningGroup = H;
unicode = 182;
}
{
color = 3;
glyphname = periodcentered;
layers = (
{
layerId = "1D080760-4FD1-465A-AE80-6E2F24185885";
shapes = (
{
closed = 1;
nodes = (
(250,159,o),
(304,211,o),
(304,290,cs),
(304,369,o),
(250,419,o),
(172,419,cs),
(94,419,o),
(40,369,o),
(40,290,cs),
(40,211,o),
(94,159,o),
(172,159,cs)
);
}
);
width = 344;
},
{
background = {
shapes = (
{
closed = 1;
nodes = (
(180,200,o),
(210,231,o),
(210,277,cs),
(210,322,o),
(180,353,o),
(138,353,cs),
(96,353,o),
(65,322,o),
(65,277,cs),
(65,231,o),
(96,200,o),
(138,200,cs)
);
}
);
};
layerId = "BF88A9B2-CED4-4B03-8FC2-F1361A8F7788";
shapes = (
{
closed = 1;
nodes = (
(180,200,o),
(212,231,o),
(212,277,cs),
(212,322,o),
(180,353,o),
(138,353,cs),
(96,353,o),
(63,322,o),
(63,277,cs),
(63,231,o),
(96,200,o),
(138,200,cs)
);
}
);
width = 275;
},
{
layerId = "BE9EF097-1901-49F4-A2DE-F2A985D0844B";
shapes = (
{
closed = 1;
nodes = (
(125,238,o),
(137,250,o),
(137,264,cs),
(137,278,o),
(125,290,o),
(111,290,cs),
(97,290,o),
(85,278,o),
(85,264,cs),
(85,250,o),
(97,238,o),
(111,238,cs)
);
}
);
width = 222;
}
);
leftKerningGroup = hyphen;
rightKerningGroup = hyphen;
unicode = 183;
}
{
color = 3;
glyphname = questiondown;
layers = (
{
layerId = "50D943A8-B490-4162-9D4B-803713767B01";
shapes = (
{
closed = 1;
nodes = (
(467,-169,o),
(568,-103,o),
(619,-7,c),
(441,82,l),
(420,40,o),
(380,14,o),
(337,14,cs),
(300,14,o),
(270,30,o),
(270,61,cs),
(270,122,o),
(399,158,o),
(399,279,c),
(193,279,l),
(193,202,o),
(33,175,o),
(33,22,cs),
(33,-103,o),
(150,-169,o),
(307,-169,cs)
);
},
{
closed = 1;
nodes = (
(374,319,o),
(428,370,o),
(428,437,cs),
(428,503,o),
(374,557,o),
(296,557,cs),
(218,557,o),
(164,503,o),
(164,437,cs),
(164,370,o),
(218,319,o),
(296,319,cs)
);
}
);
width = 606;
},
{
background = {
shapes = (
{
closed = 1;
nodes = (
(244,305,l),
(244,186,o),
(65,172,o),
(65,11,cs),
(65,-96,o),
(162,-163,o),
(305,-163,cs),
(433,-163,o),
(520,-114,o),
(571,-38,c),
(485,13,l),
(448,-37,o),
(391,-64,o),
(318,-64,cs),
(231,-64,o),
(179,-24,o),
(179,31,cs),
(179,141,o),
(346,158,o),
(346,305,c)
);
},
{
closed = 1;
nodes = (
(253,538,o),
(223,506,o),
(223,466,cs),
(223,427,o),
(253,396,o),
(295,396,cs),
(337,396,o),
(367,427,o),
(367,466,cs),
(367,506,o),
(337,538,o),
(295,538,cs)
);
}
);
};
layerId = "5922F47A-F449-4984-8091-CB5BAF0F3D6E";
shapes = (
{
closed = 1;
nodes = (
(425,-163,o),
(514,-120,o),
(570,-47,c),
(486,12,l),
(448,-38,o),
(392,-66,o),
(314,-66,cs),
(231,-66,o),
(180,-25,o),
(180,26,cs),
(180,131,o),
(353,158,o),
(353,305,c),
(238,305,l),
(237,186,o),
(66,172,o),
(65,13,cs),
(64,-96,o),
(160,-163,o),
(306,-163,cs)
);
},
{
closed = 1;
nodes = (
(337,396,o),
(367,427,o),
(367,466,cs),
(367,506,o),
(337,538,o),
(295,538,cs),
(253,538,o),
(223,506,o),
(223,466,cs),
(223,427,o),
(253,396,o),
(295,396,cs)
);
}
);
width = 577;
},
{
layerId = "09D0C439-80D3-4C25-AAD4-493BFD6E371F";
shapes = (
{
closed = 1;
nodes = (
(406,-157,o),
(482,-125,o),
(534,-67,c),
(520,-53,l),
(469,-110,o),
(400,-138,o),
(304,-138,cs),
(177,-138,o),
(109,-75,o),
(109,2,cs),
(109,159,o),
(304,158,o),
(304,329,c),
(284,329,l),
(284,170,o),
(89,170,o),
(89,1,cs),
(89,-89,o),
(172,-157,o),
(304,-157,cs)
);
},
{
closed = 1;
nodes = (
(308,468,o),
(320,480,o),
(320,494,cs),
(320,508,o),
(308,520,o),
(294,520,cs),
(280,520,o),
(268,508,o),
(268,494,cs),
(268,480,o),
(280,468,o),
(294,468,cs)
);
}
);
width = 554;
}
);
leftKerningGroup = questiondown;
rightKerningGroup = questiondown;
unicode = 191;
}
{
color = 3;
glyphname = AE;
layers = (
{
anchors = (
{
name = bottom;
position = "{619, 0}";
},
{
name = top;
position = "{619, 700}";
}
);
layerId = "50D943A8-B490-4162-9D4B-803713767B01";
shapes = (
{
closed = 1;
nodes = (
(221,0,l),
(527,616,l),
(385,522,l),
(584,522,l),
(584,700,l),
(350,700,l),
(-19,0,l)
);
},
{
closed = 1;
nodes = (
(584,122,l),
(584,292,l),
(219,292,l),
(219,122,l)
);
},
{
closed = 1;
nodes = (
(719,270,l),
(1031,270,l),
(1031,440,l),
(719,440,l)
);
},
{
closed = 1;
nodes = (
(735,522,l),
(1072,522,l),
(1072,700,l),
(503,700,l),
(503,0,l),
(1085,0,l),
(1085,178,l),
(735,178,l)
);
}
);
width = 1119;
},
{
anchors = (
{
name = bottom;
position = "{541, 0}";
},
{
name = top;
position = "{541, 700}";
}
);
background = {
shapes = (
{
closed = 1;
nodes = (
(1315,0,l),
(1693,652,l),
(1623,604,l),
(1723,604,l),
(1723,700,l),
(1609,700,l),
(1197,0,l)
);
},
{
closed = 1;
nodes = (
(1723,168,l),
(1723,260,l),
(1387,260,l),
(1382,168,l)
);
},
{
closed = 1;
nodes = (
(1787,309,l),
(2144,309,l),
(2144,401,l),
(1787,401,l)
);
},
{
closed = 1;
nodes = (
(1797,604,l),
(2187,604,l),
(2187,700,l),
(1684,700,l),
(1684,0,l),
(2201,0,l),
(2201,96,l),
(1797,96,l)
);
},
{
closed = 1;
nodes = (
(588,307,l),
(944,307,l),
(944,404,l),
(588,404,l)
);
},
{
closed = 1;
nodes = (
(597,601,l),
(987,601,l),
(987,700,l),
(485,700,l),
(485,0,l),
(1001,0,l),
(1001,99,l),
(597,99,l)
);
}
);
};
layerId = "5922F47A-F449-4984-8091-CB5BAF0F3D6E";
shapes = (
{
closed = 1;
nodes = (
(115,0,l),
(493,652,l),
(423,601,l),
(523,601,l),
(523,700,l),
(409,700,l),
(-3,0,l)
);
},
{
closed = 1;
nodes = (
(523,168,l),
(523,260,l),
(187,260,l),
(182,168,l)
);
},
{
closed = 1;
nodes = (
(589,307,l),
(944,307,l),
(944,404,l),
(590,404,l)
);
},
{
closed = 1;
nodes = (
(599,601,l),
(987,601,l),
(987,700,l),
(485,700,l),
(485,0,l),
(1001,0,l),
(1001,99,l),
(599,99,l)
);
}
);
width = 1055;
},
{
anchors = (
{
name = bottom;
position = "{480, 0}";
},
{
name = top;
position = "{480, 700}";
}
);
layerId = "09D0C439-80D3-4C25-AAD4-493BFD6E371F";
shapes = (
{
closed = 1;
nodes = (
(32,0,l),
(467,685,l),
(453,681,l),
(475,681,l),
(475,700,l),
(454,700,l),
(9,0,l)
);
},
{
closed = 1;
nodes = (
(475,211,l),
(475,230,l),
(163,230,l),
(153,211,l)
);
},
{
closed = 1;
nodes = (
(485,346,l),
(876,346,l),
(876,365,l),
(485,365,l)
);
},
{
closed = 1;
nodes = (
(490,681,l),
(921,681,l),
(921,700,l),
(470,700,l),
(470,0,l),
(936,0,l),
(936,19,l),
(490,19,l)
);
}
);
width = 1005;
}
);
leftKerningGroup = A;
rightKerningGroup = E;
unicode = 198;
}
{
glyphname = multiply;
layers = (
{
layerId = "50D943A8-B490-4162-9D4B-803713767B01";
shapes = (
{
closed = 1;
nodes = (
(190,110,l),
(550,470,l),
(430,590,l),
(70,230,l)
);
},
{
closed = 1;
nodes = (
(430,110,l),
(550,230,l),
(190,590,l),
(70,470,l)
);
}
);
width = 620;
},
{
background = {
shapes = (
{
closed = 1;
nodes = (
(163,155,l),
(484,479,l),
(423,545,l),
(103,221,l)
);
},
{
closed = 1;
nodes = (
(423,155,l),
(484,221,l),
(163,545,l),
(103,479,l)
);
}
);
};
layerId = "5922F47A-F449-4984-8091-CB5BAF0F3D6E";
shapes = (
{
closed = 1;
nodes = (
(163,155,l),
(484,479,l),
(423,545,l),
(103,221,l)
);
},
{
closed = 1;
nodes = (
(423,155,l),
(484,221,l),
(163,545,l),
(103,479,l)
);
}
);
width = 586;
},
{
layerId = "09D0C439-80D3-4C25-AAD4-493BFD6E371F";
shapes = (
{
closed = 1;
nodes = (
(142,198,l),
(432,488,l),
(418,502,l),
(128,212,l)
);
},
{
closed = 1;
nodes = (
(418,198,l),
(432,212,l),
(142,502,l),
(128,488,l)
);
}
);
width = 560;
}
);
leftKerningGroup = multiply;
rightKerningGroup = multiply;
unicode = 215;
}
{
color = 3;
glyphname = Thorn;
layers = (
{
layerId = "1D080760-4FD1-465A-AE80-6E2F24185885";
shapes = (
{
closed = 1;
nodes = (
(394,105,ls),
(589,105,o),
(713,207,o),
(713,369,cs),
(713,531,o),
(589,633,o),
(394,633,cs),
(245,633,l),
(245,451,l),
(379,451,ls),
(444,451,o),
(475,420,o),
(475,369,cs),
(475,318,o),
(444,287,o),
(379,287,cs),
(245,287,l),
(245,105,l)
);
},
{
closed = 1;
nodes = (
(293,0,l),
(293,701,l),
(57,701,l),
(57,0,l)
);
}
);
width = 743;
},
{
background = {
shapes = (
{
closed = 1;
nodes = (
(380,122,ls),
(563,122,o),
(675,216,o),
(675,369,cs),
(675,522,o),
(563,616,o),
(380,616,cs),
(188,616,l),
(188,517,l),
(375,517,ls),
(496,517,o),
(559,463,o),
(559,369,cs),
(559,275,o),
(496,221,o),
(375,221,cs),
(188,221,l),
(188,122,l)
);
},
{
closed = 1;
nodes = (
(214,0,l),
(214,700,l),
(100,700,l),
(100,0,l)
);
}
);
};
layerId = "BF88A9B2-CED4-4B03-8FC2-F1361A8F7788";
shapes = (
{
closed = 1;
nodes = (
(380,122,ls),
(563,122,o),
(675,216,o),
(675,369,cs),
(675,522,o),
(563,616,o),
(380,616,cs),
(188,616,l),
(188,517,l),
(376,517,ls),
(497,517,o),
(560,463,o),
(560,369,cs),
(560,275,o),
(497,221,o),
(376,221,cs),
(188,221,l),
(188,122,l)
);
},
{
closed = 1;
nodes = (
(214,0,l),
(214,700,l),
(100,700,l),
(100,0,l)
);
}
);
width = 724;
},
{
layerId = "BE9EF097-1901-49F4-A2DE-F2A985D0844B";
shapes = (
{
closed = 1;
nodes = (
(370,139,ls),
(542,139,o),
(645,224,o),
(645,370,cs),
(645,515,o),
(542,600,o),
(370,600,cs),
(144,600,l),
(144,581,l),
(372,581,ls),
(536,581,o),
(625,504,o),
(625,370,cs),
(625,235,o),
(536,158,o),
(372,158,cs),
(144,158,l),
(144,139,l)
);
},
{
closed = 1;
nodes = (
(153,0,l),
(153,700,l),
(133,700,l),
(133,0,l)
);
}
);
width = 710;
}
);
leftKerningGroup = H;
rightKerningGroup = Thorn;
unicode = 222;
}
{
color = 3;
glyphname = germandbls;
layers = (
{
layerId = "50D943A8-B490-4162-9D4B-803713767B01";
shapes = (
{
closed = 1;
nodes = (
(589,-10,o),
(693,72,o),
(693,213,cs),
(693,347,o),
(589,421,o),
(412,421,c),
(362,325,l),
(496,325,o),
(630,404,o),
(630,533,cs),
(630,655,o),
(529,752,o),
(347,752,cs),
(186,752,o),
(50,656,o),
(50,472,cs),
(50,0,l),
(276,0,l),
(276,503,ls),
(276,551,o),
(304,578,o),
(348,578,cs),
(387,578,o),
(413,551,o),
(413,511,cs),
(413,470,o),
(382,443,o),
(336,441,c),
(336,271,l),
(388,271,ls),
(438,271,o),
(464,253,o),
(464,219,cs),
(464,184,o),
(435,166,o),
(396,166,cs),
(372,166,o),
(351,170,o),
(330,178,c),
(308,6,l),
(335,-4,o),
(388,-10,o),
(430,-10,cs)
);
}
);
width = 714;
},
{
background = {
shapes = (
{
closed = 1;
nodes = (
(538,-6,o),
(640,72,o),
(640,203,cs),
(640,332,o),
(542,405,o),
(387,405,c),
(351,352,l),
(466,352,o),
(580,427,o),
(580,551,cs),
(580,663,o),
(491,748,o),
(340,748,cs),
(197,748,o),
(87,660,o),
(87,491,cs),
(87,0,l),
(197,0,l),
(197,505,ls),
(197,604,o),
(254,654,o),
(341,654,cs),
(424,654,o),
(474,607,o),
(474,540,cs),
(474,464,o),
(416,416,o),
(322,415,c),
(322,322,l),
(378,322,ls),
(468,322,o),
(528,281,o),
(528,206,cs),
(528,131,o),
(465,89,o),
(381,89,cs),
(349,89,o),
(322,93,o),
(296,102,c),
(283,9,l),
(312,-1,o),
(356,-6,o),
(396,-6,cs)
);
}
);
};
layerId = "5922F47A-F449-4984-8091-CB5BAF0F3D6E";
shapes = (
{
closed = 1;
nodes = (
(538,-6,o),
(640,71,o),
(640,203,cs),
(640,328,o),
(542,399,o),
(421,399,c),
(391,355,l),
(475,355,o),
(580,425,o),
(580,547,cs),
(580,661,o),
(491,748,o),
(343,748,cs),
(197,748,o),
(87,662,o),
(87,491,cs),
(87,0,l),
(197,0,l),
(197,501,ls),
(197,601,o),
(252,653,o),
(343,653,cs),
(427,653,o),
(474,609,o),
(474,542,cs),
(474,466,o),
(416,416,o),
(322,415,c),
(322,322,l),
(378,322,ls),
(469,322,o),
(529,281,o),
(529,206,cs),
(529,131,o),
(476,89,o),
(391,89,cs),
(349,89,o),
(322,93,o),
(296,102,c),
(279,10,l),
(311,-1,o),
(356,-6,o),
(396,-6,cs)
);
}
);
width = 680;
},
{
layerId = "09D0C439-80D3-4C25-AAD4-493BFD6E371F";
shapes = (
{
closed = 1;
nodes = (
(498,-3,o),
(598,72,o),
(598,194,cs),
(598,318,o),
(505,389,o),
(367,389,c),
(342,378,l),
(443,378,o),
(541,449,o),
(541,568,cs),
(541,670,o),
(462,745,o),
(335,745,cs),
(205,745,o),
(115,663,o),
(115,508,cs),
(115,0,l),
(135,0,l),
(135,507,ls),
(135,654,o),
(216,726,o),
(336,726,cs),
(452,726,o),
(521,660,o),
(521,568,cs),
(521,459,o),
(443,390,o),
(311,390,c),
(311,371,l),
(371,371,ls),
(492,371,o),
(578,307,o),
(578,194,cs),
(578,81,o),
(488,16,o),
(370,16,cs),
(332,16,o),
(300,21,o),
(270,31,c),
(264,12,l),
(294,2,o),
(332,-3,o),
(370,-3,cs)
);
}
);
width = 652;
}
);
leftKerningGroup = l;
rightKerningGroup = o;
unicode = 223;
}
{
color = 2;
glyphname = ae;
layers = (
{
anchors = (
{
name = top;
position = "{478, 547}";
}
);
guides = (
{
position = "{0, 219}";
},
{
position = "{0, 328}";
}
);
layerId = "1C8F7DEF-6F4F-496E-B863-8211A447B9DB";
name = Bold.Jacques;
shapes = (
{
closed = 1;
nodes = (
(377,-10,o),
(467,21,o),
(515,155,c),
(412,155,l),
(469,35,o),
(583,-10,o),
(702,-10,cs),
(810,-10,o),
(890,20,o),
(945,78,c),
(827,197,l),
(789,170,o),
(759,157,o),
(709,157,cs),
(635,157,o),
(591,196,o),
(591,267,cs),
(591,301,ls),
(591,364,o),
(627,403,o),
(682,403,cs),
(737,403,o),
(773,364,o),
(773,301,c),
(815,328,l),
(576,328,l),
(576,219,l),
(983,219,l),
(985,235,o),
(987,256,o),
(987,274,cs),
(987,459,o),
(844,557,o),
(685,557,cs),
(587,557,o),
(498,517,o),
(444,451,c),
(532,451,l),
(486,524,o),
(401,557,o),
(291,557,cs),
(208,557,o),
(113,535,o),
(49,495,c),
(121,346,l),
(157,373,o),
(212,389,o),
(257,389,cs),
(334,389,o),
(365,360,o),
(365,307,cs),
(365,200,ls),
(365,154,o),
(340,126,o),
(296,126,cs),
(259,126,o),
(240,145,o),
(240,171,cs),
(240,202,o),
(261,219,o),
(309,219,cs),
(381,219,l),
(381,328,l),
(273,328,ls),
(103,328,o),
(23,270,o),
(23,162,cs),
(23,66,o),
(115,-10,o),
(265,-10,cs)
);
}
);
width = 1008;
},
{
anchors = (
{
name = top;
position = "{455, 517}";
}
);
layerId = "A4067416-F75D-48D9-A9AC-9A018888B438";
name = Light.Jacques;
shapes = (
{
closed = 1;
nodes = (
(359,-3,o),
(455,54,o),
(466,187,c),
(453,189,l),
(488,61,o),
(596,-3,o),
(713,-3,cs),
(791,-3,o),
(864,26,o),
(911,82,c),
(897,96,l),
(854,42,o),
(786,16,o),
(713,16,cs),
(571,16,o),
(465,116,o),
(465,259,cs),
(465,263,ls),
(465,399,o),
(562,501,o),
(694,501,cs),
(826,501,o),
(924,399,o),
(924,263,c),
(932,280,l),
(461,280,l),
(461,261,l),
(943,261,l),
(943,263,o),
(943,264,o),
(943,266,cs),
(943,414,o),
(835,520,o),
(694,520,cs),
(585,520,o),
(496,456,o),
(462,359,c),
(465,350,l),
(458,464,o),
(396,520,o),
(280,520,cs),
(202,520,o),
(128,490,o),
(79,443,c),
(93,429,l),
(138,472,o),
(204,501,o),
(281,501,cs),
(388,501,o),
(445,446,o),
(445,338,cs),
(445,202,ls),
(445,82,o),
(364,16,o),
(248,16,cs),
(145,16,o),
(85,65,o),
(85,143,cs),
(85,211,o),
(131,261,o),
(248,261,cs),
(451,261,l),
(451,280,l),
(249,280,ls),
(111,280,o),
(65,215,o),
(65,142,cs),
(65,55,o),
(132,-3,o),
(248,-3,cs)
);
}
);
width = 997;
},
{
anchors = (
{
name = bottom;
position = "{475, 0}";
},
{
name = top;
position = "{478, 547}";
}
);
guides = (
{
position = "{0, 219}";
},
{
position = "{0, 328}";
}
);
layerId = "1D080760-4FD1-465A-AE80-6E2F24185885";
shapes = (
{
closed = 1;
nodes = (
(379,-10,o),
(469,25,o),
(515,155,c),
(412,155,l),
(469,35,o),
(582,-10,o),
(704,-10,cs),
(804,-10,o),
(885,20,o),
(940,78,c),
(822,197,l),
(784,170,o),
(751,157,o),
(707,157,cs),
(632,157,o),
(591,196,o),
(591,267,cs),
(591,301,ls),
(591,364,o),
(628,403,o),
(681,403,cs),
(733,403,o),
(768,364,o),
(768,301,c),
(810,328,l),
(576,328,l),
(576,219,l),
(978,219,l),
(980,235,o),
(982,255,o),
(982,276,cs),
(982,458,o),
(839,557,o),
(685,557,cs),
(587,557,o),
(498,517,o),
(444,451,c),
(532,451,l),
(486,524,o),
(400,557,o),
(294,557,cs),
(207,557,o),
(113,535,o),
(49,495,c),
(121,346,l),
(157,373,o),
(210,389,o),
(262,389,cs),
(334,389,o),
(365,358,o),
(365,307,cs),
(365,200,ls),
(365,154,o),
(340,126,o),
(296,126,cs),
(259,126,o),
(240,145,o),
(240,173,cs),
(240,201,o),
(260,219,o),
(309,219,cs),
(381,219,l),
(381,328,l),
(273,328,ls),
(103,328,o),
(23,267,o),
(23,168,cs),
(23,61,o),
(115,-10,o),
(270,-10,cs)
);
}
);
width = 1003;
},
{
anchors = (
{
name = top;
position = "{465, 532}";
}
);
layerId = "AED0F022-3967-4EB9-8C58-E07196F8ED9D";
associatedMasterId = "BF88A9B2-CED4-4B03-8FC2-F1361A8F7788";
name = Jacques;
shapes = (
{
closed = 1;
nodes = (
(370,-6,o),
(470,38,o),
(497,171,c),
(429,172,l),
(474,48,o),
(583,-6,o),
(707,-6,cs),
(800,-6,o),
(876,24,o),
(925,80,c),
(864,151,l),
(824,110,o),
(773,90,o),
(710,90,cs),
(596,90,o),
(519,159,o),
(519,260,cs),
(519,278,ls),
(519,377,o),
(588,445,o),
(687,445,cs),
(785,445,o),
(854,382,o),
(854,281,c),
(900,309,l),
(498,309,l),
(498,230,l),
(959,230,l),
(961,241,o),
(962,255,o),
(962,264,cs),
(962,427,o),
(848,538,o),
(687,538,cs),
(583,538,o),
(492,486,o),
(450,404,c),
(504,399,l),
(480,493,o),
(400,538,o),
(285,538,cs),
(199,538,o),
(118,515,o),
(62,471,c),
(107,389,l),
(148,422,o),
(211,443,o),
(272,443,cs),
(364,443,o),
(410,398,o),
(410,322,cs),
(410,201,ls),
(410,128,o),
(356,78,o),
(268,78,cs),
(198,78,o),
(156,108,o),
(156,156,cs),
(156,197,o),
(179,230,o),
(270,230,cs),
(426,230,l),
(426,309,l),
(265,309,ls),
(104,309,o),
(47,239,o),
(47,152,cs),
(47,60,o),
(132,-6,o),
(251,-6,cs)
);
}
);
width = 1002;
},
{
anchors = (
{
name = bottom;
position = "{476, 0}";
},
{
name = top;
position = "{465, 532}";
}
);
background = {
shapes = (
{
closed = 1;
nodes = (
(791,-6,o),
(865,24,o),
(913,80,c),
(853,151,l),
(815,110,o),
(765,90,o),
(704,90,cs),
(593,90,o),
(519,159,o),
(519,260,cs),
(519,278,ls),
(519,377,o),
(586,445,o),
(682,445,cs),
(778,445,o),
(845,377,o),
(844,281,c),
(888,307,l),
(498,307,l),
(498,228,l),
(946,228,l),
(947,239,o),
(948,253,o),
(948,262,cs),
(948,427,o),
(838,538,o),
(682,538,cs),
(526,538,o),
(411,424,o),
(411,266,cs),
(411,107,o),
(526,-6,o),
(701,-6,cs)
);
}
);
};
layerId = "BF88A9B2-CED4-4B03-8FC2-F1361A8F7788";
shapes = (
{
closed = 1;
nodes = (
(360,-6,o),
(470,34,o),
(497,171,c),
(426,172,l),
(471,48,o),
(575,-6,o),
(700,-6,cs),
(791,-6,o),
(864,23,o),
(914,80,c),
(853,151,l),
(813,110,o),
(765,90,o),
(704,90,cs),
(592,90,o),
(519,159,o),
(519,260,cs),
(519,278,ls),
(519,390,o),
(601,445,o),
(682,445,cs),
(764,445,o),
(845,390,o),
(844,281,c),
(890,309,l),
(498,309,l),
(498,230,l),
(948,230,l),
(950,241,o),
(951,253,o),
(951,268,cs),
(951,425,o),
(838,538,o),
(683,538,cs),
(578,538,o),
(492,486,o),
(450,404,c),
(504,399,l),
(481,489,o),
(406,538,o),
(284,538,cs),
(200,538,o),
(118,515,o),
(62,471,c),
(107,389,l),
(148,422,o),
(211,443,o),
(273,443,cs),
(364,443,o),
(410,398,o),
(410,322,cs),
(410,201,ls),
(410,128,o),
(357,78,o),
(267,78,cs),
(198,78,o),
(156,107,o),
(156,158,cs),
(156,197,o),
(180,230,o),
(270,230,cs),
(426,230,l),
(426,309,l),
(265,309,ls),
(104,309,o),
(47,237,o),
(47,156,cs),
(47,60,o),
(126,-6,o),
(258,-6,cs)
);
}
);
width = 991;
},
{
anchors = (
{
name = bottom;
position = "{470, 0}";
},
{
name = top;
position = "{455, 517}";
}
);
layerId = "BE9EF097-1901-49F4-A2DE-F2A985D0844B";
shapes = (
{
closed = 1;
nodes = (
(359,-3,o),
(455,54,o),
(466,187,c),
(453,189,l),
(488,61,o),
(591,-3,o),
(704,-3,cs),
(778,-3,o),
(848,26,o),
(894,82,c),
(880,96,l),
(838,42,o),
(773,16,o),
(704,16,cs),
(566,16,o),
(465,116,o),
(465,259,cs),
(465,263,ls),
(465,399,o),
(557,501,o),
(685,501,cs),
(812,501,o),
(906,399,o),
(906,263,c),
(914,280,l),
(461,280,l),
(461,261,l),
(925,261,l),
(925,263,o),
(925,264,o),
(925,266,cs),
(925,414,o),
(821,520,o),
(685,520,cs),
(580,520,o),
(496,456,o),
(462,359,c),
(465,350,l),
(458,464,o),
(396,520,o),
(280,520,cs),
(202,520,o),
(128,490,o),
(79,443,c),
(93,429,l),
(138,472,o),
(204,501,o),
(281,501,cs),
(388,501,o),
(445,446,o),
(445,338,cs),
(445,202,ls),
(445,82,o),
(364,16,o),
(248,16,cs),
(145,16,o),
(85,65,o),
(85,143,cs),
(85,211,o),
(131,261,o),
(248,261,cs),
(451,261,l),
(451,280,l),
(249,280,ls),
(111,280,o),
(65,215,o),
(65,142,cs),
(65,55,o),
(132,-3,o),
(248,-3,cs)
);
}
);
width = 979;
}
);
leftKerningGroup = a;
rightKerningGroup = e;
unicode = 230;
}
{
color = 3;
glyphname = eth;
layers = (
{
layerId = "1D080760-4FD1-465A-AE80-6E2F24185885";
shapes = (
{
closed = 1;
nodes = (
(517,-16,o),
(655,114,o),
(655,338,cs),
(655,615,o),
(495,758,o),
(232,758,cs),
(175,758,o),
(128,752,o),
(76,741,c),
(97,578,l),
(137,591,o),
(182,596,o),
(218,596,cs),
(353,596,o),
(416,527,o),
(416,387,cs),
(416,347,o),
(416,328,o),
(416,308,c),
(470,345,l),
(431,414,o),
(369,453,o),
(268,453,cs),
(133,453,o),
(21,364,o),
(21,229,cs),
(21,81,o),
(148,-16,o),
(310,-16,cs)
);
},
{
closed = 1;
nodes = (
(285,147,o),
(251,174,o),
(251,218,cs),
(251,262,o),
(285,290,o),
(328,290,cs),
(371,290,o),
(405,262,o),
(405,218,cs),
(405,174,o),
(371,147,o),
(328,147,cs)
);
},
{
closed = 1;
nodes = (
(631,627,l),
(596,718,l),
(109,541,l),
(144,450,l)
);
}
);
width = 676;
},
{
background = {
shapes = (
{
closed = 1;
nodes = (
(491,-9,o),
(604,126,o),
(604,344,cs),
(604,598,o),
(464,730,o),
(246,730,cs),
(187,730,o),
(134,722,o),
(91,711,c),
(103,622,l),
(143,634,o),
(193,641,o),
(240,641,cs),
(396,641,o),
(488,548,o),
(488,369,cs),
(488,332,o),
(486,294,o),
(477,258,c),
(505,275,l),
(486,381,o),
(400,441,o),
(283,441,cs),
(141,441,o),
(40,354,o),
(40,221,cs),
(40,83,o),
(149,-9,o),
(296,-9,cs)
);
},
{
closed = 1;
nodes = (
(214,80,o),
(151,134,o),
(151,216,cs),
(151,298,o),
(212,352,o),
(309,352,cs),
(400,352,o),
(466,293,o),
(466,216,cs),
(466,145,o),
(406,80,o),
(304,80,cs)
);
},
{
closed = 1;
nodes = (
(565,656,l),
(545,710,l),
(126,540,l),
(146,487,l)
);
}
);
};
layerId = "BF88A9B2-CED4-4B03-8FC2-F1361A8F7788";
shapes = (
{
closed = 1;
nodes = (
(491,-9,o),
(604,126,o),
(604,344,cs),
(604,598,o),
(464,730,o),
(250,730,cs),
(187,730,o),
(132,721,o),
(88,708,c),
(106,615,l),
(143,628,o),
(193,638,o),
(250,638,cs),
(399,638,o),
(493,548,o),
(493,369,cs),
(493,332,o),
(491,294,o),
(482,258,c),
(525,275,l),
(496,381,o),
(411,441,o),
(297,441,cs),
(152,441,o),
(40,354,o),
(40,216,cs),
(40,78,o),
(152,-9,o),
(296,-9,cs)
);
},
{
closed = 1;
nodes = (
(213,84,o),
(151,136,o),
(151,216,cs),
(151,296,o),
(211,348,o),
(309,348,cs),
(400,348,o),
(466,292,o),
(466,216,cs),
(466,146,o),
(406,84,o),
(304,84,cs)
);
},
{
closed = 1;
nodes = (
(574,638,l),
(545,710,l),
(126,543,l),
(155,472,l)
);
}
);
width = 644;
},
{
layerId = "BE9EF097-1901-49F4-A2DE-F2A985D0844B";
shapes = (
{
closed = 1;
nodes = (
(470,-3,o),
(564,137,o),
(564,350,cs),
(564,581,o),
(440,703,o),
(257,703,cs),
(197,703,o),
(139,693,o),
(102,682,c),
(107,663,l),
(148,675,o),
(201,684,o),
(257,684,cs),
(430,684,o),
(544,568,o),
(544,352,cs),
(544,318,o),
(541,261,o),
(525,210,c),
(533,209,l),
(528,350,o),
(424,430,o),
(294,430,cs),
(147,430,o),
(54,344,o),
(54,214,cs),
(54,84,o),
(149,-3,o),
(286,-3,cs)
);
},
{
closed = 1;
nodes = (
(159,16,o),
(74,97,o),
(74,214,cs),
(74,331,o),
(156,411,o),
(294,411,cs),
(423,411,o),
(513,323,o),
(513,214,cs),
(513,118,o),
(434,16,o),
(286,16,cs)
);
},
{
closed = 1;
nodes = (
(513,684,l),
(505,703,l),
(140,540,l),
(148,521,l)
);
}
);
width = 618;
}
);
leftKerningGroup = o;
rightKerningGroup = eth;
unicode = 240;
}
{
glyphname = divide;
layers = (
{
layerId = "1D080760-4FD1-465A-AE80-6E2F24185885";
shapes = (
{
closed = 1;
nodes = (
(565,265,l),
(565,435,l),
(55,435,l),
(55,265,l)
);
},
{
closed = 1;
nodes = (
(373,20,o),
(422,66,o),
(422,130,cs),
(422,195,o),
(373,238,o),
(310,238,cs),
(247,238,o),
(198,195,o),
(198,130,cs),
(198,66,o),
(247,20,o),
(310,20,cs)
);
},
{
closed = 1;
nodes = (
(373,462,o),
(422,508,o),
(422,572,cs),
(422,637,o),
(373,680,o),
(310,680,cs),
(247,680,o),
(198,637,o),
(198,572,cs),
(198,508,o),
(247,462,o),
(310,462,cs)
);
}
);
width = 620;
},
{
background = {
shapes = (
{
closed = 1;
nodes = (
(520,304,l),
(520,396,l),
(66,396,l),
(66,304,l)
);
},
{
closed = 1;
nodes = (
(329,84,o),
(357,112,o),
(357,151,cs),
(357,189,o),
(329,216,o),
(293,216,cs),
(258,216,o),
(230,189,o),
(230,151,cs),
(230,112,o),
(258,84,o),
(293,84,cs)
);
},
{
closed = 1;
nodes = (
(329,484,o),
(357,512,o),
(357,550,cs),
(357,589,o),
(329,616,o),
(293,616,cs),
(258,616,o),
(230,589,o),
(230,550,cs),
(230,512,o),
(258,484,o),
(293,484,cs)
);
}
);
};
layerId = "BF88A9B2-CED4-4B03-8FC2-F1361A8F7788";
shapes = (
{
closed = 1;
nodes = (
(520,305,l),
(520,395,l),
(66,395,l),
(66,305,l)
);
},
{
closed = 1;
nodes = (
(329,84,o),
(357,112,o),
(357,151,cs),
(357,189,o),
(329,216,o),
(293,216,cs),
(258,216,o),
(230,189,o),
(230,151,cs),
(230,112,o),
(258,84,o),
(293,84,cs)
);
},
{
closed = 1;
nodes = (
(329,484,o),
(357,512,o),
(357,550,cs),
(357,589,o),
(329,616,o),
(293,616,cs),
(258,616,o),
(230,589,o),
(230,550,cs),
(230,512,o),
(258,484,o),
(293,484,cs)
);
}
);
width = 586;
},
{
layerId = "BE9EF097-1901-49F4-A2DE-F2A985D0844B";
shapes = (
{
closed = 1;
nodes = (
(485,340,l),
(485,359,l),
(75,359,l),
(75,340,l)
);
},
{
closed = 1;
nodes = (
(294,144,o),
(306,156,o),
(306,170,cs),
(306,184,o),
(294,196,o),
(280,196,cs),
(266,196,o),
(254,184,o),
(254,170,cs),
(254,156,o),
(266,144,o),
(280,144,cs)
);
},
{
closed = 1;
nodes = (
(294,504,o),
(306,516,o),
(306,530,cs),
(306,544,o),
(294,556,o),
(280,556,cs),
(266,556,o),
(254,544,o),
(254,530,cs),
(254,516,o),
(266,504,o),
(280,504,cs)
);
}
);
width = 560;
}
);
leftKerningGroup = hyphen;
rightKerningGroup = hyphen;
unicode = 247;
}
{
color = 3;
glyphname = eogonek;
layers = (
{
anchors = (
{
name = bottom;
position = "{338, 0}";
},
{
name = top;
position = "{338, 547}";
}
);
layerId = "1C8F7DEF-6F4F-496E-B863-8211A447B9DB";
name = Bold.Jacques;
shapes = (
{
closed = 1;
nodes = (
(520,-240,o),
(566,-230,o),
(590,-217,c),
(563,-124,l),
(548,-131,o),
(526,-138,o),
(506,-138,cs),
(471,-138,o),
(451,-117,o),
(451,-89,cs),
(451,-54,o),
(468,-19,o),
(562,41,cs),
(578,52,o),
(592,64,o),
(605,78,c),
(484,197,l),
(447,170,o),
(418,157,o),
(367,157,cs),
(291,157,o),
(247,196,o),
(247,267,cs),
(247,301,ls),
(247,364,o),
(283,403,o),
(340,403,cs),
(397,403,o),
(433,364,o),
(433,301,c),
(525,330,l),
(215,330,l),
(215,221,l),
(643,221,l),
(645,237,o),
(647,258,o),
(647,274,cs),
(647,459,o),
(504,557,o),
(338,557,cs),
(157,557,o),
(21,440,o),
(21,274,cs),
(21,111,o),
(153,-10,o),
(360,-10,cs),
(384,-10,o),
(430,-8,o),
(455,0,c),
(430,24,l),
(364,2,o),
(319,-55,o),
(319,-114,cs),
(319,-192,o),
(377,-240,o),
(477,-240,cs)
);
}
);
width = 668;
},
{
anchors = (
{
name = bottom;
position = "{300, 0}";
},
{
name = top;
position = "{300, 517}";
}
);
layerId = "A4067416-F75D-48D9-A9AC-9A018888B438";
name = Light.Jacques;
shapes = (
{
closed = 1;
nodes = (
(465,-213,o),
(489,-205,o),
(511,-186,c),
(500,-171,l),
(484,-186,o),
(461,-194,o),
(438,-194,cs),
(397,-194,o),
(366,-173,o),
(366,-129,cs),
(366,-88,o),
(378,-48,o),
(484,47,cs),
(498,60,o),
(510,70,o),
(520,82,c),
(506,96,l),
(463,42,o),
(395,16,o),
(322,16,cs),
(180,16,o),
(74,116,o),
(74,259,cs),
(74,263,ls),
(74,399,o),
(171,501,o),
(303,501,cs),
(435,501,o),
(533,399,o),
(533,263,c),
(541,278,l),
(66,278,l),
(66,259,l),
(552,259,l),
(552,261,o),
(552,262,o),
(552,264,cs),
(552,414,o),
(444,520,o),
(303,520,cs),
(160,520,o),
(54,412,o),
(54,259,cs),
(54,106,o),
(168,-3,o),
(322,-3,cs),
(363,-3,o),
(402,5,o),
(439,21,c),
(439,25,l),
(362,-41,o),
(346,-90,o),
(346,-129,cs),
(346,-182,o),
(385,-213,o),
(437,-213,cs)
);
}
);
width = 587;
},
{
anchors = (
{
name = bottom;
position = "{338, 0}";
},
{
name = top;
position = "{338, 547}";
}
);
layerId = "1D080760-4FD1-465A-AE80-6E2F24185885";
shapes = (
{
closed = 1;
nodes = (
(507,-240,o),
(553,-230,o),
(577,-217,c),
(550,-124,l),
(535,-131,o),
(513,-138,o),
(493,-138,cs),
(458,-138,o),
(438,-117,o),
(438,-89,cs),
(438,-54,o),
(454,-18,o),
(549,41,cs),
(565,51,o),
(579,64,o),
(592,78,c),
(473,197,l),
(437,170,o),
(409,157,o),
(359,157,cs),
(285,157,o),
(242,196,o),
(242,267,cs),
(242,301,ls),
(242,364,o),
(277,403,o),
(333,403,cs),
(388,403,o),
(424,364,o),
(424,301,c),
(509,330,l),
(208,330,l),
(208,221,l),
(629,221,l),
(630,237,o),
(632,258,o),
(632,274,cs),
(632,459,o),
(493,557,o),
(331,557,cs),
(154,557,o),
(21,440,o),
(21,274,cs),
(21,111,o),
(151,-10,o),
(352,-10,cs),
(384,-10,o),
(412,-7,o),
(439,-2,c),
(417,24,l),
(351,2,o),
(306,-55,o),
(306,-114,cs),
(306,-192,o),
(364,-240,o),
(464,-240,cs)
);
}
);
width = 653;
},
{
anchors = (
{
name = bottom;
position = "{317, 0}";
},
{
name = top;
position = "{317, 532}";
}
);
layerId = "AED0F022-3967-4EB9-8C58-E07196F8ED9D";
associatedMasterId = "BF88A9B2-CED4-4B03-8FC2-F1361A8F7788";
name = Jacques;
shapes = (
{
closed = 1;
nodes = (
(488,-226,o),
(522,-217,o),
(547,-203,c),
(527,-147,l),
(511,-157,o),
(487,-163,o),
(466,-163,cs),
(431,-163,o),
(406,-146,o),
(406,-110,cs),
(406,-71,o),
(431,-26,o),
(518,44,cs),
(533,56,o),
(546,67,o),
(557,80,c),
(496,151,l),
(456,110,o),
(405,90,o),
(342,90,cs),
(228,90,o),
(151,159,o),
(151,260,cs),
(151,278,ls),
(151,377,o),
(220,445,o),
(319,445,cs),
(418,445,o),
(487,377,o),
(486,281,c),
(532,307,l),
(130,307,l),
(130,228,l),
(591,228,l),
(593,239,o),
(594,253,o),
(594,262,cs),
(594,427,o),
(481,538,o),
(319,538,cs),
(158,538,o),
(40,424,o),
(40,266,cs),
(40,107,o),
(159,-6,o),
(339,-6,cs),
(372,-6,o),
(414,-1,o),
(446,11,c),
(408,25,l),
(353,-15,o),
(329,-71,o),
(329,-117,cs),
(329,-183,o),
(377,-226,o),
(454,-226,cs)
);
}
);
width = 634;
},
{
anchors = (
{
name = bottom;
position = "{317, 0}";
},
{
name = top;
position = "{317, 532}";
}
);
background = {
shapes = (
{
closed = 1;
nodes = (
(420,-6,o),
(494,24,o),
(542,80,c),
(482,151,l),
(444,110,o),
(394,90,o),
(333,90,cs),
(222,90,o),
(148,159,o),
(148,260,cs),
(148,278,ls),
(148,377,o),
(215,445,o),
(311,445,cs),
(407,445,o),
(474,377,o),
(473,281,c),
(517,307,l),
(127,307,l),
(127,228,l),
(575,228,l),
(576,239,o),
(577,253,o),
(577,262,cs),
(577,427,o),
(467,538,o),
(311,538,cs),
(155,538,o),
(40,424,o),
(40,266,cs),
(40,107,o),
(155,-6,o),
(330,-6,cs)
);
}
);
};
layerId = "BF88A9B2-CED4-4B03-8FC2-F1361A8F7788";
shapes = (
{
closed = 1;
nodes = (
(473,-226,o),
(507,-217,o),
(532,-203,c),
(512,-147,l),
(496,-157,o),
(472,-163,o),
(451,-163,cs),
(416,-163,o),
(391,-146,o),
(391,-110,cs),
(391,-71,o),
(416,-26,o),
(503,44,cs),
(518,56,o),
(531,67,o),
(542,80,c),
(482,151,l),
(444,110,o),
(394,90,o),
(333,90,cs),
(222,90,o),
(148,159,o),
(148,260,cs),
(148,278,ls),
(148,377,o),
(215,445,o),
(311,445,cs),
(407,445,o),
(474,377,o),
(473,281,c),
(517,307,l),
(127,307,l),
(127,228,l),
(575,228,l),
(576,239,o),
(577,253,o),
(577,262,cs),
(577,427,o),
(467,538,o),
(311,538,cs),
(155,538,o),
(40,424,o),
(40,266,cs),
(40,107,o),
(155,-6,o),
(330,-6,cs),
(367,-6,o),
(402,-1,o),
(433,9,c),
(393,25,l),
(338,-15,o),
(314,-71,o),
(314,-117,cs),
(314,-183,o),
(362,-226,o),
(439,-226,cs)
);
}
);
width = 617;
},
{
anchors = (
{
name = bottom;
position = "{300, 0}";
},
{
name = top;
position = "{300, 517}";
}
);
layerId = "BE9EF097-1901-49F4-A2DE-F2A985D0844B";
shapes = (
{
closed = 1;
nodes = (
(447,-213,o),
(471,-205,o),
(493,-186,c),
(482,-171,l),
(466,-186,o),
(443,-194,o),
(420,-194,cs),
(379,-194,o),
(348,-173,o),
(348,-129,cs),
(348,-88,o),
(362,-50,o),
(466,47,cs),
(480,60,o),
(492,70,o),
(502,82,c),
(488,96,l),
(447,42,o),
(381,16,o),
(312,16,cs),
(175,16,o),
(73,116,o),
(73,259,cs),
(73,263,ls),
(73,399,o),
(166,501,o),
(293,501,cs),
(420,501,o),
(514,399,o),
(514,263,c),
(522,278,l),
(65,278,l),
(65,259,l),
(533,259,l),
(533,261,o),
(533,262,o),
(533,264,cs),
(533,414,o),
(429,520,o),
(293,520,cs),
(156,520,o),
(54,412,o),
(54,259,cs),
(54,106,o),
(163,-3,o),
(312,-3,cs),
(350,-3,o),
(387,5,o),
(421,20,c),
(421,25,l),
(344,-41,o),
(328,-90,o),
(328,-129,cs),
(328,-182,o),
(367,-213,o),
(419,-213,cs)
);
}
);
width = 587;
}
);
leftKerningGroup = o;
rightKerningGroup = e;
unicode = 281;
}
{
glyphname = idotless;
layers = (
{
anchors = (
{
name = bottom;
position = "{163, 0}";
},
{
name = ogonek;
position = "{276, 0}";
},
{
name = top;
position = "{163, 547}";
}
);
layerId = "50D943A8-B490-4162-9D4B-803713767B01";
shapes = (
{
closed = 1;
nodes = (
(276,0,l),
(276,547,l),
(50,547,l),
(50,0,l)
);
}
);
width = 326;
},
{
anchors = (
{
name = bottom;
position = "{142, 0}";
},
{
name = ogonek;
position = "{197, 0}";
},
{
name = top;
position = "{142, 532}";
}
);
background = {
shapes = (
{
closed = 1;
nodes = (
(197,0,l),
(197,532,l),
(87,532,l),
(87,0,l)
);
}
);
};
layerId = "5922F47A-F449-4984-8091-CB5BAF0F3D6E";
shapes = (
{
closed = 1;
nodes = (
(197,0,l),
(197,532,l),
(87,532,l),
(87,0,l)
);
}
);
width = 284;
},
{
anchors = (
{
name = bottom;
position = "{125, 0}";
},
{
name = ogonek;
position = "{135, 0}";
},
{
name = top;
position = "{125, 517}";
}
);
layerId = "09D0C439-80D3-4C25-AAD4-493BFD6E371F";
shapes = (
{
closed = 1;
nodes = (
(135,0,l),
(135,517,l),
(115,517,l),
(115,0,l)
);
}
);
width = 250;
}
);
leftKerningGroup = n;
rightKerningGroup = u;
unicode = 305;
}
{
glyphname = kgreenlandic;
layers = (
{
anchors = (
{
name = bottom;
position = "{323, 0}";
},
{
name = top;
position = "{323, 547}";
}
);
layerId = "1D080760-4FD1-465A-AE80-6E2F24185885";
shapes = (
{
closed = 1;
nodes = (
(337,194,l),
(450,285,l),
(700,547,l),
(433,547,l),
(244,356,l),
(239,90,l)
);
},
{
closed = 1;
nodes = (
(276,0,l),
(276,547,l),
(50,547,l),
(50,0,l)
);
},
{
closed = 1;
nodes = (
(718,0,l),
(434,361,l),
(295,190,l),
(445,0,l)
);
}
);
width = 690;
},
{
anchors = (
{
name = bottom;
position = "{292, 0}";
},
{
name = top;
position = "{292, 532}";
}
);
background = {
shapes = (
{
closed = 1;
nodes = (
(309,248,l),
(368,298,l),
(604,532,l),
(471,532,l),
(179,264,l),
(176,123,l)
);
},
{
closed = 1;
nodes = (
(197,0,l),
(197,532,l),
(87,532,l),
(87,0,l)
);
},
{
closed = 1;
nodes = (
(625,0,l),
(359,338,l),
(289,249,l),
(491,0,l)
);
}
);
};
layerId = "BF88A9B2-CED4-4B03-8FC2-F1361A8F7788";
shapes = (
{
closed = 1;
nodes = (
(309,248,l),
(368,298,l),
(604,532,l),
(471,532,l),
(179,264,l),
(176,123,l)
);
},
{
closed = 1;
nodes = (
(197,0,l),
(197,532,l),
(87,532,l),
(87,0,l)
);
},
{
closed = 1;
nodes = (
(625,0,l),
(359,338,l),
(289,249,l),
(491,0,l)
);
}
);
width = 615;
},
{
anchors = (
{
name = bottom;
position = "{268, 0}";
},
{
name = top;
position = "{268, 517}";
}
);
layerId = "BE9EF097-1901-49F4-A2DE-F2A985D0844B";
shapes = (
{
closed = 1;
nodes = (
(288,299,l),
(304,311,l),
(529,517,l),
(500,517,l),
(128,178,l),
(128,154,l)
);
},
{
closed = 1;
nodes = (
(135,0,l),
(135,517,l),
(115,517,l),
(115,0,l)
);
},
{
closed = 1;
nodes = (
(552,0,l),
(300,316,l),
(284,304,l),
(526,0,l)
);
}
);
width = 557;
}
);
leftKerningGroup = n;
rightKerningGroup = k;
unicode = 312;
}
{
glyphname = Lslash;
layers = (
{
layerId = "E4BF0858-FFA0-4A6D-9E5E-76E61EF41473";
name = "Bold.Bold Aug 12 16, 13:13";
shapes = (
{
closed = 1;
nodes = (
(-30,412,l),
(8,278,l),
(472,412,l),
(434,547,l)
);
}
);
width = 606;
},
{
layerId = "04365EEE-6F6F-4BF3-BF41-8BD52353A305";
name = "Light.Regular Aug 12 16, 13:13";
shapes = (
{
closed = 1;
nodes = (
(6,421,l),
(26,349,l),
(406,458,l),
(386,531,l)
);
}
);
width = 551;
},
{
layerId = "D71C5189-6C3F-48F5-83F6-BC316FC31A35";
name = "Light.Light Aug 12 16, 13:14";
shapes = (
{
closed = 1;
nodes = (
(36,428,l),
(41,409,l),
(349,497,l),
(344,517,l)
);
}
);
width = 503;
},
{
layerId = "1D080760-4FD1-465A-AE80-6E2F24185885";
shapes = (
{
alignment = -1;
pos = (20,0);
ref = L;
},
{
pos = (-105,-1);
ref = slashshortcomb.case;
}
);
width = 637;
},
{
layerId = "BF88A9B2-CED4-4B03-8FC2-F1361A8F7788";
shapes = (
{
alignment = -1;
pos = (9,0);
ref = L;
},
{
pos = (-51,-9);
ref = slashshortcomb.case;
}
);
width = 605;
},
{
layerId = "BE9EF097-1901-49F4-A2DE-F2A985D0844B";
shapes = (
{
alignment = -1;
ref = L;
},
{
pos = (-10,-17);
ref = slashshortcomb.case;
}
);
width = 580;
}
);
leftKerningGroup = H;
rightKerningGroup = L;
unicode = 321;
}
{
color = 3;
glyphname = Eng;
layers = (
{
layerId = "1D080760-4FD1-465A-AE80-6E2F24185885";
shapes = (
{
closed = 1;
nodes = (
(287,0,l),
(287,426,l),
(197,426,l),
(553,0,l),
(607,274,l),
(251,700,l),
(57,700,l),
(57,0,l)
);
},
{
closed = 1;
nodes = (
(649,-204,o),
(747,-110,o),
(747,102,cs),
(747,700,l),
(517,700,l),
(517,67,ls),
(517,10,o),
(490,-20,o),
(441,-20,cs),
(417,-20,o),
(395,-11,o),
(372,5,c),
(264,-153,l),
(318,-189,o),
(385,-204,o),
(461,-204,cs)
);
}
);
width = 804;
},
{
background = {
shapes = (
{
closed = 1;
nodes = (
(212,0,l),
(212,555,l),
(166,555,l),
(617,0,l),
(645,145,l),
(194,700,l),
(100,700,l),
(100,0,l)
);
},
{
closed = 1;
nodes = (
(635,-200,o),
(711,-121,o),
(711,50,cs),
(711,700,l),
(599,700,l),
(599,34,ls),
(599,-57,o),
(560,-101,o),
(481,-101,cs),
(433,-101,o),
(392,-80,o),
(360,-42,c),
(305,-125,l),
(350,-174,o),
(416,-200,o),
(489,-200,cs)
);
}
);
};
layerId = "BF88A9B2-CED4-4B03-8FC2-F1361A8F7788";
shapes = (
{
closed = 1;
nodes = (
(214,0,l),
(214,556,l),
(166,556,l),
(617,0,l),
(645,144,l),
(194,700,l),
(100,700,l),
(100,0,l)
);
},
{
closed = 1;
nodes = (
(634,-200,o),
(711,-121,o),
(711,50,cs),
(711,700,l),
(597,700,l),
(597,34,ls),
(597,-57,o),
(561,-102,o),
(486,-102,cs),
(434,-102,o),
(392,-80,o),
(360,-42,c),
(305,-125,l),
(350,-174,o),
(415,-200,o),
(486,-200,cs)
);
}
);
width = 811;
},
{
layerId = "BE9EF097-1901-49F4-A2DE-F2A985D0844B";
shapes = (
{
closed = 1;
nodes = (
(153,0,l),
(153,677,l),
(142,677,l),
(666,0,l),
(674,23,l),
(150,700,l),
(133,700,l),
(133,0,l)
);
},
{
closed = 1;
nodes = (
(625,-197,o),
(683,-131,o),
(683,0,cs),
(683,700,l),
(663,700,l),
(663,2,ls),
(663,-120,o),
(614,-178,o),
(512,-178,cs),
(446,-178,o),
(389,-145,o),
(351,-86,c),
(337,-98,l),
(374,-160,o),
(440,-197,o),
(511,-197,cs)
);
}
);
width = 816;
}
);
leftKerningGroup = H;
rightKerningGroup = H;
unicode = 330;
}
{
color = 3;
glyphname = OE;
layers = (
{
anchors = (
{
name = bottom;
position = "{649, 0}";
},
{
name = top;
position = "{649, 700}";
}
);
layerId = "50D943A8-B490-4162-9D4B-803713767B01";
shapes = (
{
closed = 1;
nodes = (
(593,0,l),
(593,184,l),
(434,184,ls),
(335,184,o),
(267,243,o),
(267,350,cs),
(267,457,o),
(335,516,o),
(434,516,cs),
(593,516,l),
(593,700,l),
(424,700,ls),
(190,700,o),
(29,567,o),
(29,350,cs),
(29,133,o),
(190,0,o),
(424,0,cs)
);
},
{
closed = 1;
nodes = (
(749,270,l),
(1061,270,l),
(1061,440,l),
(749,440,l)
);
},
{
closed = 1;
nodes = (
(765,522,l),
(1102,522,l),
(1102,700,l),
(533,700,l),
(533,0,l),
(1115,0,l),
(1115,178,l),
(765,178,l)
);
}
);
width = 1149;
},
{
anchors = (
{
name = bottom;
position = "{614, 0}";
},
{
name = top;
position = "{614, 700}";
}
);
background = {
shapes = (
{
closed = 1;
nodes = (
(426,700,ls),
(200,700,o),
(46,559,o),
(46,350,cs),
(46,141,o),
(200,0,o),
(426,0,cs),
(726,0,l),
(726,700,l)
);
},
{
closed = 1;
nodes = (
(612,99,l),
(432,99,ls),
(267,99,o),
(161,199,o),
(161,350,cs),
(161,501,o),
(267,601,o),
(432,601,cs),
(612,601,l)
);
}
);
};
layerId = "5922F47A-F449-4984-8091-CB5BAF0F3D6E";
shapes = (
{
closed = 1;
nodes = (
(587,0,l),
(587,99,l),
(432,99,ls),
(267,99,o),
(161,199,o),
(161,349,cs),
(161,501,o),
(267,601,o),
(432,601,cs),
(587,601,l),
(587,700,l),
(426,700,ls),
(200,700,o),
(46,559,o),
(46,349,cs),
(46,141,o),
(200,0,o),
(426,0,cs)
);
},
{
closed = 1;
nodes = (
(663,307,l),
(1017,307,l),
(1017,404,l),
(663,404,l)
);
},
{
closed = 1;
nodes = (
(672,601,l),
(1060,601,l),
(1060,700,l),
(558,700,l),
(558,0,l),
(1074,0,l),
(1074,99,l),
(672,99,l)
);
}
);
width = 1128;
},
{
anchors = (
{
name = bottom;
position = "{587, 0}";
},
{
name = top;
position = "{587, 700}";
}
);
layerId = "09D0C439-80D3-4C25-AAD4-493BFD6E371F";
shapes = (
{
closed = 1;
nodes = (
(583,0,l),
(583,19,l),
(428,19,ls),
(217,19,o),
(79,158,o),
(79,349,cs),
(79,540,o),
(217,681,o),
(428,681,cs),
(583,681,l),
(583,700,l),
(428,700,ls),
(208,700,o),
(59,551,o),
(59,349,cs),
(59,147,o),
(208,0,o),
(428,0,cs)
);
},
{
closed = 1;
nodes = (
(592,346,l),
(983,346,l),
(983,365,l),
(592,365,l)
);
},
{
closed = 1;
nodes = (
(597,681,l),
(1028,681,l),
(1028,700,l),
(577,700,l),
(577,0,l),
(1043,0,l),
(1043,19,l),
(597,19,l)
);
}
);
width = 1112;
}
);
leftKerningGroup = O;
rightKerningGroup = E;
unicode = 338;
}
{
color = 8;
glyphname = longs;
layers = (
{
layerId = "50D943A8-B490-4162-9D4B-803713767B01";
shapes = (
{
closed = 1;
nodes = (
(314,0,l),
(314,518,ls),
(314,562,o),
(329,581,o),
(361,581,cs),
(379,581,o),
(397,575,o),
(412,568,c),
(466,725,l),
(433,743,o),
(380,752,o),
(332,752,cs),
(176,752,o),
(88,661,o),
(88,520,cs),
(88,0,l)
);
},
{
closed = 1;
nodes = (
(208,352,l),
(208,517,l),
(13,517,l),
(13,352,l)
);
}
);
width = 366;
},
{
layerId = "5922F47A-F449-4984-8091-CB5BAF0F3D6E";
shapes = (
{
closed = 1;
nodes = (
(222,0,l),
(222,569,ls),
(222,628,o),
(250,658,o),
(302,658,cs),
(329,658,o),
(354,649,o),
(373,635,c),
(405,719,l),
(378,739,o),
(338,748,o),
(296,748,cs),
(177,748,o),
(112,678,o),
(112,570,cs),
(112,0,l)
);
},
{
closed = 1;
nodes = (
(167,442,l),
(167,532,l),
(23,532,l),
(23,442,l)
);
}
);
width = 312;
},
{
layerId = "09D0C439-80D3-4C25-AAD4-493BFD6E371F";
shapes = (
{
closed = 1;
nodes = (
(154,0,l),
(154,613,ls),
(154,686,o),
(190,726,o),
(260,726,cs),
(293,726,o),
(324,715,o),
(346,694,c),
(360,708,l),
(336,733,o),
(296,745,o),
(259,745,cs),
(179,745,o),
(134,694,o),
(134,618,cs),
(134,0,l)
);
},
{
closed = 1;
nodes = (
(149,498,l),
(149,517,l),
(34,517,l),
(34,498,l)
);
}
);
width = 273;
}
);
leftKerningGroup = longs;
rightKerningGroup = longs;
unicode = 383;
}
